MatrixSansSmooth-Regular.ufo
<glyph name="quotedbl" format="2">
  <advance width="400"/>
  <unicode hex="0022"/>
  <outline>
    <contour>
      <point x="300.0" y="400.0" type="line"/>
      <point x="200.0" y="400.0" type="line"/>
      <point x="200.0" y="700.0" type="line"/>
      <point x="300.0" y="700.0" type="line"/>
    </contour>
    <contour>
      <point x="100.0" y="400.0" type="line"/>
      <point x="0.0" y="400.0" type="line"/>
      <point x="0.0" y="700.0" type="line"/>
      <point x="100.0" y="700.0" type="line"/>
    </contour>
  </outline>
</glyph>
<glyph name="percent" format="2">
  <advance width="600"/>
  <unicode hex="0025"/>
  <outline>
    <contour>
      <point x="500.0" y="0.0" type="line"/>
      <point x="300.0" y="0.0" type="line"/>
      <point x="300.0" y="200.0" type="line"/>
      <point x="500.0" y="200.0" type="line"/>
    </contour>
    <contour>
      <point x="200.0" y="500.0" type="line"/>
      <point x="0.0" y="500.0" type="line"/>
      <point x="0.0" y="700.0" type="line"/>
      <point x="200.0" y="700.0" type="line"/>
    </contour>
    <contour>
      <point x="428.0" y="600.0" type="line"/>
      <point x="500.0" y="600.0" type="line"/>
      <point x="500.0" y="528.0" type="line"/>
      <point x="72.0" y="100.0" type="line"/>
      <point x="0.0" y="100.0" type="line"/>
      <point x="0.0" y="172.0" type="line"/>
    </contour>
  </outline>
</glyph>
<glyph name="ampersand" format="2">
  <advance width="600"/>
  <unicode hex="0026"/>
  <outline>
    <contour>
      <point x="272.0" y="0.0" type="line"/>
      <point x="128.0" y="0.0" type="line"/>
      <point x="0.0" y="128.0" type="line"/>
      <point x="0.0" y="272.0" type="line"/>
      <point x="78.0" y="350.0" type="line"/>
      <point x="0.0" y="428.0" type="line"/>
      <point x="0.0" y="572.0" type="line"/>
      <point x="128.0" y="700.0" type="line"/>
      <point x="172.0" y="700.0" type="line"/>
      <point x="300.0" y="572.0" type="line"/>
      <point x="300.0" y="428.0" type="line"/>
      <point x="222.0" y="350.0" type="line"/>
      <point x="350.0" y="222.0" type="line"/>
      <point x="428.0" y="300.0" type="line"/>
      <point x="500.0" y="300.0" type="line"/>
      <point x="500.0" y="228.0" type="line"/>
      <point x="422.0" y="150.0" type="line"/>
      <point x="500.0" y="72.0" type="line"/>
      <point x="500.0" y="0.0" type="line"/>
      <point x="428.0" y="0.0" type="line"/>
      <point x="350.0" y="78.0" type="line"/>
    </contour>
    <contour>
      <point x="172.0" y="100.0" type="line"/>
      <point x="228.0" y="100.0" type="line"/>
      <point x="278.0" y="150.0" type="line"/>
      <point x="150.0" y="278.0" type="line"/>
      <point x="100.0" y="228.0" type="line"/>
      <point x="100.0" y="172.0" type="line"/>
    </contour>
    <contour>
      <point x="150.0" y="578.0" type="line"/>
      <point x="100.0" y="528.0" type="line"/>
      <point x="100.0" y="472.0" type="line"/>
      <point x="150.0" y="422.0" type="line"/>
      <point x="200.0" y="472.0" type="line"/>
      <point x="200.0" y="528.0" type="line"/>
    </contour>
  </outline>
</glyph>
<glyph name="parenleft" format="2">
  <advance width="400"/>
  <unicode hex="0028"/>
  <outline>
    <contour>
      <point x="0.0" y="228.0" type="line"/>
      <point x="0.0" y="472.0" type="line"/>
      <point x="228.0" y="700.0" type="line"/>
      <point x="300.0" y="700.0" type="line"/>
      <point x="300.0" y="628.0" type="line"/>
      <point x="100.0" y="428.0" type="line"/>
      <point x="100.0" y="272.0" type="line"/>
      <point x="300.0" y="72.0" type="line"/>
      <point x="300.0" y="0.0" type="line"/>
      <point x="228.0" y="0.0" type="line"/>
    </contour>
  </outline>
</glyph>
<glyph name="parenright" format="2">
  <advance width="400"/>
  <unicode hex="0029"/>
  <outline>
    <contour>
      <point x="300.0" y="472.0" type="line"/>
      <point x="300.0" y="228.0" type="line"/>
      <point x="72.0" y="0.0" type="line"/>
      <point x="0.0" y="0.0" type="line"/>
      <point x="0.0" y="72.0" type="line"/>
      <point x="200.0" y="272.0" type="line"/>
      <point x="200.0" y="428.0" type="line"/>
      <point x="0.0" y="628.0" type="line"/>
      <point x="0.0" y="700.0" type="line"/>
      <point x="72.0" y="700.0" type="line"/>
    </contour>
  </outline>
</glyph>
<glyph name="asterisk" format="2">
  <advance width="600"/>
  <unicode hex="002A"/>
  <outline>
    <contour>
      <point x="350.0" y="100.0" type="line"/>
      <point x="250.0" y="100.0" type="line"/>
      <point x="250.0" y="300.0" type="line"/>
      <point x="220.0" y="300.0" type="line"/>
      <point x="120.0" y="200.0" type="line"/>
      <point x="50.0" y="200.0" type="line"/>
      <point x="50.0" y="270.0" type="line"/>
      <point x="130.0" y="350.0" type="line"/>
      <point x="50.0" y="430.0" type="line"/>
      <point x="50.0" y="500.0" type="line"/>
      <point x="120.0" y="500.0" type="line"/>
      <point x="220.0" y="400.0" type="line"/>
      <point x="250.0" y="400.0" type="line"/>
      <point x="250.0" y="600.0" type="line"/>
      <point x="350.0" y="600.0" type="line"/>
      <point x="350.0" y="400.0" type="line"/>
      <point x="380.0" y="400.0" type="line"/>
      <point x="480.0" y="500.0" type="line"/>
      <point x="550.0" y="500.0" type="line"/>
      <point x="550.0" y="430.0" type="line"/>
      <point x="470.0" y="350.0" type="line"/>
      <point x="550.0" y="270.0" type="line"/>
      <point x="550.0" y="200.0" type="line"/>
      <point x="480.0" y="200.0" type="line"/>
      <point x="380.0" y="300.0" type="line"/>
      <point x="350.0" y="300.0" type="line"/>
    </contour>
  </outline>
</glyph>
<glyph name="hyphen" format="2">
  <advance width="500"/>
  <unicode hex="002D"/>
  <outline>
    <contour>
      <point x="400.0" y="300.0" type="line"/>
      <point x="0.0" y="300.0" type="line"/>
      <point x="0.0" y="400.0" type="line"/>
      <point x="400.0" y="400.0" type="line"/>
    </contour>
  </outline>
</glyph>
<glyph name="slash" format="2">
  <advance width="600"/>
  <unicode hex="002F"/>
  <outline>
    <contour>
      <point x="480.0" y="600.0" type="line"/>
      <point x="550.0" y="600.0" type="line"/>
      <point x="550.0" y="530.0" type="line"/>
      <point x="120.0" y="100.0" type="line"/>
      <point x="50.0" y="100.0" type="line"/>
      <point x="50.0" y="170.0" type="line"/>
    </contour>
  </outline>
</glyph>
<glyph name="one" format="2">
  <advance width="400"/>
  <unicode hex="0031"/>
  <outline>
    <contour>
      <point x="350.0" y="0.0" type="line"/>
      <point x="50.0" y="0.0" type="line"/>
      <point x="50.0" y="100.0" type="line"/>
      <point x="150.0" y="100.0" type="line"/>
      <point x="150.0" y="500.0" type="line"/>
      <point x="50.0" y="500.0" type="line"/>
      <point x="50.0" y="570.0" type="line"/>
      <point x="180.0" y="700.0" type="line"/>
      <point x="250.0" y="700.0" type="line"/>
      <point x="250.0" y="100.0" type="line"/>
      <point x="350.0" y="100.0" type="line"/>
    </contour>
  </outline>
</glyph>
<glyph name="less" format="2">
  <advance width="400"/>
  <unicode hex="003C"/>
  <outline>
    <contour>
      <point x="228.0" y="600.0" type="line"/>
      <point x="300.0" y="600.0" type="line"/>
      <point x="300.0" y="528.0" type="line"/>
      <point x="122.0" y="350.0" type="line"/>
      <point x="300.0" y="172.0" type="line"/>
      <point x="300.0" y="100.0" type="line"/>
      <point x="228.0" y="100.0" type="line"/>
      <point x="0.0" y="328.0" type="line"/>
      <point x="0.0" y="372.0" type="line"/>
    </contour>
  </outline>
</glyph>
<glyph name="greater" format="2">
  <advance width="400"/>
  <unicode hex="003E"/>
  <outline>
    <contour>
      <point x="50.0" y="600.0" type="line"/>
      <point x="120.0" y="600.0" type="line"/>
      <point x="350.0" y="370.0" type="line"/>
      <point x="350.0" y="330.0" type="line"/>
      <point x="120.0" y="100.0" type="line"/>
      <point x="50.0" y="100.0" type="line"/>
      <point x="50.0" y="170.0" type="line"/>
      <point x="230.0" y="350.0" type="line"/>
      <point x="50.0" y="530.0" type="line"/>
    </contour>
  </outline>
</glyph>
<glyph name="A" format="2">
  <advance width="600"/>
  <unicode hex="0041"/>
  <outline>
    <contour>
      <point x="500.0" y="0.0" type="line"/>
      <point x="400.0" y="0.0" type="line"/>
      <point x="400.0" y="200.0" type="line"/>
      <point x="100.0" y="200.0" type="line"/>
      <point x="100.0" y="0.0" type="line"/>
      <point x="0.0" y="0.0" type="line"/>
      <point x="0.0" y="472.0" type="line"/>
      <point x="228.0" y="700.0" type="line"/>
      <point x="272.0" y="700.0" type="line"/>
      <point x="500.0" y="472.0" type="line"/>
    </contour>
    <contour>
      <point x="100.0" y="300.0" type="line"/>
      <point x="400.0" y="300.0" type="line"/>
      <point x="400.0" y="428.0" type="line"/>
      <point x="250.0" y="578.0" type="line"/>
      <point x="100.0" y="428.0" type="line"/>
    </contour>
  </outline>
</glyph>
<glyph name="K" format="2">
  <advance width="600"/>
  <unicode hex="004B"/>
  <outline>
    <contour>
      <point x="150.0" y="0.0" type="line"/>
      <point x="50.0" y="0.0" type="line"/>
      <point x="50.0" y="700.0" type="line"/>
      <point x="150.0" y="700.0" type="line"/>
      <point x="150.0" y="400.0" type="line"/>
      <point x="180.0" y="400.0" type="line"/>
      <point x="480.0" y="700.0" type="line"/>
      <point x="550.0" y="700.0" type="line"/>
      <point x="550.0" y="630.0" type="line"/>
      <point x="270.0" y="350.0" type="line"/>
      <point x="550.0" y="70.0" type="line"/>
      <point x="550.0" y="0.0" type="line"/>
      <point x="480.0" y="0.0" type="line"/>
      <point x="180.0" y="300.0" type="line"/>
      <point x="150.0" y="300.0" type="line"/>
    </contour>
  </outline>
</glyph>
<glyph name="L" format="2">
  <advance width="600"/>
  <unicode hex="004C"/>
  <outline>
    <contour>
      <point x="500.0" y="0.0" type="line"/>
      <point x="0.0" y="0.0" type="line"/>
      <point x="0.0" y="700.0" type="line"/>
      <point x="100.0" y="700.0" type="line"/>
      <point x="100.0" y="100.0" type="line"/>
      <point x="500.0" y="100.0" type="line"/>
    </contour>
  </outline>
</glyph>
<glyph name="M" format="2">
  <advance width="600"/>
  <unicode hex="004D"/>
  <outline>
    <contour>
      <point x="500.0" y="0.0" type="line"/>
      <point x="400.0" y="0.0" type="line"/>
      <point x="400.0" y="500.0" type="line"/>
      <point x="372.0" y="500.0" type="line"/>
      <point x="300.0" y="428.0" type="line"/>
      <point x="300.0" y="300.0" type="line"/>
      <point x="200.0" y="300.0" type="line"/>
      <point x="200.0" y="428.0" type="line"/>
      <point x="128.0" y="500.0" type="line"/>
      <point x="100.0" y="500.0" type="line"/>
      <point x="100.0" y="0.0" type="line"/>
      <point x="0.0" y="0.0" type="line"/>
      <point x="0.0" y="700.0" type="line"/>
      <point x="100.0" y="700.0" type="line"/>
      <point x="100.0" y="600.0" type="line"/>
      <point x="172.0" y="600.0" type="line"/>
      <point x="250.0" y="522.0" type="line"/>
      <point x="328.0" y="600.0" type="line"/>
      <point x="400.0" y="600.0" type="line"/>
      <point x="400.0" y="700.0" type="line"/>
      <point x="500.0" y="700.0" type="line"/>
    </contour>
  </outline>
</glyph>
<glyph name="Q" format="2">
  <advance width="600"/>
  <unicode hex="0051"/>
  <outline>
    <contour>
      <point x="272.0" y="0.0" type="line"/>
      <point x="128.0" y="0.0" type="line"/>
      <point x="0.0" y="128.0" type="line"/>
      <point x="0.0" y="572.0" type="line"/>
      <point x="128.0" y="700.0" type="line"/>
      <point x="372.0" y="700.0" type="line"/>
      <point x="500.0" y="572.0" type="line"/>
      <point x="500.0" y="228.0" type="line"/>
      <point x="422.0" y="150.0" type="line"/>
      <point x="500.0" y="72.0" type="line"/>
      <point x="500.0" y="0.0" type="line"/>
      <point x="428.0" y="0.0" type="line"/>
      <point x="350.0" y="78.0" type="line"/>
    </contour>
    <contour>
      <point x="172.0" y="100.0" type="line"/>
      <point x="228.0" y="100.0" type="line"/>
      <point x="278.0" y="150.0" type="line"/>
      <point x="200.0" y="228.0" type="line"/>
      <point x="200.0" y="300.0" type="line"/>
      <point x="272.0" y="300.0" type="line"/>
      <point x="350.0" y="222.0" type="line"/>
      <point x="400.0" y="272.0" type="line"/>
      <point x="400.0" y="528.0" type="line"/>
      <point x="328.0" y="600.0" type="line"/>
      <point x="172.0" y="600.0" type="line"/>
      <point x="100.0" y="528.0" type="line"/>
      <point x="100.0" y="172.0" type="line"/>
    </contour>
  </outline>
</glyph>
<glyph name="T" format="2">
  <advance width="600"/>
  <unicode hex="0054"/>
  <outline>
    <contour>
      <point x="300.0" y="0.0" type="line"/>
      <point x="200.0" y="0.0" type="line"/>
      <point x="200.0" y="600.0" type="line"/>
      <point x="0.0" y="600.0" type="line"/>
      <point x="0.0" y="700.0" type="line"/>
      <point x="500.0" y="700.0" type="line"/>
      <point x="500.0" y="600.0" type="line"/>
      <point x="300.0" y="600.0" type="line"/>
    </contour>
  </outline>
</glyph>
<glyph name="V" format="2">
  <advance width="600"/>
  <unicode hex="0056"/>
  <outline>
    <contour>
      <point x="550.0" y="700.0" type="line"/>
      <point x="550.0" y="230.0" type="line"/>
      <point x="320.0" y="0.0" type="line"/>
      <point x="280.0" y="0.0" type="line"/>
      <point x="50.0" y="230.0" type="line"/>
      <point x="50.0" y="700.0" type="line"/>
      <point x="150.0" y="700.0" type="line"/>
      <point x="150.0" y="270.0" type="line"/>
      <point x="300.0" y="120.0" type="line"/>
      <point x="450.0" y="270.0" type="line"/>
      <point x="450.0" y="700.0" type="line"/>
    </contour>
  </outline>
</glyph>
<glyph name="Y" format="2">
  <advance width="600"/>
  <unicode hex="0059"/>
  <outline>
    <contour>
      <point x="300.0" y="0.0" type="line"/>
      <point x="200.0" y="0.0" type="line"/>
      <point x="200.0" y="328.0" type="line"/>
      <point x="0.0" y="528.0" type="line"/>
      <point x="0.0" y="700.0" type="line"/>
      <point x="100.0" y="700.0" type="line"/>
      <point x="100.0" y="572.0" type="line"/>
      <point x="250.0" y="422.0" type="line"/>
      <point x="400.0" y="572.0" type="line"/>
      <point x="400.0" y="700.0" type="line"/>
      <point x="500.0" y="700.0" type="line"/>
      <point x="500.0" y="528.0" type="line"/>
      <point x="300.0" y="328.0" type="line"/>
    </contour>
  </outline>
</glyph>
<glyph name="Z" format="2">
  <advance width="600"/>
  <unicode hex="005A"/>
  <outline>
    <contour>
      <point x="500.0" y="0.0" type="line"/>
      <point x="0.0" y="0.0" type="line"/>
      <point x="0.0" y="172.0" type="line"/>
      <point x="400.0" y="572.0" type="line"/>
      <point x="400.0" y="600.0" type="line"/>
      <point x="0.0" y="600.0" type="line"/>
      <point x="0.0" y="700.0" type="line"/>
      <point x="500.0" y="700.0" type="line"/>
      <point x="500.0" y="528.0" type="line"/>
      <point x="100.0" y="128.0" type="line"/>
      <point x="100.0" y="100.0" type="line"/>
      <point x="500.0" y="100.0" type="line"/>
    </contour>
  </outline>
</glyph>
<glyph name="bracketleft" format="2">
  <advance width="400"/>
  <unicode hex="005B"/>
  <outline>
    <contour>
      <point x="300.0" y="0.0" type="line"/>
      <point x="0.0" y="0.0" type="line"/>
      <point x="0.0" y="700.0" type="line"/>
      <point x="300.0" y="700.0" type="line"/>
      <point x="300.0" y="600.0" type="line"/>
      <point x="100.0" y="600.0" type="line"/>
      <point x="100.0" y="100.0" type="line"/>
      <point x="300.0" y="100.0" type="line"/>
    </contour>
  </outline>
</glyph>
<glyph name="backslash" format="2">
  <advance width="600"/>
  <unicode hex="005C"/>
  <outline>
    <contour>
      <point x="50.0" y="600.0" type="line"/>
      <point x="120.0" y="600.0" type="line"/>
      <point x="550.0" y="170.0" type="line"/>
      <point x="550.0" y="100.0" type="line"/>
      <point x="480.0" y="100.0" type="line"/>
      <point x="50.0" y="530.0" type="line"/>
    </contour>
  </outline>
</glyph>
<glyph name="bracketright" format="2">
  <advance width="400"/>
  <unicode hex="005D"/>
  <outline>
    <contour>
      <point x="300.0" y="0.0" type="line"/>
      <point x="0.0" y="0.0" type="line"/>
      <point x="0.0" y="100.0" type="line"/>
      <point x="200.0" y="100.0" type="line"/>
      <point x="200.0" y="600.0" type="line"/>
      <point x="0.0" y="600.0" type="line"/>
      <point x="0.0" y="700.0" type="line"/>
      <point x="300.0" y="700.0" type="line"/>
    </contour>
  </outline>
</glyph>
<glyph name="asciicircum" format="2">
  <advance width="600"/>
  <unicode hex="005E"/>
  <outline>
    <contour>
      <point x="228.0" y="700.0" type="line"/>
      <point x="272.0" y="700.0" type="line"/>
      <point x="500.0" y="472.0" type="line"/>
      <point x="500.0" y="400.0" type="line"/>
      <point x="428.0" y="400.0" type="line"/>
      <point x="250.0" y="578.0" type="line"/>
      <point x="72.0" y="400.0" type="line"/>
      <point x="0.0" y="400.0" type="line"/>
      <point x="0.0" y="472.0" type="line"/>
    </contour>
  </outline>
</glyph>
<glyph name="grave" format="2">
  <advance width="300"/>
  <unicode hex="0060"/>
  <outline>
    <contour>
      <point x="0.0" y="700.0" type="line"/>
      <point x="72.0" y="700.0" type="line"/>
      <point x="200.0" y="572.0" type="line"/>
      <point x="200.0" y="500.0" type="line"/>
      <point x="128.0" y="500.0" type="line"/>
      <point x="0.0" y="628.0" type="line"/>
    </contour>
  </outline>
</glyph>
<glyph name="m" format="2">
  <advance width="600"/>
  <unicode hex="006D"/>
  <outline>
    <contour>
      <point x="500.0" y="0.0" type="line"/>
      <point x="400.0" y="0.0" type="line"/>
      <point x="400.0" y="328.0" type="line"/>
      <point x="350.0" y="378.0" type="line"/>
      <point x="300.0" y="328.0" type="line"/>
      <point x="300.0" y="100.0" type="line"/>
      <point x="200.0" y="100.0" type="line"/>
      <point x="200.0" y="328.0" type="line"/>
      <point x="128.0" y="400.0" type="line"/>
      <point x="100.0" y="400.0" type="line"/>
      <point x="100.0" y="0.0" type="line"/>
      <point x="0.0" y="0.0" type="line"/>
      <point x="0.0" y="500.0" type="line"/>
      <point x="172.0" y="500.0" type="line"/>
      <point x="250.0" y="422.0" type="line"/>
      <point x="328.0" y="500.0" type="line"/>
      <point x="372.0" y="500.0" type="line"/>
      <point x="500.0" y="372.0" type="line"/>
    </contour>
  </outline>
</glyph>
<glyph name="v" format="2">
  <advance width="600"/>
  <unicode hex="0076"/>
  <outline>
    <contour>
      <point x="500.0" y="500.0" type="line"/>
      <point x="500.0" y="228.0" type="line"/>
      <point x="272.0" y="0.0" type="line"/>
      <point x="228.0" y="0.0" type="line"/>
      <point x="0.0" y="228.0" type="line"/>
      <point x="0.0" y="500.0" type="line"/>
      <point x="100.0" y="500.0" type="line"/>
      <point x="100.0" y="272.0" type="line"/>
      <point x="250.0" y="122.0" type="line"/>
      <point x="400.0" y="272.0" type="line"/>
      <point x="400.0" y="500.0" type="line"/>
    </contour>
  </outline>
</glyph>
<glyph name="w" format="2">
  <advance width="600"/>
  <unicode hex="0077"/>
  <outline>
    <contour>
      <point x="550.0" y="500.0" type="line"/>
      <point x="550.0" y="130.0" type="line"/>
      <point x="420.0" y="0.0" type="line"/>
      <point x="380.0" y="0.0" type="line"/>
      <point x="300.0" y="80.0" type="line"/>
      <point x="220.0" y="0.0" type="line"/>
      <point x="180.0" y="0.0" type="line"/>
      <point x="50.0" y="130.0" type="line"/>
      <point x="50.0" y="500.0" type="line"/>
      <point x="150.0" y="500.0" type="line"/>
      <point x="150.0" y="170.0" type="line"/>
      <point x="200.0" y="120.0" type="line"/>
      <point x="250.0" y="170.0" type="line"/>
      <point x="250.0" y="400.0" type="line"/>
      <point x="350.0" y="400.0" type="line"/>
      <point x="350.0" y="170.0" type="line"/>
      <point x="400.0" y="120.0" type="line"/>
      <point x="450.0" y="170.0" type="line"/>
      <point x="450.0" y="500.0" type="line"/>
    </contour>
  </outline>
</glyph>
<glyph name="x" format="2">
  <advance width="600"/>
  <unicode hex="0078"/>
  <outline>
    <contour>
      <point x="50.0" y="500.0" type="line"/>
      <point x="120.0" y="500.0" type="line"/>
      <point x="300.0" y="320.0" type="line"/>
      <point x="480.0" y="500.0" type="line"/>
      <point x="550.0" y="500.0" type="line"/>
      <point x="550.0" y="430.0" type="line"/>
      <point x="370.0" y="250.0" type="line"/>
      <point x="550.0" y="70.0" type="line"/>
      <point x="550.0" y="0.0" type="line"/>
      <point x="480.0" y="0.0" type="line"/>
      <point x="300.0" y="180.0" type="line"/>
      <point x="120.0" y="0.0" type="line"/>
      <point x="50.0" y="0.0" type="line"/>
      <point x="50.0" y="70.0" type="line"/>
      <point x="230.0" y="250.0" type="line"/>
      <point x="50.0" y="430.0" type="line"/>
    </contour>
  </outline>
</glyph>
<glyph name="y" format="2">
  <advance width="600"/>
  <unicode hex="0079"/>
  <outline>
    <contour>
      <point x="372.0" y="-200.0" type="line"/>
      <point x="100.0" y="-200.0" type="line"/>
      <point x="100.0" y="-100.0" type="line"/>
      <point x="328.0" y="-100.0" type="line"/>
      <point x="400.0" y="-28.0" type="line"/>
      <point x="400.0" y="100.0" type="line"/>
      <point x="372.0" y="100.0" type="line"/>
      <point x="272.0" y="0.0" type="line"/>
      <point x="128.0" y="0.0" type="line"/>
      <point x="0.0" y="128.0" type="line"/>
      <point x="0.0" y="500.0" type="line"/>
      <point x="100.0" y="500.0" type="line"/>
      <point x="100.0" y="172.0" type="line"/>
      <point x="172.0" y="100.0" type="line"/>
      <point x="228.0" y="100.0" type="line"/>
      <point x="328.0" y="200.0" type="line"/>
      <point x="400.0" y="200.0" type="line"/>
      <point x="400.0" y="500.0" type="line"/>
      <point x="500.0" y="500.0" type="line"/>
      <point x="500.0" y="-72.0" type="line"/>
    </contour>
  </outline>
</glyph>
<glyph name="z" format="2">
  <advance width="600"/>
  <unicode hex="007A"/>
  <outline>
    <contour>
      <point x="550.0" y="0.0" type="line"/>
      <point x="50.0" y="0.0" type="line"/>
      <point x="50.0" y="70.0" type="line"/>
      <point x="380.0" y="400.0" type="line"/>
      <point x="50.0" y="400.0" type="line"/>
      <point x="50.0" y="500.0" type="line"/>
      <point x="550.0" y="500.0" type="line"/>
      <point x="550.0" y="430.0" type="line"/>
      <point x="220.0" y="100.0" type="line"/>
      <point x="550.0" y="100.0" type="line"/>
    </contour>
  </outline>
</glyph>
<glyph name="braceleft" format="2">
  <advance width="500"/>
  <unicode hex="007B"/>
  <outline>
    <contour>
      <point x="450.0" y="0.0" type="line"/>
      <point x="280.0" y="0.0" type="line"/>
      <point x="150.0" y="130.0" type="line"/>
      <point x="150.0" y="170.0" type="line"/>
      <point x="230.0" y="250.0" type="line"/>
      <point x="180.0" y="300.0" type="line"/>
      <point x="50.0" y="300.0" type="line"/>
      <point x="50.0" y="400.0" type="line"/>
      <point x="180.0" y="400.0" type="line"/>
      <point x="230.0" y="450.0" type="line"/>
      <point x="150.0" y="530.0" type="line"/>
      <point x="150.0" y="570.0" type="line"/>
      <point x="280.0" y="700.0" type="line"/>
      <point x="450.0" y="700.0" type="line"/>
      <point x="450.0" y="600.0" type="line"/>
      <point x="320.0" y="600.0" type="line"/>
      <point x="270.0" y="550.0" type="line"/>
      <point x="350.0" y="470.0" type="line"/>
      <point x="350.0" y="430.0" type="line"/>
      <point x="270.0" y="350.0" type="line"/>
      <point x="350.0" y="270.0" type="line"/>
      <point x="350.0" y="230.0" type="line"/>
      <point x="270.0" y="150.0" type="line"/>
      <point x="320.0" y="100.0" type="line"/>
      <point x="450.0" y="100.0" type="line"/>
    </contour>
  </outline>
</glyph>
<glyph name="braceright" format="2">
  <advance width="500"/>
  <unicode hex="007D"/>
  <outline>
    <contour>
      <point x="172.0" y="0.0" type="line"/>
      <point x="0.0" y="0.0" type="line"/>
      <point x="0.0" y="100.0" type="line"/>
      <point x="128.0" y="100.0" type="line"/>
      <point x="178.0" y="150.0" type="line"/>
      <point x="100.0" y="228.0" type="line"/>
      <point x="100.0" y="272.0" type="line"/>
      <point x="178.0" y="350.0" type="line"/>
      <point x="100.0" y="428.0" type="line"/>
      <point x="100.0" y="472.0" type="line"/>
      <point x="178.0" y="550.0" type="line"/>
      <point x="128.0" y="600.0" type="line"/>
      <point x="0.0" y="600.0" type="line"/>
      <point x="0.0" y="700.0" type="line"/>
      <point x="172.0" y="700.0" type="line"/>
      <point x="300.0" y="572.0" type="line"/>
      <point x="300.0" y="528.0" type="line"/>
      <point x="222.0" y="450.0" type="line"/>
      <point x="272.0" y="400.0" type="line"/>
      <point x="400.0" y="400.0" type="line"/>
      <point x="400.0" y="300.0" type="line"/>
      <point x="272.0" y="300.0" type="line"/>
      <point x="222.0" y="250.0" type="line"/>
      <point x="300.0" y="172.0" type="line"/>
      <point x="300.0" y="128.0" type="line"/>
    </contour>
  </outline>
</glyph>
<glyph name="asciitilde" format="2">
  <advance width="600"/>
  <unicode hex="007E"/>
  <outline>
    <contour>
      <point x="100.0" y="200.0" type="line"/>
      <point x="0.0" y="200.0" type="line"/>
      <point x="0.0" y="372.0" type="line"/>
      <point x="128.0" y="500.0" type="line"/>
      <point x="172.0" y="500.0" type="line"/>
      <point x="350.0" y="322.0" type="line"/>
      <point x="400.0" y="372.0" type="line"/>
      <point x="400.0" y="500.0" type="line"/>
      <point x="500.0" y="500.0" type="line"/>
      <point x="500.0" y="328.0" type="line"/>
      <point x="372.0" y="200.0" type="line"/>
      <point x="328.0" y="200.0" type="line"/>
      <point x="150.0" y="378.0" type="line"/>
      <point x="100.0" y="328.0" type="line"/>
    </contour>
  </outline>
</glyph>
<glyph name="exclamdown" format="2">
  <advance width="200"/>
  <unicode hex="00A1"/>
  <outline>
    <contour>
      <point x="100.0" y="-200.0" type="line"/>
      <point x="0.0" y="-200.0" type="line"/>
      <point x="0.0" y="300.0" type="line"/>
      <point x="100.0" y="300.0" type="line"/>
    </contour>
    <contour>
      <point x="100.0" y="400.0" type="line"/>
      <point x="0.0" y="400.0" type="line"/>
      <point x="0.0" y="500.0" type="line"/>
      <point x="100.0" y="500.0" type="line"/>
    </contour>
  </outline>
</glyph>
<glyph name="currency" format="2">
  <advance width="600"/>
  <unicode hex="00A4"/>
  <outline>
    <contour>
      <point x="328.0" y="200.0" type="line"/>
      <point x="172.0" y="200.0" type="line"/>
      <point x="72.0" y="100.0" type="line"/>
      <point x="0.0" y="100.0" type="line"/>
      <point x="0.0" y="172.0" type="line"/>
      <point x="100.0" y="272.0" type="line"/>
      <point x="100.0" y="428.0" type="line"/>
      <point x="0.0" y="528.0" type="line"/>
      <point x="0.0" y="600.0" type="line"/>
      <point x="72.0" y="600.0" type="line"/>
      <point x="172.0" y="500.0" type="line"/>
      <point x="328.0" y="500.0" type="line"/>
      <point x="428.0" y="600.0" type="line"/>
      <point x="500.0" y="600.0" type="line"/>
      <point x="500.0" y="528.0" type="line"/>
      <point x="400.0" y="428.0" type="line"/>
      <point x="400.0" y="272.0" type="line"/>
      <point x="500.0" y="172.0" type="line"/>
      <point x="500.0" y="100.0" type="line"/>
      <point x="428.0" y="100.0" type="line"/>
    </contour>
    <contour>
      <point x="200.0" y="300.0" type="line"/>
      <point x="300.0" y="300.0" type="line"/>
      <point x="300.0" y="400.0" type="line"/>
      <point x="200.0" y="400.0" type="line"/>
    </contour>
  </outline>
</glyph>
<glyph name="yen" format="2">
  <advance width="600"/>
  <unicode hex="00A5"/>
  <outline>
    <contour>
      <point x="300.0" y="0.0" type="line"/>
      <point x="200.0" y="0.0" type="line"/>
      <point x="200.0" y="100.0" type="line"/>
      <point x="100.0" y="100.0" type="line"/>
      <point x="100.0" y="200.0" type="line"/>
      <point x="200.0" y="200.0" type="line"/>
      <point x="200.0" y="300.0" type="line"/>
      <point x="100.0" y="300.0" type="line"/>
      <point x="100.0" y="400.0" type="line"/>
      <point x="200.0" y="400.0" type="line"/>
      <point x="200.0" y="428.0" type="line"/>
      <point x="0.0" y="628.0" type="line"/>
      <point x="0.0" y="700.0" type="line"/>
      <point x="72.0" y="700.0" type="line"/>
      <point x="250.0" y="522.0" type="line"/>
      <point x="428.0" y="700.0" type="line"/>
      <point x="500.0" y="700.0" type="line"/>
      <point x="500.0" y="628.0" type="line"/>
      <point x="300.0" y="428.0" type="line"/>
      <point x="300.0" y="400.0" type="line"/>
      <point x="400.0" y="400.0" type="line"/>
      <point x="400.0" y="300.0" type="line"/>
      <point x="300.0" y="300.0" type="line"/>
      <point x="300.0" y="200.0" type="line"/>
      <point x="400.0" y="200.0" type="line"/>
      <point x="400.0" y="100.0" type="line"/>
      <point x="300.0" y="100.0" type="line"/>
    </contour>
  </outline>
</glyph>
<glyph name="brokenbar" format="2">
  <advance width="200"/>
  <unicode hex="00A6"/>
  <outline>
    <contour>
      <point x="100.0" y="0.0" type="line"/>
      <point x="0.0" y="0.0" type="line"/>
      <point x="0.0" y="300.0" type="line"/>
      <point x="100.0" y="300.0" type="line"/>
    </contour>
    <contour>
      <point x="100.0" y="400.0" type="line"/>
      <point x="0.0" y="400.0" type="line"/>
      <point x="0.0" y="700.0" type="line"/>
      <point x="100.0" y="700.0" type="line"/>
    </contour>
  </outline>
</glyph>
<glyph name="dieresis" format="2">
  <advance width="400"/>
  <unicode hex="00A8"/>
  <outline>
    <contour>
      <point x="300.0" y="600.0" type="line"/>
      <point x="200.0" y="600.0" type="line"/>
      <point x="200.0" y="700.0" type="line"/>
      <point x="300.0" y="700.0" type="line"/>
    </contour>
    <contour>
      <point x="100.0" y="600.0" type="line"/>
      <point x="0.0" y="600.0" type="line"/>
      <point x="0.0" y="700.0" type="line"/>
      <point x="100.0" y="700.0" type="line"/>
    </contour>
  </outline>
</glyph>
<glyph name="copyright" format="2">
  <advance width="900"/>
  <unicode hex="00A9"/>
  <outline>
    <contour>
      <point x="572.0" y="-100.0" type="line"/>
      <point x="228.0" y="-100.0" type="line"/>
      <point x="0.0" y="128.0" type="line"/>
      <point x="0.0" y="472.0" type="line"/>
      <point x="228.0" y="700.0" type="line"/>
      <point x="572.0" y="700.0" type="line"/>
      <point x="800.0" y="472.0" type="line"/>
      <point x="800.0" y="128.0" type="line"/>
    </contour>
    <contour>
      <point x="272.0" y="0.0" type="line"/>
      <point x="528.0" y="0.0" type="line"/>
      <point x="700.0" y="172.0" type="line"/>
      <point x="700.0" y="428.0" type="line"/>
      <point x="528.0" y="600.0" type="line"/>
      <point x="272.0" y="600.0" type="line"/>
      <point x="100.0" y="428.0" type="line"/>
      <point x="100.0" y="172.0" type="line"/>
    </contour>
    <contour>
      <point x="500.0" y="100.0" type="line"/>
      <point x="328.0" y="100.0" type="line"/>
      <point x="200.0" y="228.0" type="line"/>
      <point x="200.0" y="372.0" type="line"/>
      <point x="328.0" y="500.0" type="line"/>
      <point x="500.0" y="500.0" type="line"/>
      <point x="500.0" y="400.0" type="line"/>
      <point x="372.0" y="400.0" type="line"/>
      <point x="300.0" y="328.0" type="line"/>
      <point x="300.0" y="272.0" type="line"/>
      <point x="372.0" y="200.0" type="line"/>
      <point x="500.0" y="200.0" type="line"/>
    </contour>
  </outline>
</glyph>
<glyph name="logicalnot" format="2">
  <advance width="600"/>
  <unicode hex="00AC"/>
  <outline>
    <contour>
      <point x="500.0" y="100.0" type="line"/>
      <point x="400.0" y="100.0" type="line"/>
      <point x="400.0" y="300.0" type="line"/>
      <point x="0.0" y="300.0" type="line"/>
      <point x="0.0" y="400.0" type="line"/>
      <point x="500.0" y="400.0" type="line"/>
    </contour>
  </outline>
</glyph>
<glyph name="registered" format="2">
  <advance width="900"/>
  <unicode hex="00AE"/>
  <outline>
    <contour>
      <point x="572.0" y="-100.0" type="line"/>
      <point x="228.0" y="-100.0" type="line"/>
      <point x="0.0" y="128.0" type="line"/>
      <point x="0.0" y="472.0" type="line"/>
      <point x="228.0" y="700.0" type="line"/>
      <point x="572.0" y="700.0" type="line"/>
      <point x="800.0" y="472.0" type="line"/>
      <point x="800.0" y="128.0" type="line"/>
    </contour>
    <contour>
      <point x="272.0" y="0.0" type="line"/>
      <point x="528.0" y="0.0" type="line"/>
      <point x="578.0" y="50.0" type="line"/>
      <point x="428.0" y="200.0" type="line"/>
      <point x="300.0" y="200.0" type="line"/>
      <point x="300.0" y="128.0" type="line"/>
      <point x="222.0" y="50.0" type="line"/>
    </contour>
    <contour>
      <point x="700.0" y="172.0" type="line"/>
      <point x="700.0" y="428.0" type="line"/>
      <point x="528.0" y="600.0" type="line"/>
      <point x="272.0" y="600.0" type="line"/>
      <point x="222.0" y="550.0" type="line"/>
      <point x="272.0" y="500.0" type="line"/>
      <point x="472.0" y="500.0" type="line"/>
      <point x="600.0" y="372.0" type="line"/>
      <point x="600.0" y="328.0" type="line"/>
      <point x="522.0" y="250.0" type="line"/>
      <point x="650.0" y="122.0" type="line"/>
    </contour>
    <contour>
      <point x="300.0" y="300.0" type="line"/>
      <point x="428.0" y="300.0" type="line"/>
      <point x="478.0" y="350.0" type="line"/>
      <point x="428.0" y="400.0" type="line"/>
      <point x="300.0" y="400.0" type="line"/>
    </contour>
    <contour>
      <point x="200.0" y="172.0" type="line"/>
      <point x="200.0" y="428.0" type="line"/>
      <point x="150.0" y="478.0" type="line"/>
      <point x="100.0" y="428.0" type="line"/>
      <point x="100.0" y="172.0" type="line"/>
      <point x="150.0" y="122.0" type="line"/>
    </contour>
  </outline>
</glyph>
<glyph name="macron" format="2">
  <advance width="400"/>
  <unicode hex="00AF"/>
  <outline>
    <contour>
      <point x="300.0" y="600.0" type="line"/>
      <point x="0.0" y="600.0" type="line"/>
      <point x="0.0" y="700.0" type="line"/>
      <point x="300.0" y="700.0" type="line"/>
    </contour>
  </outline>
</glyph>
<glyph name="degree" format="2">
  <advance width="500"/>
  <unicode hex="00B0"/>
  <outline>
    <contour>
      <point x="272.0" y="300.0" type="line"/>
      <point x="128.0" y="300.0" type="line"/>
      <point x="0.0" y="428.0" type="line"/>
      <point x="0.0" y="572.0" type="line"/>
      <point x="128.0" y="700.0" type="line"/>
      <point x="272.0" y="700.0" type="line"/>
      <point x="400.0" y="572.0" type="line"/>
      <point x="400.0" y="428.0" type="line"/>
    </contour>
    <contour>
      <point x="172.0" y="400.0" type="line"/>
      <point x="228.0" y="400.0" type="line"/>
      <point x="300.0" y="472.0" type="line"/>
      <point x="300.0" y="528.0" type="line"/>
      <point x="228.0" y="600.0" type="line"/>
      <point x="172.0" y="600.0" type="line"/>
      <point x="100.0" y="528.0" type="line"/>
      <point x="100.0" y="472.0" type="line"/>
    </contour>
  </outline>
</glyph>
<glyph name="twosuperior" format="2">
  <advance width="400"/>
  <unicode hex="00B2"/>
  <outline>
    <contour>
      <point x="300.0" y="200.0" type="line"/>
      <point x="0.0" y="200.0" type="line"/>
      <point x="0.0" y="372.0" type="line"/>
      <point x="178.0" y="550.0" type="line"/>
      <point x="128.0" y="600.0" type="line"/>
      <point x="0.0" y="600.0" type="line"/>
      <point x="0.0" y="700.0" type="line"/>
      <point x="172.0" y="700.0" type="line"/>
      <point x="300.0" y="572.0" type="line"/>
      <point x="300.0" y="528.0" type="line"/>
      <point x="100.0" y="328.0" type="line"/>
      <point x="100.0" y="300.0" type="line"/>
      <point x="300.0" y="300.0" type="line"/>
    </contour>
  </outline>
</glyph>
<glyph name="acute" format="2">
  <advance width="300"/>
  <unicode hex="00B4"/>
  <outline>
    <contour>
      <point x="180.0" y="700.0" type="line"/>
      <point x="250.0" y="700.0" type="line"/>
      <point x="250.0" y="630.0" type="line"/>
      <point x="120.0" y="500.0" type="line"/>
      <point x="50.0" y="500.0" type="line"/>
      <point x="50.0" y="570.0" type="line"/>
    </contour>
  </outline>
</glyph>
<glyph name="micro" format="2">
  <advance width="600"/>
  <unicode hex="00B5"/>
  <outline>
    <contour>
      <point x="150.0" y="-200.0" type="line"/>
      <point x="50.0" y="-200.0" type="line"/>
      <point x="50.0" y="500.0" type="line"/>
      <point x="150.0" y="500.0" type="line"/>
      <point x="150.0" y="100.0" type="line"/>
      <point x="280.0" y="100.0" type="line"/>
      <point x="350.0" y="170.0" type="line"/>
      <point x="350.0" y="500.0" type="line"/>
      <point x="450.0" y="500.0" type="line"/>
      <point x="450.0" y="170.0" type="line"/>
      <point x="550.0" y="70.0" type="line"/>
      <point x="550.0" y="0.0" type="line"/>
      <point x="480.0" y="0.0" type="line"/>
      <point x="400.0" y="80.0" type="line"/>
      <point x="320.0" y="0.0" type="line"/>
      <point x="150.0" y="0.0" type="line"/>
    </contour>
  </outline>
</glyph>
<glyph name="paragraph" format="2">
  <advance width="600"/>
  <unicode hex="00B6"/>
  <outline>
    <contour>
      <point x="500.0" y="0.0" type="line"/>
      <point x="400.0" y="0.0" type="line"/>
      <point x="400.0" y="600.0" type="line"/>
      <point x="300.0" y="600.0" type="line"/>
      <point x="300.0" y="0.0" type="line"/>
      <point x="200.0" y="0.0" type="line"/>
      <point x="200.0" y="300.0" type="line"/>
      <point x="128.0" y="300.0" type="line"/>
      <point x="0.0" y="428.0" type="line"/>
      <point x="0.0" y="572.0" type="line"/>
      <point x="128.0" y="700.0" type="line"/>
      <point x="500.0" y="700.0" type="line"/>
    </contour>
    <contour>
      <point x="200.0" y="400.0" type="line"/>
      <point x="200.0" y="600.0" type="line"/>
      <point x="172.0" y="600.0" type="line"/>
      <point x="100.0" y="528.0" type="line"/>
      <point x="100.0" y="472.0" type="line"/>
      <point x="172.0" y="400.0" type="line"/>
    </contour>
  </outline>
</glyph>
<glyph name="periodcentered" format="2">
  <advance width="200"/>
  <unicode hex="00B7"/>
  <outline>
    <contour>
      <point x="100.0" y="300.0" type="line"/>
      <point x="0.0" y="300.0" type="line"/>
      <point x="0.0" y="400.0" type="line"/>
      <point x="100.0" y="400.0" type="line"/>
    </contour>
  </outline>
</glyph>
<glyph name="cedilla" format="2">
  <advance width="300"/>
  <unicode hex="00B8"/>
  <outline>
    <contour>
      <point x="250.0" y="-200.0" type="line"/>
      <point x="50.0" y="-200.0" type="line"/>
      <point x="50.0" y="-100.0" type="line"/>
      <point x="150.0" y="-100.0" type="line"/>
      <point x="150.0" y="0.0" type="line"/>
      <point x="250.0" y="0.0" type="line"/>
    </contour>
  </outline>
</glyph>
<glyph name="onesuperior" format="2">
  <advance width="400"/>
  <unicode hex="00B9"/>
  <outline>
    <contour>
      <point x="300.0" y="200.0" type="line"/>
      <point x="0.0" y="200.0" type="line"/>
      <point x="0.0" y="300.0" type="line"/>
      <point x="100.0" y="300.0" type="line"/>
      <point x="100.0" y="500.0" type="line"/>
      <point x="0.0" y="500.0" type="line"/>
      <point x="0.0" y="600.0" type="line"/>
      <point x="100.0" y="600.0" type="line"/>
      <point x="100.0" y="700.0" type="line"/>
      <point x="200.0" y="700.0" type="line"/>
      <point x="200.0" y="300.0" type="line"/>
      <point x="300.0" y="300.0" type="line"/>
    </contour>
  </outline>
</glyph>
<glyph name="Aring" format="2">
  <advance width="600"/>
  <unicode hex="00C5"/>
  <outline>
    <contour>
      <point x="228.0" y="1000.0" type="line"/>
      <point x="272.0" y="1000.0" type="line"/>
      <point x="400.0" y="872.0" type="line"/>
      <point x="400.0" y="828.0" type="line"/>
      <point x="272.0" y="700.0" type="line"/>
      <point x="500.0" y="472.0" type="line"/>
      <point x="500.0" y="0.0" type="line"/>
      <point x="400.0" y="0.0" type="line"/>
      <point x="400.0" y="200.0" type="line"/>
      <point x="100.0" y="200.0" type="line"/>
      <point x="100.0" y="0.0" type="line"/>
      <point x="0.0" y="0.0" type="line"/>
      <point x="0.0" y="472.0" type="line"/>
      <point x="228.0" y="700.0" type="line"/>
      <point x="100.0" y="828.0" type="line"/>
      <point x="100.0" y="872.0" type="line"/>
    </contour>
    <contour>
      <point x="222.0" y="850.0" type="line"/>
      <point x="250.0" y="822.0" type="line"/>
      <point x="278.0" y="850.0" type="line"/>
      <point x="250.0" y="878.0" type="line"/>
    </contour>
    <contour>
      <point x="250.0" y="578.0" type="line"/>
      <point x="100.0" y="428.0" type="line"/>
      <point x="100.0" y="300.0" type="line"/>
      <point x="400.0" y="300.0" type="line"/>
      <point x="400.0" y="428.0" type="line"/>
    </contour>
  </outline>
</glyph>
<glyph name="AE" format="2">
  <advance width="800"/>
  <unicode hex="00C6"/>
  <outline>
    <contour>
      <point x="700.0" y="0.0" type="line"/>
      <point x="300.0" y="0.0" type="line"/>
      <point x="300.0" y="200.0" type="line"/>
      <point x="100.0" y="200.0" type="line"/>
      <point x="100.0" y="0.0" type="line"/>
      <point x="0.0" y="0.0" type="line"/>
      <point x="0.0" y="472.0" type="line"/>
      <point x="228.0" y="700.0" type="line"/>
      <point x="700.0" y="700.0" type="line"/>
      <point x="700.0" y="600.0" type="line"/>
      <point x="400.0" y="600.0" type="line"/>
      <point x="400.0" y="400.0" type="line"/>
      <point x="600.0" y="400.0" type="line"/>
      <point x="600.0" y="300.0" type="line"/>
      <point x="400.0" y="300.0" type="line"/>
      <point x="400.0" y="100.0" type="line"/>
      <point x="700.0" y="100.0" type="line"/>
    </contour>
    <contour>
      <point x="100.0" y="300.0" type="line"/>
      <point x="300.0" y="300.0" type="line"/>
      <point x="300.0" y="600.0" type="line"/>
      <point x="272.0" y="600.0" type="line"/>
      <point x="100.0" y="428.0" type="line"/>
    </contour>
  </outline>
</glyph>
<glyph name="Eth" format="2">
  <advance width="700"/>
  <unicode hex="00D0"/>
  <outline>
    <contour>
      <point x="372.0" y="0.0" type="line"/>
      <point x="100.0" y="0.0" type="line"/>
      <point x="100.0" y="300.0" type="line"/>
      <point x="0.0" y="300.0" type="line"/>
      <point x="0.0" y="400.0" type="line"/>
      <point x="100.0" y="400.0" type="line"/>
      <point x="100.0" y="700.0" type="line"/>
      <point x="372.0" y="700.0" type="line"/>
      <point x="600.0" y="472.0" type="line"/>
      <point x="600.0" y="228.0" type="line"/>
    </contour>
    <contour>
      <point x="200.0" y="100.0" type="line"/>
      <point x="328.0" y="100.0" type="line"/>
      <point x="500.0" y="272.0" type="line"/>
      <point x="500.0" y="428.0" type="line"/>
      <point x="328.0" y="600.0" type="line"/>
      <point x="200.0" y="600.0" type="line"/>
      <point x="200.0" y="400.0" type="line"/>
      <point x="300.0" y="400.0" type="line"/>
      <point x="300.0" y="300.0" type="line"/>
      <point x="200.0" y="300.0" type="line"/>
    </contour>
  </outline>
</glyph>
<glyph name="Oslash" format="2">
  <advance width="600"/>
  <unicode hex="00D8"/>
  <outline>
    <contour>
      <point x="420.0" y="0.0" type="line"/>
      <point x="180.0" y="0.0" type="line"/>
      <point x="50.0" y="130.0" type="line"/>
      <point x="50.0" y="170.0" type="line"/>
      <point x="130.0" y="250.0" type="line"/>
      <point x="50.0" y="330.0" type="line"/>
      <point x="50.0" y="570.0" type="line"/>
      <point x="180.0" y="700.0" type="line"/>
      <point x="420.0" y="700.0" type="line"/>
      <point x="550.0" y="570.0" type="line"/>
      <point x="550.0" y="530.0" type="line"/>
      <point x="470.0" y="450.0" type="line"/>
      <point x="550.0" y="370.0" type="line"/>
      <point x="550.0" y="130.0" type="line"/>
    </contour>
    <contour>
      <point x="220.0" y="100.0" type="line"/>
      <point x="380.0" y="100.0" type="line"/>
      <point x="450.0" y="170.0" type="line"/>
      <point x="450.0" y="330.0" type="line"/>
      <point x="400.0" y="380.0" type="line"/>
      <point x="170.0" y="150.0" type="line"/>
    </contour>
    <contour>
      <point x="150.0" y="530.0" type="line"/>
      <point x="150.0" y="370.0" type="line"/>
      <point x="200.0" y="320.0" type="line"/>
      <point x="430.0" y="550.0" type="line"/>
      <point x="380.0" y="600.0" type="line"/>
      <point x="220.0" y="600.0" type="line"/>
    </contour>
  </outline>
</glyph>
<glyph name="Thorn" format="2">
  <advance width="600"/>
  <unicode hex="00DE"/>
  <outline>
    <contour>
      <point x="150.0" y="0.0" type="line"/>
      <point x="50.0" y="0.0" type="line"/>
      <point x="50.0" y="700.0" type="line"/>
      <point x="150.0" y="700.0" type="line"/>
      <point x="150.0" y="600.0" type="line"/>
      <point x="420.0" y="600.0" type="line"/>
      <point x="550.0" y="470.0" type="line"/>
      <point x="550.0" y="230.0" type="line"/>
      <point x="420.0" y="100.0" type="line"/>
      <point x="150.0" y="100.0" type="line"/>
    </contour>
    <contour>
      <point x="150.0" y="200.0" type="line"/>
      <point x="380.0" y="200.0" type="line"/>
      <point x="450.0" y="270.0" type="line"/>
      <point x="450.0" y="430.0" type="line"/>
      <point x="380.0" y="500.0" type="line"/>
      <point x="150.0" y="500.0" type="line"/>
    </contour>
  </outline>
</glyph>
<glyph name="ae" format="2">
  <advance width="800"/>
  <unicode hex="00E6"/>
  <outline>
    <contour>
      <point x="600.0" y="0.0" type="line"/>
      <point x="428.0" y="0.0" type="line"/>
      <point x="350.0" y="78.0" type="line"/>
      <point x="272.0" y="0.0" type="line"/>
      <point x="128.0" y="0.0" type="line"/>
      <point x="0.0" y="128.0" type="line"/>
      <point x="0.0" y="172.0" type="line"/>
      <point x="128.0" y="300.0" type="line"/>
      <point x="300.0" y="300.0" type="line"/>
      <point x="300.0" y="328.0" type="line"/>
      <point x="228.0" y="400.0" type="line"/>
      <point x="100.0" y="400.0" type="line"/>
      <point x="100.0" y="500.0" type="line"/>
      <point x="272.0" y="500.0" type="line"/>
      <point x="350.0" y="422.0" type="line"/>
      <point x="428.0" y="500.0" type="line"/>
      <point x="572.0" y="500.0" type="line"/>
      <point x="700.0" y="372.0" type="line"/>
      <point x="700.0" y="200.0" type="line"/>
      <point x="400.0" y="200.0" type="line"/>
      <point x="400.0" y="172.0" type="line"/>
      <point x="472.0" y="100.0" type="line"/>
      <point x="600.0" y="100.0" type="line"/>
    </contour>
    <contour>
      <point x="172.0" y="100.0" type="line"/>
      <point x="228.0" y="100.0" type="line"/>
      <point x="300.0" y="172.0" type="line"/>
      <point x="300.0" y="200.0" type="line"/>
      <point x="172.0" y="200.0" type="line"/>
      <point x="122.0" y="150.0" type="line"/>
    </contour>
    <contour>
      <point x="400.0" y="300.0" type="line"/>
      <point x="600.0" y="300.0" type="line"/>
      <point x="600.0" y="328.0" type="line"/>
      <point x="528.0" y="400.0" type="line"/>
      <point x="472.0" y="400.0" type="line"/>
      <point x="400.0" y="328.0" type="line"/>
    </contour>
  </outline>
</glyph>
<glyph name="eth" format="2">
  <advance width="600"/>
  <unicode hex="00F0"/>
  <outline>
    <contour>
      <point x="372.0" y="0.0" type="line"/>
      <point x="128.0" y="0.0" type="line"/>
      <point x="0.0" y="128.0" type="line"/>
      <point x="0.0" y="172.0" type="line"/>
      <point x="128.0" y="300.0" type="line"/>
      <point x="400.0" y="300.0" type="line"/>
      <point x="400.0" y="428.0" type="line"/>
      <point x="350.0" y="478.0" type="line"/>
      <point x="272.0" y="400.0" type="line"/>
      <point x="200.0" y="400.0" type="line"/>
      <point x="200.0" y="472.0" type="line"/>
      <point x="278.0" y="550.0" type="line"/>
      <point x="228.0" y="600.0" type="line"/>
      <point x="100.0" y="600.0" type="line"/>
      <point x="100.0" y="700.0" type="line"/>
      <point x="272.0" y="700.0" type="line"/>
      <point x="350.0" y="622.0" type="line"/>
      <point x="428.0" y="700.0" type="line"/>
      <point x="500.0" y="700.0" type="line"/>
      <point x="500.0" y="628.0" type="line"/>
      <point x="422.0" y="550.0" type="line"/>
      <point x="500.0" y="472.0" type="line"/>
      <point x="500.0" y="128.0" type="line"/>
    </contour>
    <contour>
      <point x="172.0" y="100.0" type="line"/>
      <point x="328.0" y="100.0" type="line"/>
      <point x="400.0" y="172.0" type="line"/>
      <point x="400.0" y="200.0" type="line"/>
      <point x="172.0" y="200.0" type="line"/>
      <point x="122.0" y="150.0" type="line"/>
    </contour>
  </outline>
</glyph>
<glyph name="Aogonek" format="2">
  <advance width="600"/>
  <unicode hex="0104"/>
  <outline>
    <contour>
      <point x="550.0" y="-200.0" type="line"/>
      <point x="350.0" y="-200.0" type="line"/>
      <point x="350.0" y="-30.0" type="line"/>
      <point x="450.0" y="70.0" type="line"/>
      <point x="450.0" y="200.0" type="line"/>
      <point x="150.0" y="200.0" type="line"/>
      <point x="150.0" y="0.0" type="line"/>
      <point x="50.0" y="0.0" type="line"/>
      <point x="50.0" y="470.0" type="line"/>
      <point x="280.0" y="700.0" type="line"/>
      <point x="320.0" y="700.0" type="line"/>
      <point x="550.0" y="470.0" type="line"/>
      <point x="550.0" y="30.0" type="line"/>
      <point x="450.0" y="-70.0" type="line"/>
      <point x="450.0" y="-100.0" type="line"/>
      <point x="550.0" y="-100.0" type="line"/>
    </contour>
    <contour>
      <point x="150.0" y="300.0" type="line"/>
      <point x="450.0" y="300.0" type="line"/>
      <point x="450.0" y="430.0" type="line"/>
      <point x="300.0" y="580.0" type="line"/>
      <point x="150.0" y="430.0" type="line"/>
    </contour>
  </outline>
</glyph>
<glyph name="aogonek" format="2">
  <advance width="600"/>
  <unicode hex="0105"/>
  <outline>
    <contour>
      <point x="300.0" y="-200.0" type="line"/>
      <point x="300.0" y="0.0" type="line"/>
      <point x="128.0" y="0.0" type="line"/>
      <point x="0.0" y="128.0" type="line"/>
      <point x="0.0" y="172.0" type="line"/>
      <point x="128.0" y="300.0" type="line"/>
      <point x="400.0" y="300.0" type="line"/>
      <point x="400.0" y="328.0" type="line"/>
      <point x="328.0" y="400.0" type="line"/>
      <point x="100.0" y="400.0" type="line"/>
      <point x="100.0" y="500.0" type="line"/>
      <point x="372.0" y="500.0" type="line"/>
      <point x="500.0" y="372.0" type="line"/>
      <point x="500.0" y="0.0" type="line"/>
      <point x="400.0" y="0.0" type="line"/>
      <point x="400.0" y="-100.0" type="line"/>
      <point x="500.0" y="-100.0" type="line"/>
      <point x="500.0" y="-200.0" type="line"/>
    </contour>
    <contour>
      <point x="400.0" y="200.0" type="line"/>
      <point x="172.0" y="200.0" type="line"/>
      <point x="122.0" y="150.0" type="line"/>
      <point x="172.0" y="100.0" type="line"/>
      <point x="400.0" y="100.0" type="line"/>
    </contour>
  </outline>
</glyph>
<glyph name="Hbar" format="2">
  <advance width="700"/>
  <unicode hex="0126"/>
  <outline>
    <contour>
      <point x="500.0" y="0.0" type="line"/>
      <point x="400.0" y="0.0" type="line"/>
      <point x="400.0" y="300.0" type="line"/>
      <point x="200.0" y="300.0" type="line"/>
      <point x="200.0" y="0.0" type="line"/>
      <point x="100.0" y="0.0" type="line"/>
      <point x="100.0" y="500.0" type="line"/>
      <point x="0.0" y="500.0" type="line"/>
      <point x="0.0" y="600.0" type="line"/>
      <point x="100.0" y="600.0" type="line"/>
      <point x="100.0" y="700.0" type="line"/>
      <point x="200.0" y="700.0" type="line"/>
      <point x="200.0" y="600.0" type="line"/>
      <point x="400.0" y="600.0" type="line"/>
      <point x="400.0" y="700.0" type="line"/>
      <point x="500.0" y="700.0" type="line"/>
      <point x="500.0" y="600.0" type="line"/>
      <point x="600.0" y="600.0" type="line"/>
      <point x="600.0" y="500.0" type="line"/>
      <point x="500.0" y="500.0" type="line"/>
    </contour>
    <contour>
      <point x="200.0" y="400.0" type="line"/>
      <point x="400.0" y="400.0" type="line"/>
      <point x="400.0" y="500.0" type="line"/>
      <point x="200.0" y="500.0" type="line"/>
    </contour>
  </outline>
</glyph>
<glyph name="Iogonek" format="2">
  <advance width="400"/>
  <unicode hex="012E"/>
  <outline>
    <contour>
      <point x="100.0" y="-200.0" type="line"/>
      <point x="100.0" y="0.0" type="line"/>
      <point x="0.0" y="0.0" type="line"/>
      <point x="0.0" y="100.0" type="line"/>
      <point x="100.0" y="100.0" type="line"/>
      <point x="100.0" y="600.0" type="line"/>
      <point x="0.0" y="600.0" type="line"/>
      <point x="0.0" y="700.0" type="line"/>
      <point x="300.0" y="700.0" type="line"/>
      <point x="300.0" y="600.0" type="line"/>
      <point x="200.0" y="600.0" type="line"/>
      <point x="200.0" y="100.0" type="line"/>
      <point x="300.0" y="100.0" type="line"/>
      <point x="300.0" y="0.0" type="line"/>
      <point x="200.0" y="0.0" type="line"/>
      <point x="200.0" y="-100.0" type="line"/>
      <point x="300.0" y="-100.0" type="line"/>
      <point x="300.0" y="-200.0" type="line"/>
    </contour>
  </outline>
</glyph>
<glyph name="Lcommaaccent" format="2">
  <advance width="600"/>
  <unicode hex="013B"/>
  <outline>
    <contour>
      <point x="100.0" y="-128.0" type="line"/>
      <point x="228.0" y="0.0" type="line"/>
      <point x="0.0" y="0.0" type="line"/>
      <point x="0.0" y="700.0" type="line"/>
      <point x="100.0" y="700.0" type="line"/>
      <point x="100.0" y="100.0" type="line"/>
      <point x="500.0" y="100.0" type="line"/>
      <point x="500.0" y="0.0" type="line"/>
      <point x="300.0" y="0.0" type="line"/>
      <point x="300.0" y="-72.0" type="line"/>
      <point x="172.0" y="-200.0" type="line"/>
      <point x="100.0" y="-200.0" type="line"/>
    </contour>
  </outline>
</glyph>
<glyph name="lcommaaccent" format="2">
  <advance width="400"/>
  <unicode hex="013C"/>
  <outline>
    <contour>
      <point x="0.0" y="-128.0" type="line"/>
      <point x="128.0" y="0.0" type="line"/>
      <point x="0.0" y="0.0" type="line"/>
      <point x="0.0" y="100.0" type="line"/>
      <point x="100.0" y="100.0" type="line"/>
      <point x="100.0" y="600.0" type="line"/>
      <point x="0.0" y="600.0" type="line"/>
      <point x="0.0" y="700.0" type="line"/>
      <point x="200.0" y="700.0" type="line"/>
      <point x="200.0" y="100.0" type="line"/>
      <point x="300.0" y="100.0" type="line"/>
      <point x="300.0" y="0.0" type="line"/>
      <point x="200.0" y="0.0" type="line"/>
      <point x="200.0" y="-72.0" type="line"/>
      <point x="72.0" y="-200.0" type="line"/>
      <point x="0.0" y="-200.0" type="line"/>
    </contour>
  </outline>
</glyph>
<glyph name="Tcedilla" format="2">
  <advance width="600"/>
  <unicode hex="0162"/>
  <outline>
    <contour>
      <point x="200.0" y="-100.0" type="line"/>
      <point x="200.0" y="600.0" type="line"/>
      <point x="0.0" y="600.0" type="line"/>
      <point x="0.0" y="700.0" type="line"/>
      <point x="500.0" y="700.0" type="line"/>
      <point x="500.0" y="600.0" type="line"/>
      <point x="300.0" y="600.0" type="line"/>
      <point x="300.0" y="-200.0" type="line"/>
      <point x="100.0" y="-200.0" type="line"/>
      <point x="100.0" y="-100.0" type="line"/>
    </contour>
  </outline>
</glyph>
<glyph name="longs" format="2">
  <advance width="500"/>
  <unicode hex="017F"/>
  <outline>
    <contour>
      <point x="150.0" y="0.0" type="line"/>
      <point x="50.0" y="0.0" type="line"/>
      <point x="50.0" y="570.0" type="line"/>
      <point x="180.0" y="700.0" type="line"/>
      <point x="320.0" y="700.0" type="line"/>
      <point x="450.0" y="570.0" type="line"/>
      <point x="450.0" y="500.0" type="line"/>
      <point x="380.0" y="500.0" type="line"/>
      <point x="280.0" y="600.0" type="line"/>
      <point x="220.0" y="600.0" type="line"/>
      <point x="150.0" y="530.0" type="line"/>
    </contour>
  </outline>
</glyph>
<glyph name="Dhook" format="2">
  <advance width="700"/>
  <unicode hex="018A"/>
  <outline>
    <contour>
      <point x="420.0" y="0.0" type="line"/>
      <point x="250.0" y="0.0" type="line"/>
      <point x="250.0" y="600.0" type="line"/>
      <point x="220.0" y="600.0" type="line"/>
      <point x="150.0" y="530.0" type="line"/>
      <point x="150.0" y="400.0" type="line"/>
      <point x="50.0" y="400.0" type="line"/>
      <point x="50.0" y="570.0" type="line"/>
      <point x="180.0" y="700.0" type="line"/>
      <point x="420.0" y="700.0" type="line"/>
      <point x="650.0" y="470.0" type="line"/>
      <point x="650.0" y="230.0" type="line"/>
    </contour>
    <contour>
      <point x="350.0" y="100.0" type="line"/>
      <point x="380.0" y="100.0" type="line"/>
      <point x="550.0" y="270.0" type="line"/>
      <point x="550.0" y="430.0" type="line"/>
      <point x="380.0" y="600.0" type="line"/>
      <point x="350.0" y="600.0" type="line"/>
    </contour>
  </outline>
</glyph>
<glyph name="Eopen" format="2">
  <advance width="600"/>
  <unicode hex="0190"/>
  <outline>
    <contour>
      <point x="420.0" y="0.0" type="line"/>
      <point x="180.0" y="0.0" type="line"/>
      <point x="50.0" y="130.0" type="line"/>
      <point x="50.0" y="270.0" type="line"/>
      <point x="130.0" y="350.0" type="line"/>
      <point x="50.0" y="430.0" type="line"/>
      <point x="50.0" y="570.0" type="line"/>
      <point x="180.0" y="700.0" type="line"/>
      <point x="420.0" y="700.0" type="line"/>
      <point x="550.0" y="570.0" type="line"/>
      <point x="550.0" y="500.0" type="line"/>
      <point x="480.0" y="500.0" type="line"/>
      <point x="380.0" y="600.0" type="line"/>
      <point x="220.0" y="600.0" type="line"/>
      <point x="150.0" y="530.0" type="line"/>
      <point x="150.0" y="470.0" type="line"/>
      <point x="220.0" y="400.0" type="line"/>
      <point x="450.0" y="400.0" type="line"/>
      <point x="450.0" y="300.0" type="line"/>
      <point x="220.0" y="300.0" type="line"/>
      <point x="150.0" y="230.0" type="line"/>
      <point x="150.0" y="170.0" type="line"/>
      <point x="220.0" y="100.0" type="line"/>
      <point x="380.0" y="100.0" type="line"/>
      <point x="480.0" y="200.0" type="line"/>
      <point x="550.0" y="200.0" type="line"/>
      <point x="550.0" y="130.0" type="line"/>
    </contour>
  </outline>
</glyph>
<glyph name="Florin" format="2">
  <advance width="700"/>
  <unicode hex="0191"/>
  <outline>
    <contour>
      <point x="250.0" y="300.0" type="line"/>
      <point x="250.0" y="-70.0" type="line"/>
      <point x="120.0" y="-200.0" type="line"/>
      <point x="50.0" y="-200.0" type="line"/>
      <point x="50.0" y="-130.0" type="line"/>
      <point x="150.0" y="-30.0" type="line"/>
      <point x="150.0" y="700.0" type="line"/>
      <point x="650.0" y="700.0" type="line"/>
      <point x="650.0" y="600.0" type="line"/>
      <point x="250.0" y="600.0" type="line"/>
      <point x="250.0" y="400.0" type="line"/>
      <point x="550.0" y="400.0" type="line"/>
      <point x="550.0" y="300.0" type="line"/>
    </contour>
  </outline>
</glyph>
<glyph name="Khook" format="2">
  <advance width="600"/>
  <unicode hex="0198"/>
  <outline>
    <contour>
      <point x="150.0" y="0.0" type="line"/>
      <point x="50.0" y="0.0" type="line"/>
      <point x="50.0" y="570.0" type="line"/>
      <point x="180.0" y="700.0" type="line"/>
      <point x="250.0" y="700.0" type="line"/>
      <point x="250.0" y="630.0" type="line"/>
      <point x="150.0" y="530.0" type="line"/>
      <point x="150.0" y="400.0" type="line"/>
      <point x="180.0" y="400.0" type="line"/>
      <point x="480.0" y="700.0" type="line"/>
      <point x="550.0" y="700.0" type="line"/>
      <point x="550.0" y="630.0" type="line"/>
      <point x="270.0" y="350.0" type="line"/>
      <point x="550.0" y="70.0" type="line"/>
      <point x="550.0" y="0.0" type="line"/>
      <point x="480.0" y="0.0" type="line"/>
      <point x="180.0" y="300.0" type="line"/>
      <point x="150.0" y="300.0" type="line"/>
    </contour>
  </outline>
</glyph>
<glyph name="lambdalatinbar" format="2">
  <advance width="600"/>
  <unicode hex="019B"/>
  <outline>
    <contour>
      <point x="550.0" y="0.0" type="line"/>
      <point x="450.0" y="0.0" type="line"/>
      <point x="450.0" y="130.0" type="line"/>
      <point x="300.0" y="280.0" type="line"/>
      <point x="150.0" y="130.0" type="line"/>
      <point x="150.0" y="0.0" type="line"/>
      <point x="50.0" y="0.0" type="line"/>
      <point x="50.0" y="170.0" type="line"/>
      <point x="250.0" y="370.0" type="line"/>
      <point x="250.0" y="430.0" type="line"/>
      <point x="200.0" y="480.0" type="line"/>
      <point x="120.0" y="400.0" type="line"/>
      <point x="50.0" y="400.0" type="line"/>
      <point x="50.0" y="470.0" type="line"/>
      <point x="130.0" y="550.0" type="line"/>
      <point x="50.0" y="630.0" type="line"/>
      <point x="50.0" y="700.0" type="line"/>
      <point x="120.0" y="700.0" type="line"/>
      <point x="200.0" y="620.0" type="line"/>
      <point x="280.0" y="700.0" type="line"/>
      <point x="350.0" y="700.0" type="line"/>
      <point x="350.0" y="630.0" type="line"/>
      <point x="270.0" y="550.0" type="line"/>
      <point x="350.0" y="470.0" type="line"/>
      <point x="350.0" y="370.0" type="line"/>
      <point x="550.0" y="170.0" type="line"/>
    </contour>
  </outline>
</glyph>
<glyph name="Nhookleft" format="2">
  <advance width="600"/>
  <unicode hex="019D"/>
  <outline>
    <contour>
      <point x="20.0" y="-200.0" type="line"/>
      <point x="-50.0" y="-200.0" type="line"/>
      <point x="-50.0" y="-130.0" type="line"/>
      <point x="50.0" y="-30.0" type="line"/>
      <point x="50.0" y="700.0" type="line"/>
      <point x="150.0" y="700.0" type="line"/>
      <point x="150.0" y="570.0" type="line"/>
      <point x="450.0" y="270.0" type="line"/>
      <point x="450.0" y="700.0" type="line"/>
      <point x="550.0" y="700.0" type="line"/>
      <point x="550.0" y="0.0" type="line"/>
      <point x="450.0" y="0.0" type="line"/>
      <point x="450.0" y="130.0" type="line"/>
      <point x="150.0" y="430.0" type="line"/>
      <point x="150.0" y="-70.0" type="line"/>
    </contour>
  </outline>
</glyph>
<glyph name="Ohorn" format="2">
  <advance width="800"/>
  <unicode hex="01A0"/>
  <outline>
    <contour>
      <point x="420.0" y="0.0" type="line"/>
      <point x="180.0" y="0.0" type="line"/>
      <point x="50.0" y="130.0" type="line"/>
      <point x="50.0" y="570.0" type="line"/>
      <point x="180.0" y="700.0" type="line"/>
      <point x="420.0" y="700.0" type="line"/>
      <point x="550.0" y="570.0" type="line"/>
      <point x="550.0" y="500.0" type="line"/>
      <point x="580.0" y="500.0" type="line"/>
      <point x="650.0" y="570.0" type="line"/>
      <point x="650.0" y="700.0" type="line"/>
      <point x="750.0" y="700.0" type="line"/>
      <point x="750.0" y="530.0" type="line"/>
      <point x="620.0" y="400.0" type="line"/>
      <point x="550.0" y="400.0" type="line"/>
      <point x="550.0" y="130.0" type="line"/>
    </contour>
    <contour>
      <point x="220.0" y="100.0" type="line"/>
      <point x="380.0" y="100.0" type="line"/>
      <point x="450.0" y="170.0" type="line"/>
      <point x="450.0" y="530.0" type="line"/>
      <point x="380.0" y="600.0" type="line"/>
      <point x="220.0" y="600.0" type="line"/>
      <point x="150.0" y="530.0" type="line"/>
      <point x="150.0" y="170.0" type="line"/>
    </contour>
  </outline>
</glyph>
<glyph name="Yhook" format="2">
  <advance width="700"/>
  <unicode hex="01B3"/>
  <outline>
    <contour>
      <point x="350.0" y="0.0" type="line"/>
      <point x="250.0" y="0.0" type="line"/>
      <point x="250.0" y="330.0" type="line"/>
      <point x="50.0" y="530.0" type="line"/>
      <point x="50.0" y="700.0" type="line"/>
      <point x="150.0" y="700.0" type="line"/>
      <point x="150.0" y="570.0" type="line"/>
      <point x="300.0" y="420.0" type="line"/>
      <point x="350.0" y="470.0" type="line"/>
      <point x="350.0" y="570.0" type="line"/>
      <point x="480.0" y="700.0" type="line"/>
      <point x="520.0" y="700.0" type="line"/>
      <point x="650.0" y="570.0" type="line"/>
      <point x="650.0" y="400.0" type="line"/>
      <point x="550.0" y="400.0" type="line"/>
      <point x="550.0" y="530.0" type="line"/>
      <point x="500.0" y="580.0" type="line"/>
      <point x="450.0" y="530.0" type="line"/>
      <point x="450.0" y="430.0" type="line"/>
      <point x="350.0" y="330.0" type="line"/>
    </contour>
  </outline>
</glyph>
<glyph name="yhook" format="2">
  <advance width="700"/>
  <unicode hex="01B4"/>
  <outline>
    <contour>
      <point x="372.0" y="-200.0" type="line"/>
      <point x="100.0" y="-200.0" type="line"/>
      <point x="100.0" y="-100.0" type="line"/>
      <point x="328.0" y="-100.0" type="line"/>
      <point x="400.0" y="-28.0" type="line"/>
      <point x="400.0" y="100.0" type="line"/>
      <point x="372.0" y="100.0" type="line"/>
      <point x="272.0" y="0.0" type="line"/>
      <point x="128.0" y="0.0" type="line"/>
      <point x="0.0" y="128.0" type="line"/>
      <point x="0.0" y="500.0" type="line"/>
      <point x="100.0" y="500.0" type="line"/>
      <point x="100.0" y="172.0" type="line"/>
      <point x="172.0" y="100.0" type="line"/>
      <point x="228.0" y="100.0" type="line"/>
      <point x="328.0" y="200.0" type="line"/>
      <point x="400.0" y="200.0" type="line"/>
      <point x="400.0" y="572.0" type="line"/>
      <point x="528.0" y="700.0" type="line"/>
      <point x="600.0" y="700.0" type="line"/>
      <point x="600.0" y="628.0" type="line"/>
      <point x="500.0" y="528.0" type="line"/>
      <point x="500.0" y="-72.0" type="line"/>
    </contour>
  </outline>
</glyph>
<glyph name="Udieresismacron" format="2">
  <advance width="600"/>
  <unicode hex="01D5"/>
  <outline>
    <contour>
      <point x="151.0" y="601.0" type="line"/>
      <point x="151.0" y="101.0" type="line"/>
      <point x="450.0" y="101.0" type="line"/>
      <point x="450.0" y="601.0" type="line"/>
      <point x="551.0" y="601.0" type="line"/>
      <point x="551.0" y="100.0" type="line"/>
      <point x="451.0" y="100.0" type="line"/>
      <point x="451.0" y="0.0" type="line"/>
      <point x="150.0" y="0.0" type="line"/>
      <point x="150.0" y="100.0" type="line"/>
      <point x="50.0" y="100.0" type="line"/>
      <point x="50.0" y="601.0" type="line"/>
    </contour>
    <component base="macroncomb" xOffset="300.0" yOffset="300.0"/>
    <component base="dieresiscomb" xOffset="300.0" yOffset="100.0"/>
  </outline>
</glyph>
<glyph name="Aringacute" format="2">
  <advance width="600"/>
  <unicode hex="01FA"/>
  <outline>
    <contour>
      <point x="100.0" y="672.0" type="line"/>
      <point x="228.0" y="800.0" type="line"/>
      <point x="200.0" y="800.0" type="line"/>
      <point x="200.0" y="872.0" type="line"/>
      <point x="328.0" y="1000.0" type="line"/>
      <point x="400.0" y="1000.0" type="line"/>
      <point x="400.0" y="928.0" type="line"/>
      <point x="272.0" y="800.0" type="line"/>
      <point x="400.0" y="672.0" type="line"/>
      <point x="400.0" y="628.0" type="line"/>
      <point x="272.0" y="500.0" type="line"/>
      <point x="500.0" y="272.0" type="line"/>
      <point x="500.0" y="0.0" type="line"/>
      <point x="400.0" y="0.0" type="line"/>
      <point x="400.0" y="100.0" type="line"/>
      <point x="100.0" y="100.0" type="line"/>
      <point x="100.0" y="0.0" type="line"/>
      <point x="0.0" y="0.0" type="line"/>
      <point x="0.0" y="272.0" type="line"/>
      <point x="228.0" y="500.0" type="line"/>
      <point x="100.0" y="628.0" type="line"/>
    </contour>
    <contour>
      <point x="222.0" y="650.0" type="line"/>
      <point x="250.0" y="622.0" type="line"/>
      <point x="278.0" y="650.0" type="line"/>
      <point x="250.0" y="678.0" type="line"/>
    </contour>
    <contour>
      <point x="250.0" y="378.0" type="line"/>
      <point x="100.0" y="228.0" type="line"/>
      <point x="100.0" y="200.0" type="line"/>
      <point x="400.0" y="200.0" type="line"/>
      <point x="400.0" y="228.0" type="line"/>
    </contour>
  </outline>
</glyph>
<glyph name="Aslash" format="2">
  <advance width="600"/>
  <unicode hex="023A"/>
  <outline>
    <contour>
      <point x="550.0" y="0.0" type="line"/>
      <point x="450.0" y="0.0" type="line"/>
      <point x="450.0" y="200.0" type="line"/>
      <point x="150.0" y="200.0" type="line"/>
      <point x="150.0" y="0.0" type="line"/>
      <point x="50.0" y="0.0" type="line"/>
      <point x="50.0" y="470.0" type="line"/>
      <point x="280.0" y="700.0" type="line"/>
      <point x="350.0" y="700.0" type="line"/>
      <point x="350.0" y="630.0" type="line"/>
      <point x="150.0" y="430.0" type="line"/>
      <point x="150.0" y="300.0" type="line"/>
      <point x="250.0" y="300.0" type="line"/>
      <point x="250.0" y="370.0" type="line"/>
      <point x="480.0" y="600.0" type="line"/>
      <point x="550.0" y="600.0" type="line"/>
      <point x="550.0" y="530.0" type="line"/>
      <point x="470.0" y="450.0" type="line"/>
      <point x="550.0" y="370.0" type="line"/>
    </contour>
    <contour>
      <point x="350.0" y="300.0" type="line"/>
      <point x="450.0" y="300.0" type="line"/>
      <point x="450.0" y="330.0" type="line"/>
      <point x="400.0" y="380.0" type="line"/>
      <point x="350.0" y="330.0" type="line"/>
    </contour>
  </outline>
</glyph>
<glyph name="Tslash" format="2">
  <advance width="600"/>
  <unicode hex="023E"/>
  <outline>
    <contour>
      <point x="350.0" y="470.0" type="line"/>
      <point x="480.0" y="600.0" type="line"/>
      <point x="350.0" y="600.0" type="line"/>
    </contour>
    <contour>
      <point x="350.0" y="0.0" type="line"/>
      <point x="250.0" y="0.0" type="line"/>
      <point x="250.0" y="230.0" type="line"/>
      <point x="120.0" y="100.0" type="line"/>
      <point x="50.0" y="100.0" type="line"/>
      <point x="50.0" y="170.0" type="line"/>
      <point x="250.0" y="370.0" type="line"/>
      <point x="250.0" y="600.0" type="line"/>
      <point x="50.0" y="600.0" type="line"/>
      <point x="50.0" y="700.0" type="line"/>
      <point x="550.0" y="700.0" type="line"/>
      <point x="550.0" y="530.0" type="line"/>
      <point x="350.0" y="330.0" type="line"/>
    </contour>
  </outline>
</glyph>
<glyph name="eopen" format="2">
  <advance width="600"/>
  <unicode hex="025B"/>
  <outline>
    <contour>
      <point x="550.0" y="0.0" type="line"/>
      <point x="180.0" y="0.0" type="line"/>
      <point x="50.0" y="130.0" type="line"/>
      <point x="50.0" y="170.0" type="line"/>
      <point x="130.0" y="250.0" type="line"/>
      <point x="50.0" y="330.0" type="line"/>
      <point x="50.0" y="370.0" type="line"/>
      <point x="180.0" y="500.0" type="line"/>
      <point x="550.0" y="500.0" type="line"/>
      <point x="550.0" y="400.0" type="line"/>
      <point x="220.0" y="400.0" type="line"/>
      <point x="170.0" y="350.0" type="line"/>
      <point x="220.0" y="300.0" type="line"/>
      <point x="450.0" y="300.0" type="line"/>
      <point x="450.0" y="200.0" type="line"/>
      <point x="220.0" y="200.0" type="line"/>
      <point x="170.0" y="150.0" type="line"/>
      <point x="220.0" y="100.0" type="line"/>
      <point x="550.0" y="100.0" type="line"/>
    </contour>
  </outline>
</glyph>
<glyph name="uni0263" format="2">
  <advance width="600"/>
  <unicode hex="0263"/>
  <outline>
    <contour>
      <point x="450.0" y="70.0" type="line"/>
      <point x="450.0" y="-70.0" type="line"/>
      <point x="320.0" y="-200.0" type="line"/>
      <point x="280.0" y="-200.0" type="line"/>
      <point x="150.0" y="-70.0" type="line"/>
      <point x="150.0" y="70.0" type="line"/>
      <point x="230.0" y="150.0" type="line"/>
      <point x="50.0" y="330.0" type="line"/>
      <point x="50.0" y="500.0" type="line"/>
      <point x="150.0" y="500.0" type="line"/>
      <point x="150.0" y="370.0" type="line"/>
      <point x="300.0" y="220.0" type="line"/>
      <point x="450.0" y="370.0" type="line"/>
      <point x="450.0" y="500.0" type="line"/>
      <point x="550.0" y="500.0" type="line"/>
      <point x="550.0" y="330.0" type="line"/>
      <point x="370.0" y="150.0" type="line"/>
    </contour>
    <contour>
      <point x="300.0" y="80.0" type="line"/>
      <point x="250.0" y="30.0" type="line"/>
      <point x="250.0" y="-30.0" type="line"/>
      <point x="300.0" y="-80.0" type="line"/>
      <point x="350.0" y="-30.0" type="line"/>
      <point x="350.0" y="30.0" type="line"/>
    </contour>
  </outline>
</glyph>
<glyph name="wmod" format="2">
  <advance width="600"/>
  <unicode hex="02B7"/>
  <outline>
    <contour>
      <point x="550.0" y="700.0" type="line"/>
      <point x="550.0" y="430.0" type="line"/>
      <point x="420.0" y="300.0" type="line"/>
      <point x="380.0" y="300.0" type="line"/>
      <point x="300.0" y="380.0" type="line"/>
      <point x="220.0" y="300.0" type="line"/>
      <point x="180.0" y="300.0" type="line"/>
      <point x="50.0" y="430.0" type="line"/>
      <point x="50.0" y="700.0" type="line"/>
      <point x="150.0" y="700.0" type="line"/>
      <point x="150.0" y="470.0" type="line"/>
      <point x="200.0" y="420.0" type="line"/>
      <point x="250.0" y="470.0" type="line"/>
      <point x="250.0" y="600.0" type="line"/>
      <point x="350.0" y="600.0" type="line"/>
      <point x="350.0" y="470.0" type="line"/>
      <point x="400.0" y="420.0" type="line"/>
      <point x="450.0" y="470.0" type="line"/>
      <point x="450.0" y="700.0" type="line"/>
    </contour>
  </outline>
</glyph>
<glyph name="commareversedmod" format="2">
  <advance width="300"/>
  <unicode hex="02BD"/>
  <outline>
    <contour>
      <point x="0.0" y="528.0" type="line"/>
      <point x="0.0" y="700.0" type="line"/>
      <point x="100.0" y="700.0" type="line"/>
      <point x="100.0" y="572.0" type="line"/>
      <point x="200.0" y="472.0" type="line"/>
      <point x="200.0" y="400.0" type="line"/>
      <point x="128.0" y="400.0" type="line"/>
    </contour>
  </outline>
</glyph>
<glyph name="ringhalfright" format="2">
  <advance width="300"/>
  <unicode hex="02BE"/>
  <outline>
    <contour>
      <point x="0.0" y="800.0" type="line"/>
      <point x="72.0" y="800.0" type="line"/>
      <point x="200.0" y="672.0" type="line"/>
      <point x="200.0" y="628.0" type="line"/>
      <point x="72.0" y="500.0" type="line"/>
      <point x="0.0" y="500.0" type="line"/>
      <point x="0.0" y="572.0" type="line"/>
      <point x="78.0" y="650.0" type="line"/>
      <point x="0.0" y="728.0" type="line"/>
    </contour>
  </outline>
</glyph>
<glyph name="ringhalfleft" format="2">
  <advance width="300"/>
  <unicode hex="02BF"/>
  <outline>
    <contour>
      <point x="180.0" y="800.0" type="line"/>
      <point x="250.0" y="800.0" type="line"/>
      <point x="250.0" y="730.0" type="line"/>
      <point x="170.0" y="650.0" type="line"/>
      <point x="250.0" y="570.0" type="line"/>
      <point x="250.0" y="500.0" type="line"/>
      <point x="180.0" y="500.0" type="line"/>
      <point x="50.0" y="630.0" type="line"/>
      <point x="50.0" y="670.0" type="line"/>
    </contour>
  </outline>
</glyph>
<glyph name="circumflex" format="2">
  <advance width="400"/>
  <unicode hex="02C6"/>
  <outline>
    <contour>
      <point x="128.0" y="800.0" type="line"/>
      <point x="172.0" y="800.0" type="line"/>
      <point x="300.0" y="672.0" type="line"/>
      <point x="300.0" y="600.0" type="line"/>
      <point x="228.0" y="600.0" type="line"/>
      <point x="150.0" y="678.0" type="line"/>
      <point x="72.0" y="600.0" type="line"/>
      <point x="0.0" y="600.0" type="line"/>
      <point x="0.0" y="672.0" type="line"/>
    </contour>
  </outline>
</glyph>
<glyph name="caron" format="2">
  <advance width="400"/>
  <unicode hex="02C7"/>
  <outline>
    <contour>
      <point x="0.0" y="800.0" type="line"/>
      <point x="72.0" y="800.0" type="line"/>
      <point x="150.0" y="722.0" type="line"/>
      <point x="228.0" y="800.0" type="line"/>
      <point x="300.0" y="800.0" type="line"/>
      <point x="300.0" y="728.0" type="line"/>
      <point x="172.0" y="600.0" type="line"/>
      <point x="128.0" y="600.0" type="line"/>
      <point x="0.0" y="728.0" type="line"/>
    </contour>
  </outline>
</glyph>
<glyph name="uni02CC" format="2">
  <advance width="200"/>
  <unicode hex="02CC"/>
  <outline>
    <contour>
      <point x="100.0" y="-200.0" type="line"/>
      <point x="0.0" y="-200.0" type="line"/>
      <point x="0.0" y="0.0" type="line"/>
      <point x="100.0" y="0.0" type="line"/>
    </contour>
  </outline>
</glyph>
<glyph name="uni02D0" format="2">
  <advance width="400"/>
  <unicode hex="02D0"/>
  <outline>
    <contour>
      <point x="220.0" y="300.0" type="line"/>
      <point x="180.0" y="300.0" type="line"/>
      <point x="50.0" y="430.0" type="line"/>
      <point x="50.0" y="500.0" type="line"/>
      <point x="350.0" y="500.0" type="line"/>
      <point x="350.0" y="430.0" type="line"/>
    </contour>
    <contour>
      <point x="350.0" y="0.0" type="line"/>
      <point x="50.0" y="0.0" type="line"/>
      <point x="50.0" y="70.0" type="line"/>
      <point x="180.0" y="200.0" type="line"/>
      <point x="220.0" y="200.0" type="line"/>
      <point x="350.0" y="70.0" type="line"/>
    </contour>
  </outline>
</glyph>
<glyph name="breve" format="2">
  <advance width="600"/>
  <unicode hex="02D8"/>
  <outline>
    <contour>
      <point x="420.0" y="600.0" type="line"/>
      <point x="180.0" y="600.0" type="line"/>
      <point x="50.0" y="730.0" type="line"/>
      <point x="50.0" y="800.0" type="line"/>
      <point x="120.0" y="800.0" type="line"/>
      <point x="220.0" y="700.0" type="line"/>
      <point x="380.0" y="700.0" type="line"/>
      <point x="480.0" y="800.0" type="line"/>
      <point x="550.0" y="800.0" type="line"/>
      <point x="550.0" y="730.0" type="line"/>
    </contour>
  </outline>
</glyph>
<glyph name="dotaccent" format="2">
  <advance width="200"/>
  <unicode hex="02D9"/>
  <outline>
    <contour>
      <point x="100.0" y="600.0" type="line"/>
      <point x="0.0" y="600.0" type="line"/>
      <point x="0.0" y="700.0" type="line"/>
      <point x="100.0" y="700.0" type="line"/>
    </contour>
  </outline>
</glyph>
<glyph name="ring" format="2">
  <advance width="400"/>
  <unicode hex="02DA"/>
  <outline>
    <contour>
      <point x="250.0" y="600.0" type="line"/>
      <point x="250.0" y="700.0" type="line"/>
      <point x="150.0" y="700.0" type="line"/>
      <point x="150.0" y="600.0" type="line"/>
    </contour>
    <contour>
      <point x="180.0" y="800.0" type="line"/>
      <point x="220.0" y="800.0" type="line"/>
      <point x="350.0" y="670.0" type="line"/>
      <point x="350.0" y="630.0" type="line"/>
      <point x="220.0" y="500.0" type="line"/>
      <point x="180.0" y="500.0" type="line"/>
      <point x="50.0" y="630.0" type="line"/>
      <point x="50.0" y="670.0" type="line"/>
    </contour>
  </outline>
</glyph>
<glyph name="ogonek" format="2">
  <advance width="300"/>
  <unicode hex="02DB"/>
  <outline>
    <contour>
      <point x="200.0" y="-200.0" type="line"/>
      <point x="0.0" y="-200.0" type="line"/>
      <point x="0.0" y="0.0" type="line"/>
      <point x="100.0" y="0.0" type="line"/>
      <point x="100.0" y="-100.0" type="line"/>
      <point x="200.0" y="-100.0" type="line"/>
    </contour>
  </outline>
</glyph>
<glyph name="hookabovecomb" format="2">
  <unicode hex="0309"/>
  <outline>
    <contour>
      <point x="1250.0" y="600.0" type="line"/>
      <point x="1150.0" y="600.0" type="line"/>
      <point x="1150.0" y="700.0" type="line"/>
      <point x="1050.0" y="700.0" type="line"/>
      <point x="1050.0" y="800.0" type="line"/>
      <point x="1250.0" y="800.0" type="line"/>
    </contour>
  </outline>
</glyph>
<glyph name="uni0315" format="2">
  <unicode hex="0315"/>
  <outline>
    <contour>
      <point x="100.0" y="500.0" type="line"/>
      <point x="0.0" y="500.0" type="line"/>
      <point x="0.0" y="700.0" type="line"/>
      <point x="100.0" y="700.0" type="line"/>
    </contour>
  </outline>
</glyph>
<glyph name="Lambda" format="2">
  <advance width="600"/>
  <unicode hex="039B"/>
  <outline>
    <contour>
      <point x="500.0" y="0.0" type="line"/>
      <point x="400.0" y="0.0" type="line"/>
      <point x="400.0" y="228.0" type="line"/>
      <point x="300.0" y="328.0" type="line"/>
      <point x="300.0" y="428.0" type="line"/>
      <point x="250.0" y="478.0" type="line"/>
      <point x="200.0" y="428.0" type="line"/>
      <point x="200.0" y="328.0" type="line"/>
      <point x="100.0" y="228.0" type="line"/>
      <point x="100.0" y="0.0" type="line"/>
      <point x="0.0" y="0.0" type="line"/>
      <point x="0.0" y="272.0" type="line"/>
      <point x="100.0" y="372.0" type="line"/>
      <point x="100.0" y="472.0" type="line"/>
      <point x="200.0" y="572.0" type="line"/>
      <point x="200.0" y="700.0" type="line"/>
      <point x="300.0" y="700.0" type="line"/>
      <point x="300.0" y="572.0" type="line"/>
      <point x="400.0" y="472.0" type="line"/>
      <point x="400.0" y="372.0" type="line"/>
      <point x="500.0" y="272.0" type="line"/>
    </contour>
  </outline>
</glyph>
<glyph name="Sigma" format="2">
  <advance width="600"/>
  <unicode hex="03A3"/>
  <outline>
    <contour>
      <point x="550.0" y="0.0" type="line"/>
      <point x="50.0" y="0.0" type="line"/>
      <point x="50.0" y="70.0" type="line"/>
      <point x="330.0" y="350.0" type="line"/>
      <point x="50.0" y="630.0" type="line"/>
      <point x="50.0" y="700.0" type="line"/>
      <point x="550.0" y="700.0" type="line"/>
      <point x="550.0" y="600.0" type="line"/>
      <point x="250.0" y="600.0" type="line"/>
      <point x="250.0" y="570.0" type="line"/>
      <point x="450.0" y="370.0" type="line"/>
      <point x="450.0" y="330.0" type="line"/>
      <point x="250.0" y="130.0" type="line"/>
      <point x="250.0" y="100.0" type="line"/>
      <point x="550.0" y="100.0" type="line"/>
    </contour>
  </outline>
</glyph>
<glyph name="eta" format="2">
  <advance width="600"/>
  <unicode hex="03B7"/>
  <outline>
    <contour>
      <point x="550.0" y="-200.0" type="line"/>
      <point x="450.0" y="-200.0" type="line"/>
      <point x="450.0" y="330.0" type="line"/>
      <point x="380.0" y="400.0" type="line"/>
      <point x="320.0" y="400.0" type="line"/>
      <point x="250.0" y="330.0" type="line"/>
      <point x="250.0" y="0.0" type="line"/>
      <point x="150.0" y="0.0" type="line"/>
      <point x="150.0" y="330.0" type="line"/>
      <point x="50.0" y="430.0" type="line"/>
      <point x="50.0" y="500.0" type="line"/>
      <point x="120.0" y="500.0" type="line"/>
      <point x="200.0" y="420.0" type="line"/>
      <point x="280.0" y="500.0" type="line"/>
      <point x="420.0" y="500.0" type="line"/>
      <point x="550.0" y="370.0" type="line"/>
    </contour>
  </outline>
</glyph>
<glyph name="iota" format="2">
  <advance width="400"/>
  <unicode hex="03B9"/>
  <outline>
    <contour>
      <point x="150.0" y="130.0" type="line"/>
      <point x="150.0" y="400.0" type="line"/>
      <point x="50.0" y="400.0" type="line"/>
      <point x="50.0" y="500.0" type="line"/>
      <point x="250.0" y="500.0" type="line"/>
      <point x="250.0" y="170.0" type="line"/>
      <point x="350.0" y="70.0" type="line"/>
      <point x="350.0" y="0.0" type="line"/>
      <point x="280.0" y="0.0" type="line"/>
    </contour>
  </outline>
</glyph>
<glyph name="kappa" format="2">
  <advance width="600"/>
  <unicode hex="03BA"/>
  <outline>
    <contour>
      <point x="120.0" y="0.0" type="line"/>
      <point x="50.0" y="0.0" type="line"/>
      <point x="50.0" y="500.0" type="line"/>
      <point x="150.0" y="500.0" type="line"/>
      <point x="150.0" y="170.0" type="line"/>
      <point x="480.0" y="500.0" type="line"/>
      <point x="550.0" y="500.0" type="line"/>
      <point x="550.0" y="430.0" type="line"/>
      <point x="370.0" y="250.0" type="line"/>
      <point x="550.0" y="70.0" type="line"/>
      <point x="550.0" y="0.0" type="line"/>
      <point x="480.0" y="0.0" type="line"/>
      <point x="300.0" y="180.0" type="line"/>
    </contour>
  </outline>
</glyph>
<glyph name="lambda" format="2">
  <advance width="600"/>
  <unicode hex="03BB"/>
  <outline>
    <contour>
      <point x="550.0" y="0.0" type="line"/>
      <point x="450.0" y="0.0" type="line"/>
      <point x="450.0" y="230.0" type="line"/>
      <point x="300.0" y="380.0" type="line"/>
      <point x="150.0" y="230.0" type="line"/>
      <point x="150.0" y="0.0" type="line"/>
      <point x="50.0" y="0.0" type="line"/>
      <point x="50.0" y="270.0" type="line"/>
      <point x="230.0" y="450.0" type="line"/>
      <point x="50.0" y="630.0" type="line"/>
      <point x="50.0" y="700.0" type="line"/>
      <point x="120.0" y="700.0" type="line"/>
      <point x="550.0" y="270.0" type="line"/>
    </contour>
  </outline>
</glyph>
<glyph name="chi" format="2">
  <advance width="600"/>
  <unicode hex="03C7"/>
  <outline>
    <contour>
      <point x="300.0" y="228.0" type="line"/>
      <point x="300.0" y="72.0" type="line"/>
      <point x="500.0" y="-128.0" type="line"/>
      <point x="500.0" y="-200.0" type="line"/>
      <point x="428.0" y="-200.0" type="line"/>
      <point x="250.0" y="-22.0" type="line"/>
      <point x="72.0" y="-200.0" type="line"/>
      <point x="0.0" y="-200.0" type="line"/>
      <point x="0.0" y="-128.0" type="line"/>
      <point x="200.0" y="72.0" type="line"/>
      <point x="200.0" y="228.0" type="line"/>
      <point x="0.0" y="428.0" type="line"/>
      <point x="0.0" y="500.0" type="line"/>
      <point x="72.0" y="500.0" type="line"/>
      <point x="250.0" y="322.0" type="line"/>
      <point x="428.0" y="500.0" type="line"/>
      <point x="500.0" y="500.0" type="line"/>
      <point x="500.0" y="428.0" type="line"/>
    </contour>
  </outline>
</glyph>
<glyph name="omega" format="2">
  <advance width="600"/>
  <unicode hex="03C9"/>
  <outline>
    <contour>
      <point x="500.0" y="372.0" type="line"/>
      <point x="500.0" y="128.0" type="line"/>
      <point x="372.0" y="0.0" type="line"/>
      <point x="328.0" y="0.0" type="line"/>
      <point x="250.0" y="78.0" type="line"/>
      <point x="172.0" y="0.0" type="line"/>
      <point x="128.0" y="0.0" type="line"/>
      <point x="0.0" y="128.0" type="line"/>
      <point x="0.0" y="372.0" type="line"/>
      <point x="128.0" y="500.0" type="line"/>
      <point x="200.0" y="500.0" type="line"/>
      <point x="200.0" y="428.0" type="line"/>
      <point x="100.0" y="328.0" type="line"/>
      <point x="100.0" y="172.0" type="line"/>
      <point x="150.0" y="122.0" type="line"/>
      <point x="200.0" y="172.0" type="line"/>
      <point x="200.0" y="300.0" type="line"/>
      <point x="300.0" y="300.0" type="line"/>
      <point x="300.0" y="172.0" type="line"/>
      <point x="350.0" y="122.0" type="line"/>
      <point x="400.0" y="172.0" type="line"/>
      <point x="400.0" y="328.0" type="line"/>
      <point x="300.0" y="428.0" type="line"/>
      <point x="300.0" y="500.0" type="line"/>
      <point x="372.0" y="500.0" type="line"/>
    </contour>
  </outline>
</glyph>
<glyph name="KaiSymbol" format="2">
  <advance width="600"/>
  <unicode hex="03CF"/>
  <outline>
    <contour>
      <point x="100.0" y="0.0" type="line"/>
      <point x="0.0" y="0.0" type="line"/>
      <point x="0.0" y="700.0" type="line"/>
      <point x="100.0" y="700.0" type="line"/>
      <point x="100.0" y="400.0" type="line"/>
      <point x="128.0" y="400.0" type="line"/>
      <point x="428.0" y="700.0" type="line"/>
      <point x="500.0" y="700.0" type="line"/>
      <point x="500.0" y="628.0" type="line"/>
      <point x="222.0" y="350.0" type="line"/>
      <point x="500.0" y="72.0" type="line"/>
      <point x="500.0" y="28.0" type="line"/>
      <point x="272.0" y="-200.0" type="line"/>
      <point x="200.0" y="-200.0" type="line"/>
      <point x="200.0" y="-128.0" type="line"/>
      <point x="378.0" y="50.0" type="line"/>
      <point x="128.0" y="300.0" type="line"/>
      <point x="100.0" y="300.0" type="line"/>
    </contour>
  </outline>
</glyph>
<glyph name="kaiSymbol" format="2">
  <advance width="600"/>
  <unicode hex="03D7"/>
  <outline>
    <contour>
      <point x="100.0" y="0.0" type="line"/>
      <point x="0.0" y="0.0" type="line"/>
      <point x="0.0" y="500.0" type="line"/>
      <point x="100.0" y="500.0" type="line"/>
      <point x="100.0" y="300.0" type="line"/>
      <point x="228.0" y="300.0" type="line"/>
      <point x="428.0" y="500.0" type="line"/>
      <point x="500.0" y="500.0" type="line"/>
      <point x="500.0" y="428.0" type="line"/>
      <point x="322.0" y="250.0" type="line"/>
      <point x="500.0" y="72.0" type="line"/>
      <point x="500.0" y="28.0" type="line"/>
      <point x="272.0" y="-200.0" type="line"/>
      <point x="200.0" y="-200.0" type="line"/>
      <point x="200.0" y="-128.0" type="line"/>
      <point x="378.0" y="50.0" type="line"/>
      <point x="228.0" y="200.0" type="line"/>
      <point x="100.0" y="200.0" type="line"/>
    </contour>
  </outline>
</glyph>
<glyph name="uni03E0" format="2">
  <advance width="600"/>
  <unicode hex="03E0"/>
  <outline>
    <contour>
      <point x="450.0" y="170.0" type="line"/>
      <point x="350.0" y="70.0" type="line"/>
      <point x="350.0" y="0.0" type="line"/>
      <point x="420.0" y="0.0" type="line"/>
      <point x="550.0" y="130.0" type="line"/>
      <point x="550.0" y="470.0" type="line"/>
      <point x="320.0" y="700.0" type="line"/>
      <point x="180.0" y="700.0" type="line"/>
      <point x="50.0" y="570.0" type="line"/>
      <point x="50.0" y="500.0" type="line"/>
      <point x="120.0" y="500.0" type="line"/>
      <point x="220.0" y="600.0" type="line"/>
      <point x="280.0" y="600.0" type="line"/>
      <point x="330.0" y="550.0" type="line"/>
      <point x="150.0" y="370.0" type="line"/>
      <point x="150.0" y="300.0" type="line"/>
      <point x="220.0" y="300.0" type="line"/>
      <point x="400.0" y="480.0" type="line"/>
      <point x="430.0" y="450.0" type="line"/>
      <point x="250.0" y="270.0" type="line"/>
      <point x="250.0" y="200.0" type="line"/>
      <point x="320.0" y="200.0" type="line"/>
      <point x="450.0" y="330.0" type="line"/>
    </contour>
  </outline>
</glyph>
<glyph name="Dje-cy" format="2">
  <advance width="700"/>
  <unicode hex="0402"/>
  <outline>
    <contour>
      <point x="300.0" y="0.0" type="line"/>
      <point x="200.0" y="0.0" type="line"/>
      <point x="200.0" y="600.0" type="line"/>
      <point x="0.0" y="600.0" type="line"/>
      <point x="0.0" y="700.0" type="line"/>
      <point x="500.0" y="700.0" type="line"/>
      <point x="500.0" y="600.0" type="line"/>
      <point x="300.0" y="600.0" type="line"/>
      <point x="300.0" y="400.0" type="line"/>
      <point x="472.0" y="400.0" type="line"/>
      <point x="600.0" y="272.0" type="line"/>
      <point x="600.0" y="128.0" type="line"/>
      <point x="472.0" y="0.0" type="line"/>
      <point x="400.0" y="0.0" type="line"/>
      <point x="400.0" y="72.0" type="line"/>
      <point x="500.0" y="172.0" type="line"/>
      <point x="500.0" y="228.0" type="line"/>
      <point x="428.0" y="300.0" type="line"/>
      <point x="300.0" y="300.0" type="line"/>
    </contour>
  </outline>
</glyph>
<glyph name="Lje-cy" format="2">
  <advance width="800"/>
  <unicode hex="0409"/>
  <outline>
    <contour>
      <point x="572.0" y="0.0" type="line"/>
      <point x="300.0" y="0.0" type="line"/>
      <point x="300.0" y="600.0" type="line"/>
      <point x="272.0" y="600.0" type="line"/>
      <point x="200.0" y="528.0" type="line"/>
      <point x="200.0" y="128.0" type="line"/>
      <point x="72.0" y="0.0" type="line"/>
      <point x="0.0" y="0.0" type="line"/>
      <point x="0.0" y="72.0" type="line"/>
      <point x="100.0" y="172.0" type="line"/>
      <point x="100.0" y="572.0" type="line"/>
      <point x="228.0" y="700.0" type="line"/>
      <point x="400.0" y="700.0" type="line"/>
      <point x="400.0" y="400.0" type="line"/>
      <point x="572.0" y="400.0" type="line"/>
      <point x="700.0" y="272.0" type="line"/>
      <point x="700.0" y="128.0" type="line"/>
    </contour>
    <contour>
      <point x="400.0" y="100.0" type="line"/>
      <point x="528.0" y="100.0" type="line"/>
      <point x="600.0" y="172.0" type="line"/>
      <point x="600.0" y="228.0" type="line"/>
      <point x="528.0" y="300.0" type="line"/>
      <point x="400.0" y="300.0" type="line"/>
    </contour>
  </outline>
</glyph>
<glyph name="Nje-cy" format="2">
  <advance width="800"/>
  <unicode hex="040A"/>
  <outline>
    <contour>
      <point x="620.0" y="0.0" type="line"/>
      <point x="350.0" y="0.0" type="line"/>
      <point x="350.0" y="300.0" type="line"/>
      <point x="150.0" y="300.0" type="line"/>
      <point x="150.0" y="0.0" type="line"/>
      <point x="50.0" y="0.0" type="line"/>
      <point x="50.0" y="700.0" type="line"/>
      <point x="150.0" y="700.0" type="line"/>
      <point x="150.0" y="400.0" type="line"/>
      <point x="350.0" y="400.0" type="line"/>
      <point x="350.0" y="700.0" type="line"/>
      <point x="450.0" y="700.0" type="line"/>
      <point x="450.0" y="400.0" type="line"/>
      <point x="620.0" y="400.0" type="line"/>
      <point x="750.0" y="270.0" type="line"/>
      <point x="750.0" y="130.0" type="line"/>
    </contour>
    <contour>
      <point x="450.0" y="100.0" type="line"/>
      <point x="580.0" y="100.0" type="line"/>
      <point x="650.0" y="170.0" type="line"/>
      <point x="650.0" y="230.0" type="line"/>
      <point x="580.0" y="300.0" type="line"/>
      <point x="450.0" y="300.0" type="line"/>
    </contour>
  </outline>
</glyph>
<glyph name="Dzhe-cy" format="2">
  <advance width="600"/>
  <unicode hex="040F"/>
  <outline>
    <contour>
      <point x="300.0" y="-100.0" type="line"/>
      <point x="200.0" y="-100.0" type="line"/>
      <point x="200.0" y="0.0" type="line"/>
      <point x="0.0" y="0.0" type="line"/>
      <point x="0.0" y="700.0" type="line"/>
      <point x="100.0" y="700.0" type="line"/>
      <point x="100.0" y="100.0" type="line"/>
      <point x="400.0" y="100.0" type="line"/>
      <point x="400.0" y="700.0" type="line"/>
      <point x="500.0" y="700.0" type="line"/>
      <point x="500.0" y="0.0" type="line"/>
      <point x="300.0" y="0.0" type="line"/>
    </contour>
  </outline>
</glyph>
<glyph name="Be-cy" format="2">
  <advance width="600"/>
  <unicode hex="0411"/>
  <outline>
    <contour>
      <point x="420.0" y="0.0" type="line"/>
      <point x="50.0" y="0.0" type="line"/>
      <point x="50.0" y="700.0" type="line"/>
      <point x="550.0" y="700.0" type="line"/>
      <point x="550.0" y="600.0" type="line"/>
      <point x="150.0" y="600.0" type="line"/>
      <point x="150.0" y="400.0" type="line"/>
      <point x="420.0" y="400.0" type="line"/>
      <point x="550.0" y="270.0" type="line"/>
      <point x="550.0" y="130.0" type="line"/>
    </contour>
    <contour>
      <point x="150.0" y="100.0" type="line"/>
      <point x="380.0" y="100.0" type="line"/>
      <point x="450.0" y="170.0" type="line"/>
      <point x="450.0" y="230.0" type="line"/>
      <point x="380.0" y="300.0" type="line"/>
      <point x="150.0" y="300.0" type="line"/>
    </contour>
  </outline>
</glyph>
<glyph name="De-cy" format="2">
  <advance width="700"/>
  <unicode hex="0414"/>
  <outline>
    <contour>
      <point x="600.0" y="-100.0" type="line"/>
      <point x="500.0" y="-100.0" type="line"/>
      <point x="500.0" y="0.0" type="line"/>
      <point x="100.0" y="0.0" type="line"/>
      <point x="100.0" y="-100.0" type="line"/>
      <point x="0.0" y="-100.0" type="line"/>
      <point x="0.0" y="100.0" type="line"/>
      <point x="100.0" y="100.0" type="line"/>
      <point x="100.0" y="572.0" type="line"/>
      <point x="228.0" y="700.0" type="line"/>
      <point x="500.0" y="700.0" type="line"/>
      <point x="500.0" y="100.0" type="line"/>
      <point x="600.0" y="100.0" type="line"/>
    </contour>
    <contour>
      <point x="200.0" y="100.0" type="line"/>
      <point x="400.0" y="100.0" type="line"/>
      <point x="400.0" y="600.0" type="line"/>
      <point x="272.0" y="600.0" type="line"/>
      <point x="200.0" y="528.0" type="line"/>
    </contour>
  </outline>
</glyph>
<glyph name="Ii-cy" format="2">
  <advance width="600"/>
  <unicode hex="0418"/>
  <outline>
    <contour>
      <point x="50.0" y="0.0" type="line"/>
      <point x="50.0" y="700.0" type="line"/>
      <point x="150.0" y="700.0" type="line"/>
      <point x="150.0" y="270.0" type="line"/>
      <point x="450.0" y="570.0" type="line"/>
      <point x="450.0" y="700.0" type="line"/>
      <point x="550.0" y="700.0" type="line"/>
      <point x="550.0" y="0.0" type="line"/>
      <point x="450.0" y="0.0" type="line"/>
      <point x="450.0" y="430.0" type="line"/>
      <point x="150.0" y="130.0" type="line"/>
      <point x="150.0" y="0.0" type="line"/>
    </contour>
  </outline>
</glyph>
<glyph name="Pe-cy" format="2">
  <advance width="600"/>
  <unicode hex="041F"/>
  <outline>
    <contour>
      <point x="500.0" y="0.0" type="line"/>
      <point x="400.0" y="0.0" type="line"/>
      <point x="400.0" y="600.0" type="line"/>
      <point x="100.0" y="600.0" type="line"/>
      <point x="100.0" y="0.0" type="line"/>
      <point x="0.0" y="0.0" type="line"/>
      <point x="0.0" y="700.0" type="line"/>
      <point x="500.0" y="700.0" type="line"/>
    </contour>
  </outline>
</glyph>
<glyph name="Tse-cy" format="2">
  <advance width="600"/>
  <unicode hex="0426"/>
  <outline>
    <contour>
      <point x="500.0" y="-100.0" type="line"/>
      <point x="400.0" y="-100.0" type="line"/>
      <point x="400.0" y="0.0" type="line"/>
      <point x="0.0" y="0.0" type="line"/>
      <point x="0.0" y="700.0" type="line"/>
      <point x="100.0" y="700.0" type="line"/>
      <point x="100.0" y="100.0" type="line"/>
      <point x="300.0" y="100.0" type="line"/>
      <point x="300.0" y="700.0" type="line"/>
      <point x="400.0" y="700.0" type="line"/>
      <point x="400.0" y="100.0" type="line"/>
      <point x="500.0" y="100.0" type="line"/>
    </contour>
  </outline>
</glyph>
<glyph name="Yeru-cy" format="2">
  <advance width="700"/>
  <unicode hex="042B"/>
  <outline>
    <contour>
      <point x="650.0" y="0.0" type="line"/>
      <point x="550.0" y="0.0" type="line"/>
      <point x="550.0" y="700.0" type="line"/>
      <point x="650.0" y="700.0" type="line"/>
    </contour>
    <contour>
      <point x="320.0" y="0.0" type="line"/>
      <point x="50.0" y="0.0" type="line"/>
      <point x="50.0" y="700.0" type="line"/>
      <point x="150.0" y="700.0" type="line"/>
      <point x="150.0" y="400.0" type="line"/>
      <point x="320.0" y="400.0" type="line"/>
      <point x="450.0" y="270.0" type="line"/>
      <point x="450.0" y="130.0" type="line"/>
    </contour>
    <contour>
      <point x="150.0" y="100.0" type="line"/>
      <point x="280.0" y="100.0" type="line"/>
      <point x="350.0" y="170.0" type="line"/>
      <point x="350.0" y="230.0" type="line"/>
      <point x="280.0" y="300.0" type="line"/>
      <point x="150.0" y="300.0" type="line"/>
    </contour>
  </outline>
</glyph>
<glyph name="Ereversed-cy" format="2">
  <advance width="600"/>
  <unicode hex="042D"/>
  <outline>
    <contour>
      <point x="372.0" y="0.0" type="line"/>
      <point x="128.0" y="0.0" type="line"/>
      <point x="0.0" y="128.0" type="line"/>
      <point x="0.0" y="200.0" type="line"/>
      <point x="72.0" y="200.0" type="line"/>
      <point x="172.0" y="100.0" type="line"/>
      <point x="328.0" y="100.0" type="line"/>
      <point x="400.0" y="172.0" type="line"/>
      <point x="400.0" y="300.0" type="line"/>
      <point x="100.0" y="300.0" type="line"/>
      <point x="100.0" y="400.0" type="line"/>
      <point x="400.0" y="400.0" type="line"/>
      <point x="400.0" y="528.0" type="line"/>
      <point x="328.0" y="600.0" type="line"/>
      <point x="172.0" y="600.0" type="line"/>
      <point x="72.0" y="500.0" type="line"/>
      <point x="0.0" y="500.0" type="line"/>
      <point x="0.0" y="572.0" type="line"/>
      <point x="128.0" y="700.0" type="line"/>
      <point x="372.0" y="700.0" type="line"/>
      <point x="500.0" y="572.0" type="line"/>
      <point x="500.0" y="128.0" type="line"/>
    </contour>
  </outline>
</glyph>
<glyph name="Ya-cy" format="2">
  <advance width="600"/>
  <unicode hex="042F"/>
  <outline>
    <contour>
      <point x="500.0" y="0.0" type="line"/>
      <point x="400.0" y="0.0" type="line"/>
      <point x="400.0" y="300.0" type="line"/>
      <point x="300.0" y="300.0" type="line"/>
      <point x="300.0" y="228.0" type="line"/>
      <point x="72.0" y="0.0" type="line"/>
      <point x="0.0" y="0.0" type="line"/>
      <point x="0.0" y="72.0" type="line"/>
      <point x="200.0" y="272.0" type="line"/>
      <point x="200.0" y="300.0" type="line"/>
      <point x="128.0" y="300.0" type="line"/>
      <point x="0.0" y="428.0" type="line"/>
      <point x="0.0" y="572.0" type="line"/>
      <point x="128.0" y="700.0" type="line"/>
      <point x="500.0" y="700.0" type="line"/>
    </contour>
    <contour>
      <point x="172.0" y="400.0" type="line"/>
      <point x="400.0" y="400.0" type="line"/>
      <point x="400.0" y="600.0" type="line"/>
      <point x="172.0" y="600.0" type="line"/>
      <point x="100.0" y="528.0" type="line"/>
      <point x="100.0" y="472.0" type="line"/>
    </contour>
  </outline>
</glyph>
<glyph name="ge-cy" format="2">
  <advance width="600"/>
  <unicode hex="0433"/>
  <outline>
    <contour>
      <point x="100.0" y="0.0" type="line"/>
      <point x="0.0" y="0.0" type="line"/>
      <point x="0.0" y="500.0" type="line"/>
      <point x="500.0" y="500.0" type="line"/>
      <point x="500.0" y="400.0" type="line"/>
      <point x="100.0" y="400.0" type="line"/>
    </contour>
  </outline>
</glyph>
<glyph name="de-cy" format="2">
  <advance width="700"/>
  <unicode hex="0434"/>
  <outline>
    <contour>
      <point x="650.0" y="-100.0" type="line"/>
      <point x="550.0" y="-100.0" type="line"/>
      <point x="550.0" y="0.0" type="line"/>
      <point x="150.0" y="0.0" type="line"/>
      <point x="150.0" y="-100.0" type="line"/>
      <point x="50.0" y="-100.0" type="line"/>
      <point x="50.0" y="100.0" type="line"/>
      <point x="150.0" y="100.0" type="line"/>
      <point x="150.0" y="370.0" type="line"/>
      <point x="280.0" y="500.0" type="line"/>
      <point x="550.0" y="500.0" type="line"/>
      <point x="550.0" y="100.0" type="line"/>
      <point x="650.0" y="100.0" type="line"/>
    </contour>
    <contour>
      <point x="250.0" y="100.0" type="line"/>
      <point x="450.0" y="100.0" type="line"/>
      <point x="450.0" y="400.0" type="line"/>
      <point x="320.0" y="400.0" type="line"/>
      <point x="250.0" y="330.0" type="line"/>
    </contour>
  </outline>
</glyph>
<glyph name="tse-cy" format="2">
  <advance width="600"/>
  <unicode hex="0446"/>
  <outline>
    <contour>
      <point x="500.0" y="-100.0" type="line"/>
      <point x="400.0" y="-100.0" type="line"/>
      <point x="400.0" y="0.0" type="line"/>
      <point x="0.0" y="0.0" type="line"/>
      <point x="0.0" y="500.0" type="line"/>
      <point x="100.0" y="500.0" type="line"/>
      <point x="100.0" y="100.0" type="line"/>
      <point x="300.0" y="100.0" type="line"/>
      <point x="300.0" y="500.0" type="line"/>
      <point x="400.0" y="500.0" type="line"/>
      <point x="400.0" y="100.0" type="line"/>
      <point x="500.0" y="100.0" type="line"/>
    </contour>
  </outline>
</glyph>
<glyph name="softsign-cy" format="2">
  <advance width="600"/>
  <unicode hex="044C"/>
  <outline>
    <contour>
      <point x="372.0" y="0.0" type="line"/>
      <point x="0.0" y="0.0" type="line"/>
      <point x="0.0" y="500.0" type="line"/>
      <point x="100.0" y="500.0" type="line"/>
      <point x="100.0" y="300.0" type="line"/>
      <point x="372.0" y="300.0" type="line"/>
      <point x="500.0" y="172.0" type="line"/>
      <point x="500.0" y="128.0" type="line"/>
    </contour>
    <contour>
      <point x="100.0" y="100.0" type="line"/>
      <point x="328.0" y="100.0" type="line"/>
      <point x="378.0" y="150.0" type="line"/>
      <point x="328.0" y="200.0" type="line"/>
      <point x="100.0" y="200.0" type="line"/>
    </contour>
  </outline>
</glyph>
<glyph name="yu-cy" format="2">
  <advance width="700"/>
  <unicode hex="044E"/>
  <outline>
    <contour>
      <point x="520.0" y="0.0" type="line"/>
      <point x="380.0" y="0.0" type="line"/>
      <point x="250.0" y="130.0" type="line"/>
      <point x="250.0" y="200.0" type="line"/>
      <point x="150.0" y="200.0" type="line"/>
      <point x="150.0" y="0.0" type="line"/>
      <point x="50.0" y="0.0" type="line"/>
      <point x="50.0" y="500.0" type="line"/>
      <point x="150.0" y="500.0" type="line"/>
      <point x="150.0" y="300.0" type="line"/>
      <point x="250.0" y="300.0" type="line"/>
      <point x="250.0" y="370.0" type="line"/>
      <point x="380.0" y="500.0" type="line"/>
      <point x="520.0" y="500.0" type="line"/>
      <point x="650.0" y="370.0" type="line"/>
      <point x="650.0" y="130.0" type="line"/>
    </contour>
    <contour>
      <point x="420.0" y="100.0" type="line"/>
      <point x="480.0" y="100.0" type="line"/>
      <point x="550.0" y="170.0" type="line"/>
      <point x="550.0" y="330.0" type="line"/>
      <point x="480.0" y="400.0" type="line"/>
      <point x="420.0" y="400.0" type="line"/>
      <point x="350.0" y="330.0" type="line"/>
      <point x="350.0" y="170.0" type="line"/>
    </contour>
  </outline>
</glyph>
<glyph name="ya-cy" format="2">
  <advance width="600"/>
  <unicode hex="044F"/>
  <outline>
    <contour>
      <point x="500.0" y="0.0" type="line"/>
      <point x="400.0" y="0.0" type="line"/>
      <point x="400.0" y="200.0" type="line"/>
      <point x="200.0" y="200.0" type="line"/>
      <point x="200.0" y="128.0" type="line"/>
      <point x="72.0" y="0.0" type="line"/>
      <point x="0.0" y="0.0" type="line"/>
      <point x="0.0" y="72.0" type="line"/>
      <point x="100.0" y="172.0" type="line"/>
      <point x="100.0" y="228.0" type="line"/>
      <point x="0.0" y="328.0" type="line"/>
      <point x="0.0" y="372.0" type="line"/>
      <point x="128.0" y="500.0" type="line"/>
      <point x="500.0" y="500.0" type="line"/>
    </contour>
    <contour>
      <point x="172.0" y="300.0" type="line"/>
      <point x="400.0" y="300.0" type="line"/>
      <point x="400.0" y="400.0" type="line"/>
      <point x="172.0" y="400.0" type="line"/>
      <point x="122.0" y="350.0" type="line"/>
    </contour>
  </outline>
</glyph>
<glyph name="dje-cy" format="2">
  <advance width="700"/>
  <unicode hex="0452"/>
  <outline>
    <contour>
      <point x="600.0" y="272.0" type="line"/>
      <point x="600.0" y="-72.0" type="line"/>
      <point x="472.0" y="-200.0" type="line"/>
      <point x="400.0" y="-200.0" type="line"/>
      <point x="400.0" y="-128.0" type="line"/>
      <point x="500.0" y="-28.0" type="line"/>
      <point x="500.0" y="228.0" type="line"/>
      <point x="428.0" y="300.0" type="line"/>
      <point x="372.0" y="300.0" type="line"/>
      <point x="272.0" y="200.0" type="line"/>
      <point x="200.0" y="200.0" type="line"/>
      <point x="200.0" y="0.0" type="line"/>
      <point x="100.0" y="0.0" type="line"/>
      <point x="100.0" y="500.0" type="line"/>
      <point x="0.0" y="500.0" type="line"/>
      <point x="0.0" y="600.0" type="line"/>
      <point x="100.0" y="600.0" type="line"/>
      <point x="100.0" y="700.0" type="line"/>
      <point x="200.0" y="700.0" type="line"/>
      <point x="200.0" y="600.0" type="line"/>
      <point x="400.0" y="600.0" type="line"/>
      <point x="400.0" y="500.0" type="line"/>
      <point x="200.0" y="500.0" type="line"/>
      <point x="200.0" y="300.0" type="line"/>
      <point x="228.0" y="300.0" type="line"/>
      <point x="328.0" y="400.0" type="line"/>
      <point x="472.0" y="400.0" type="line"/>
    </contour>
  </outline>
</glyph>
<glyph name="nje-cy" format="2">
  <advance width="800"/>
  <unicode hex="045A"/>
  <outline>
    <contour>
      <point x="572.0" y="0.0" type="line"/>
      <point x="300.0" y="0.0" type="line"/>
      <point x="300.0" y="200.0" type="line"/>
      <point x="100.0" y="200.0" type="line"/>
      <point x="100.0" y="0.0" type="line"/>
      <point x="0.0" y="0.0" type="line"/>
      <point x="0.0" y="500.0" type="line"/>
      <point x="100.0" y="500.0" type="line"/>
      <point x="100.0" y="300.0" type="line"/>
      <point x="300.0" y="300.0" type="line"/>
      <point x="300.0" y="500.0" type="line"/>
      <point x="400.0" y="500.0" type="line"/>
      <point x="400.0" y="300.0" type="line"/>
      <point x="572.0" y="300.0" type="line"/>
      <point x="700.0" y="172.0" type="line"/>
      <point x="700.0" y="128.0" type="line"/>
    </contour>
    <contour>
      <point x="400.0" y="100.0" type="line"/>
      <point x="528.0" y="100.0" type="line"/>
      <point x="578.0" y="150.0" type="line"/>
      <point x="528.0" y="200.0" type="line"/>
      <point x="400.0" y="200.0" type="line"/>
    </contour>
  </outline>
</glyph>
<glyph name="uni0462" format="2">
  <advance width="700"/>
  <unicode hex="0462"/>
  <outline>
    <contour>
      <point x="520.0" y="0.0" type="line"/>
      <point x="250.0" y="0.0" type="line"/>
      <point x="250.0" y="500.0" type="line"/>
      <point x="50.0" y="500.0" type="line"/>
      <point x="50.0" y="600.0" type="line"/>
      <point x="250.0" y="600.0" type="line"/>
      <point x="250.0" y="700.0" type="line"/>
      <point x="350.0" y="700.0" type="line"/>
      <point x="350.0" y="600.0" type="line"/>
      <point x="550.0" y="600.0" type="line"/>
      <point x="550.0" y="500.0" type="line"/>
      <point x="350.0" y="500.0" type="line"/>
      <point x="350.0" y="400.0" type="line"/>
      <point x="520.0" y="400.0" type="line"/>
      <point x="650.0" y="270.0" type="line"/>
      <point x="650.0" y="130.0" type="line"/>
    </contour>
    <contour>
      <point x="350.0" y="100.0" type="line"/>
      <point x="480.0" y="100.0" type="line"/>
      <point x="550.0" y="170.0" type="line"/>
      <point x="550.0" y="230.0" type="line"/>
      <point x="480.0" y="300.0" type="line"/>
      <point x="350.0" y="300.0" type="line"/>
    </contour>
  </outline>
</glyph>
<glyph name="uni046A" format="2">
  <advance width="600"/>
  <unicode hex="046A"/>
  <outline>
    <contour>
      <point x="550.0" y="0.0" type="line"/>
      <point x="450.0" y="0.0" type="line"/>
      <point x="450.0" y="230.0" type="line"/>
      <point x="400.0" y="280.0" type="line"/>
      <point x="350.0" y="230.0" type="line"/>
      <point x="350.0" y="0.0" type="line"/>
      <point x="250.0" y="0.0" type="line"/>
      <point x="250.0" y="230.0" type="line"/>
      <point x="200.0" y="280.0" type="line"/>
      <point x="150.0" y="230.0" type="line"/>
      <point x="150.0" y="0.0" type="line"/>
      <point x="50.0" y="0.0" type="line"/>
      <point x="50.0" y="270.0" type="line"/>
      <point x="130.0" y="350.0" type="line"/>
      <point x="50.0" y="430.0" type="line"/>
      <point x="50.0" y="700.0" type="line"/>
      <point x="550.0" y="700.0" type="line"/>
      <point x="550.0" y="430.0" type="line"/>
      <point x="470.0" y="350.0" type="line"/>
      <point x="550.0" y="270.0" type="line"/>
    </contour>
    <contour>
      <point x="450.0" y="470.0" type="line"/>
      <point x="450.0" y="600.0" type="line"/>
      <point x="150.0" y="600.0" type="line"/>
      <point x="150.0" y="470.0" type="line"/>
      <point x="300.0" y="320.0" type="line"/>
    </contour>
  </outline>
</glyph>
<glyph name="uni0474" format="2">
  <advance width="700"/>
  <unicode hex="0474"/>
  <outline>
    <contour>
      <point x="500.0" y="600.0" type="line"/>
      <point x="500.0" y="228.0" type="line"/>
      <point x="272.0" y="0.0" type="line"/>
      <point x="228.0" y="0.0" type="line"/>
      <point x="0.0" y="228.0" type="line"/>
      <point x="0.0" y="700.0" type="line"/>
      <point x="100.0" y="700.0" type="line"/>
      <point x="100.0" y="272.0" type="line"/>
      <point x="250.0" y="122.0" type="line"/>
      <point x="400.0" y="272.0" type="line"/>
      <point x="400.0" y="700.0" type="line"/>
      <point x="600.0" y="700.0" type="line"/>
      <point x="600.0" y="600.0" type="line"/>
    </contour>
  </outline>
</glyph>
<glyph name="uni048A" format="2">
  <advance width="700"/>
  <unicode hex="048A"/>
  <outline>
    <contour>
      <point x="650.0" y="0.0" type="line"/>
      <point x="550.0" y="0.0" type="line"/>
      <point x="550.0" y="-70.0" type="line"/>
      <point x="420.0" y="-200.0" type="line"/>
      <point x="350.0" y="-200.0" type="line"/>
      <point x="350.0" y="-130.0" type="line"/>
      <point x="450.0" y="-30.0" type="line"/>
      <point x="450.0" y="400.0" type="line"/>
      <point x="420.0" y="400.0" type="line"/>
      <point x="220.0" y="200.0" type="line"/>
      <point x="150.0" y="200.0" type="line"/>
      <point x="150.0" y="0.0" type="line"/>
      <point x="50.0" y="0.0" type="line"/>
      <point x="50.0" y="700.0" type="line"/>
      <point x="150.0" y="700.0" type="line"/>
      <point x="150.0" y="300.0" type="line"/>
      <point x="180.0" y="300.0" type="line"/>
      <point x="380.0" y="500.0" type="line"/>
      <point x="450.0" y="500.0" type="line"/>
      <point x="450.0" y="700.0" type="line"/>
      <point x="550.0" y="700.0" type="line"/>
      <point x="550.0" y="100.0" type="line"/>
      <point x="650.0" y="100.0" type="line"/>
    </contour>
    <contour>
      <point x="420.0" y="800.0" type="line"/>
      <point x="180.0" y="800.0" type="line"/>
      <point x="50.0" y="930.0" type="line"/>
      <point x="50.0" y="1000.0" type="line"/>
      <point x="120.0" y="1000.0" type="line"/>
      <point x="220.0" y="900.0" type="line"/>
      <point x="380.0" y="900.0" type="line"/>
      <point x="480.0" y="1000.0" type="line"/>
      <point x="550.0" y="1000.0" type="line"/>
      <point x="550.0" y="930.0" type="line"/>
    </contour>
  </outline>
</glyph>
<glyph name="Ertick-cy" format="2">
  <advance width="600"/>
  <unicode hex="048E"/>
  <outline>
    <contour>
      <point x="150.0" y="0.0" type="line"/>
      <point x="50.0" y="0.0" type="line"/>
      <point x="50.0" y="700.0" type="line"/>
      <point x="420.0" y="700.0" type="line"/>
      <point x="550.0" y="570.0" type="line"/>
      <point x="550.0" y="430.0" type="line"/>
      <point x="470.0" y="350.0" type="line"/>
      <point x="550.0" y="270.0" type="line"/>
      <point x="550.0" y="200.0" type="line"/>
      <point x="480.0" y="200.0" type="line"/>
      <point x="400.0" y="280.0" type="line"/>
      <point x="320.0" y="200.0" type="line"/>
      <point x="150.0" y="200.0" type="line"/>
    </contour>
    <contour>
      <point x="150.0" y="300.0" type="line"/>
      <point x="280.0" y="300.0" type="line"/>
      <point x="330.0" y="350.0" type="line"/>
      <point x="250.0" y="430.0" type="line"/>
      <point x="250.0" y="500.0" type="line"/>
      <point x="320.0" y="500.0" type="line"/>
      <point x="400.0" y="420.0" type="line"/>
      <point x="450.0" y="470.0" type="line"/>
      <point x="450.0" y="530.0" type="line"/>
      <point x="380.0" y="600.0" type="line"/>
      <point x="150.0" y="600.0" type="line"/>
    </contour>
  </outline>
</glyph>
<glyph name="Geupturn-cy" format="2">
  <advance width="600"/>
  <unicode hex="0490"/>
  <outline>
    <contour>
      <point x="100.0" y="0.0" type="line"/>
      <point x="0.0" y="0.0" type="line"/>
      <point x="0.0" y="700.0" type="line"/>
      <point x="400.0" y="700.0" type="line"/>
      <point x="400.0" y="800.0" type="line"/>
      <point x="500.0" y="800.0" type="line"/>
      <point x="500.0" y="600.0" type="line"/>
      <point x="100.0" y="600.0" type="line"/>
    </contour>
  </outline>
</glyph>
<glyph name="gestroke-cy" format="2">
  <advance width="600"/>
  <unicode hex="0493"/>
  <outline>
    <contour>
      <point x="200.0" y="0.0" type="line"/>
      <point x="100.0" y="0.0" type="line"/>
      <point x="100.0" y="200.0" type="line"/>
      <point x="0.0" y="200.0" type="line"/>
      <point x="0.0" y="300.0" type="line"/>
      <point x="100.0" y="300.0" type="line"/>
      <point x="100.0" y="500.0" type="line"/>
      <point x="500.0" y="500.0" type="line"/>
      <point x="500.0" y="400.0" type="line"/>
      <point x="200.0" y="400.0" type="line"/>
      <point x="200.0" y="300.0" type="line"/>
      <point x="400.0" y="300.0" type="line"/>
      <point x="400.0" y="200.0" type="line"/>
      <point x="200.0" y="200.0" type="line"/>
    </contour>
  </outline>
</glyph>
<glyph name="zhedescender-cy" format="2">
  <advance width="700"/>
  <unicode hex="0497"/>
  <outline>
    <contour>
      <point x="600.0" y="-100.0" type="line"/>
      <point x="500.0" y="-100.0" type="line"/>
      <point x="500.0" y="0.0" type="line"/>
      <point x="400.0" y="0.0" type="line"/>
      <point x="400.0" y="128.0" type="line"/>
      <point x="328.0" y="200.0" type="line"/>
      <point x="300.0" y="200.0" type="line"/>
      <point x="300.0" y="0.0" type="line"/>
      <point x="200.0" y="0.0" type="line"/>
      <point x="200.0" y="200.0" type="line"/>
      <point x="172.0" y="200.0" type="line"/>
      <point x="100.0" y="128.0" type="line"/>
      <point x="100.0" y="0.0" type="line"/>
      <point x="0.0" y="0.0" type="line"/>
      <point x="0.0" y="172.0" type="line"/>
      <point x="78.0" y="250.0" type="line"/>
      <point x="0.0" y="328.0" type="line"/>
      <point x="0.0" y="500.0" type="line"/>
      <point x="100.0" y="500.0" type="line"/>
      <point x="100.0" y="372.0" type="line"/>
      <point x="172.0" y="300.0" type="line"/>
      <point x="200.0" y="300.0" type="line"/>
      <point x="200.0" y="500.0" type="line"/>
      <point x="300.0" y="500.0" type="line"/>
      <point x="300.0" y="300.0" type="line"/>
      <point x="328.0" y="300.0" type="line"/>
      <point x="400.0" y="372.0" type="line"/>
      <point x="400.0" y="500.0" type="line"/>
      <point x="500.0" y="500.0" type="line"/>
      <point x="500.0" y="328.0" type="line"/>
      <point x="422.0" y="250.0" type="line"/>
      <point x="472.0" y="200.0" type="line"/>
      <point x="500.0" y="200.0" type="line"/>
      <point x="500.0" y="100.0" type="line"/>
      <point x="600.0" y="100.0" type="line"/>
    </contour>
  </outline>
</glyph>
<glyph name="Kadescender-cy" format="2">
  <advance width="700"/>
  <unicode hex="049A"/>
  <outline>
    <contour>
      <point x="600.0" y="-100.0" type="line"/>
      <point x="500.0" y="-100.0" type="line"/>
      <point x="500.0" y="0.0" type="line"/>
      <point x="428.0" y="0.0" type="line"/>
      <point x="128.0" y="300.0" type="line"/>
      <point x="100.0" y="300.0" type="line"/>
      <point x="100.0" y="0.0" type="line"/>
      <point x="0.0" y="0.0" type="line"/>
      <point x="0.0" y="700.0" type="line"/>
      <point x="100.0" y="700.0" type="line"/>
      <point x="100.0" y="400.0" type="line"/>
      <point x="128.0" y="400.0" type="line"/>
      <point x="428.0" y="700.0" type="line"/>
      <point x="500.0" y="700.0" type="line"/>
      <point x="500.0" y="628.0" type="line"/>
      <point x="222.0" y="350.0" type="line"/>
      <point x="472.0" y="100.0" type="line"/>
      <point x="600.0" y="100.0" type="line"/>
    </contour>
  </outline>
</glyph>
<glyph name="kadescender-cy" format="2">
  <advance width="600"/>
  <unicode hex="049B"/>
  <outline>
    <contour>
      <point x="550.0" y="-100.0" type="line"/>
      <point x="450.0" y="-100.0" type="line"/>
      <point x="450.0" y="0.0" type="line"/>
      <point x="380.0" y="0.0" type="line"/>
      <point x="180.0" y="200.0" type="line"/>
      <point x="150.0" y="200.0" type="line"/>
      <point x="150.0" y="0.0" type="line"/>
      <point x="50.0" y="0.0" type="line"/>
      <point x="50.0" y="500.0" type="line"/>
      <point x="150.0" y="500.0" type="line"/>
      <point x="150.0" y="300.0" type="line"/>
      <point x="180.0" y="300.0" type="line"/>
      <point x="380.0" y="500.0" type="line"/>
      <point x="450.0" y="500.0" type="line"/>
      <point x="450.0" y="430.0" type="line"/>
      <point x="270.0" y="250.0" type="line"/>
      <point x="420.0" y="100.0" type="line"/>
      <point x="550.0" y="100.0" type="line"/>
    </contour>
  </outline>
</glyph>
<glyph name="uni049E" format="2">
  <advance width="700"/>
  <unicode hex="049E"/>
  <outline>
    <contour>
      <point x="250.0" y="0.0" type="line"/>
      <point x="150.0" y="0.0" type="line"/>
      <point x="150.0" y="500.0" type="line"/>
      <point x="50.0" y="500.0" type="line"/>
      <point x="50.0" y="600.0" type="line"/>
      <point x="150.0" y="600.0" type="line"/>
      <point x="150.0" y="700.0" type="line"/>
      <point x="250.0" y="700.0" type="line"/>
      <point x="250.0" y="600.0" type="line"/>
      <point x="320.0" y="600.0" type="line"/>
      <point x="400.0" y="520.0" type="line"/>
      <point x="580.0" y="700.0" type="line"/>
      <point x="650.0" y="700.0" type="line"/>
      <point x="650.0" y="630.0" type="line"/>
      <point x="370.0" y="350.0" type="line"/>
      <point x="650.0" y="70.0" type="line"/>
      <point x="650.0" y="0.0" type="line"/>
      <point x="580.0" y="0.0" type="line"/>
      <point x="280.0" y="300.0" type="line"/>
      <point x="250.0" y="300.0" type="line"/>
    </contour>
    <contour>
      <point x="250.0" y="400.0" type="line"/>
      <point x="280.0" y="400.0" type="line"/>
      <point x="330.0" y="450.0" type="line"/>
      <point x="280.0" y="500.0" type="line"/>
      <point x="250.0" y="500.0" type="line"/>
    </contour>
  </outline>
</glyph>
<glyph name="uni04A0" format="2">
  <advance width="700"/>
  <unicode hex="04A0"/>
  <outline>
    <contour>
      <point x="250.0" y="0.0" type="line"/>
      <point x="150.0" y="0.0" type="line"/>
      <point x="150.0" y="600.0" type="line"/>
      <point x="50.0" y="600.0" type="line"/>
      <point x="50.0" y="700.0" type="line"/>
      <point x="250.0" y="700.0" type="line"/>
      <point x="250.0" y="400.0" type="line"/>
      <point x="280.0" y="400.0" type="line"/>
      <point x="580.0" y="700.0" type="line"/>
      <point x="650.0" y="700.0" type="line"/>
      <point x="650.0" y="630.0" type="line"/>
      <point x="370.0" y="350.0" type="line"/>
      <point x="650.0" y="70.0" type="line"/>
      <point x="650.0" y="0.0" type="line"/>
      <point x="580.0" y="0.0" type="line"/>
      <point x="280.0" y="300.0" type="line"/>
      <point x="250.0" y="300.0" type="line"/>
    </contour>
  </outline>
</glyph>
<glyph name="uni04A1" format="2">
  <advance width="600"/>
  <unicode hex="04A1"/>
  <outline>
    <contour>
      <point x="250.0" y="0.0" type="line"/>
      <point x="150.0" y="0.0" type="line"/>
      <point x="150.0" y="400.0" type="line"/>
      <point x="50.0" y="400.0" type="line"/>
      <point x="50.0" y="500.0" type="line"/>
      <point x="250.0" y="500.0" type="line"/>
      <point x="250.0" y="300.0" type="line"/>
      <point x="280.0" y="300.0" type="line"/>
      <point x="480.0" y="500.0" type="line"/>
      <point x="550.0" y="500.0" type="line"/>
      <point x="550.0" y="430.0" type="line"/>
      <point x="370.0" y="250.0" type="line"/>
      <point x="550.0" y="70.0" type="line"/>
      <point x="550.0" y="0.0" type="line"/>
      <point x="480.0" y="0.0" type="line"/>
      <point x="280.0" y="200.0" type="line"/>
      <point x="250.0" y="200.0" type="line"/>
    </contour>
  </outline>
</glyph>
<glyph name="uni04A4" format="2">
  <advance width="700"/>
  <unicode hex="04A4"/>
  <outline>
    <contour>
      <point x="450.0" y="0.0" type="line"/>
      <point x="350.0" y="0.0" type="line"/>
      <point x="350.0" y="300.0" type="line"/>
      <point x="150.0" y="300.0" type="line"/>
      <point x="150.0" y="0.0" type="line"/>
      <point x="50.0" y="0.0" type="line"/>
      <point x="50.0" y="700.0" type="line"/>
      <point x="150.0" y="700.0" type="line"/>
      <point x="150.0" y="400.0" type="line"/>
      <point x="350.0" y="400.0" type="line"/>
      <point x="350.0" y="700.0" type="line"/>
      <point x="650.0" y="700.0" type="line"/>
      <point x="650.0" y="600.0" type="line"/>
      <point x="450.0" y="600.0" type="line"/>
    </contour>
  </outline>
</glyph>
<glyph name="Ustraightstroke-cy" format="2">
  <advance width="600"/>
  <unicode hex="04B0"/>
  <outline>
    <contour>
      <point x="300.0" y="0.0" type="line"/>
      <point x="200.0" y="0.0" type="line"/>
      <point x="200.0" y="200.0" type="line"/>
      <point x="100.0" y="200.0" type="line"/>
      <point x="100.0" y="300.0" type="line"/>
      <point x="200.0" y="300.0" type="line"/>
      <point x="200.0" y="328.0" type="line"/>
      <point x="0.0" y="528.0" type="line"/>
      <point x="0.0" y="700.0" type="line"/>
      <point x="100.0" y="700.0" type="line"/>
      <point x="100.0" y="572.0" type="line"/>
      <point x="250.0" y="422.0" type="line"/>
      <point x="400.0" y="572.0" type="line"/>
      <point x="400.0" y="700.0" type="line"/>
      <point x="500.0" y="700.0" type="line"/>
      <point x="500.0" y="528.0" type="line"/>
      <point x="300.0" y="328.0" type="line"/>
      <point x="300.0" y="300.0" type="line"/>
      <point x="400.0" y="300.0" type="line"/>
      <point x="400.0" y="200.0" type="line"/>
      <point x="300.0" y="200.0" type="line"/>
    </contour>
  </outline>
</glyph>
<glyph name="Hadescender-cy" format="2">
  <advance width="700"/>
  <unicode hex="04B2"/>
  <outline>
    <contour>
      <point x="600.0" y="-100.0" type="line"/>
      <point x="500.0" y="-100.0" type="line"/>
      <point x="500.0" y="0.0" type="line"/>
      <point x="400.0" y="0.0" type="line"/>
      <point x="400.0" y="128.0" type="line"/>
      <point x="250.0" y="278.0" type="line"/>
      <point x="100.0" y="128.0" type="line"/>
      <point x="100.0" y="0.0" type="line"/>
      <point x="0.0" y="0.0" type="line"/>
      <point x="0.0" y="172.0" type="line"/>
      <point x="178.0" y="350.0" type="line"/>
      <point x="0.0" y="528.0" type="line"/>
      <point x="0.0" y="700.0" type="line"/>
      <point x="100.0" y="700.0" type="line"/>
      <point x="100.0" y="572.0" type="line"/>
      <point x="250.0" y="422.0" type="line"/>
      <point x="400.0" y="572.0" type="line"/>
      <point x="400.0" y="700.0" type="line"/>
      <point x="500.0" y="700.0" type="line"/>
      <point x="500.0" y="528.0" type="line"/>
      <point x="322.0" y="350.0" type="line"/>
      <point x="472.0" y="200.0" type="line"/>
      <point x="500.0" y="200.0" type="line"/>
      <point x="500.0" y="100.0" type="line"/>
      <point x="600.0" y="100.0" type="line"/>
    </contour>
  </outline>
</glyph>
<glyph name="hadescender-cy" format="2">
  <advance width="700"/>
  <unicode hex="04B3"/>
  <outline>
    <contour>
      <point x="650.0" y="-100.0" type="line"/>
      <point x="550.0" y="-100.0" type="line"/>
      <point x="550.0" y="0.0" type="line"/>
      <point x="480.0" y="0.0" type="line"/>
      <point x="300.0" y="180.0" type="line"/>
      <point x="120.0" y="0.0" type="line"/>
      <point x="50.0" y="0.0" type="line"/>
      <point x="50.0" y="70.0" type="line"/>
      <point x="230.0" y="250.0" type="line"/>
      <point x="50.0" y="430.0" type="line"/>
      <point x="50.0" y="500.0" type="line"/>
      <point x="120.0" y="500.0" type="line"/>
      <point x="300.0" y="320.0" type="line"/>
      <point x="480.0" y="500.0" type="line"/>
      <point x="550.0" y="500.0" type="line"/>
      <point x="550.0" y="430.0" type="line"/>
      <point x="370.0" y="250.0" type="line"/>
      <point x="520.0" y="100.0" type="line"/>
      <point x="650.0" y="100.0" type="line"/>
    </contour>
  </outline>
</glyph>
<glyph name="uni04F6" format="2">
  <advance width="600"/>
  <unicode hex="04F6"/>
  <outline>
    <contour>
      <point x="250.0" y="-100.0" type="line"/>
      <point x="150.0" y="-100.0" type="line"/>
      <point x="150.0" y="0.0" type="line"/>
      <point x="50.0" y="0.0" type="line"/>
      <point x="50.0" y="700.0" type="line"/>
      <point x="550.0" y="700.0" type="line"/>
      <point x="550.0" y="600.0" type="line"/>
      <point x="150.0" y="600.0" type="line"/>
      <point x="150.0" y="100.0" type="line"/>
      <point x="250.0" y="100.0" type="line"/>
    </contour>
  </outline>
</glyph>
<glyph name="Da-ar" format="2">
  <advance width="600"/>
  <unicode hex="0534"/>
  <outline>
    <contour>
      <point x="400.0" y="0.0" type="line"/>
      <point x="300.0" y="0.0" type="line"/>
      <point x="300.0" y="528.0" type="line"/>
      <point x="228.0" y="600.0" type="line"/>
      <point x="172.0" y="600.0" type="line"/>
      <point x="72.0" y="500.0" type="line"/>
      <point x="0.0" y="500.0" type="line"/>
      <point x="0.0" y="572.0" type="line"/>
      <point x="128.0" y="700.0" type="line"/>
      <point x="272.0" y="700.0" type="line"/>
      <point x="400.0" y="572.0" type="line"/>
      <point x="400.0" y="400.0" type="line"/>
      <point x="500.0" y="400.0" type="line"/>
      <point x="500.0" y="300.0" type="line"/>
      <point x="400.0" y="300.0" type="line"/>
    </contour>
  </outline>
</glyph>
<glyph name="Ini-ar" format="2">
  <advance width="600"/>
  <unicode hex="053B"/>
  <outline>
    <contour>
      <point x="100.0" y="0.0" type="line"/>
      <point x="0.0" y="0.0" type="line"/>
      <point x="0.0" y="700.0" type="line"/>
      <point x="100.0" y="700.0" type="line"/>
      <point x="100.0" y="400.0" type="line"/>
      <point x="128.0" y="400.0" type="line"/>
      <point x="228.0" y="500.0" type="line"/>
      <point x="372.0" y="500.0" type="line"/>
      <point x="500.0" y="372.0" type="line"/>
      <point x="500.0" y="300.0" type="line"/>
      <point x="428.0" y="300.0" type="line"/>
      <point x="328.0" y="400.0" type="line"/>
      <point x="272.0" y="400.0" type="line"/>
      <point x="172.0" y="300.0" type="line"/>
      <point x="100.0" y="300.0" type="line"/>
    </contour>
  </outline>
</glyph>
<glyph name="Xeh-ar" format="2">
  <advance width="600"/>
  <unicode hex="053D"/>
  <outline>
    <contour>
      <point x="100.0" y="0.0" type="line"/>
      <point x="0.0" y="0.0" type="line"/>
      <point x="0.0" y="700.0" type="line"/>
      <point x="100.0" y="700.0" type="line"/>
      <point x="100.0" y="500.0" type="line"/>
      <point x="300.0" y="500.0" type="line"/>
      <point x="300.0" y="272.0" type="line"/>
      <point x="350.0" y="222.0" type="line"/>
      <point x="400.0" y="272.0" type="line"/>
      <point x="400.0" y="500.0" type="line"/>
      <point x="500.0" y="500.0" type="line"/>
      <point x="500.0" y="228.0" type="line"/>
      <point x="372.0" y="100.0" type="line"/>
      <point x="328.0" y="100.0" type="line"/>
      <point x="200.0" y="228.0" type="line"/>
      <point x="200.0" y="400.0" type="line"/>
      <point x="100.0" y="400.0" type="line"/>
    </contour>
  </outline>
</glyph>
<glyph name="Ca-ar" format="2">
  <advance width="600"/>
  <unicode hex="053E"/>
  <outline>
    <contour>
      <point x="420.0" y="0.0" type="line"/>
      <point x="180.0" y="0.0" type="line"/>
      <point x="50.0" y="130.0" type="line"/>
      <point x="50.0" y="370.0" type="line"/>
      <point x="180.0" y="500.0" type="line"/>
      <point x="50.0" y="500.0" type="line"/>
      <point x="50.0" y="700.0" type="line"/>
      <point x="150.0" y="700.0" type="line"/>
      <point x="150.0" y="600.0" type="line"/>
      <point x="550.0" y="600.0" type="line"/>
      <point x="550.0" y="500.0" type="line"/>
      <point x="420.0" y="500.0" type="line"/>
      <point x="550.0" y="370.0" type="line"/>
      <point x="550.0" y="130.0" type="line"/>
    </contour>
    <contour>
      <point x="220.0" y="100.0" type="line"/>
      <point x="380.0" y="100.0" type="line"/>
      <point x="450.0" y="170.0" type="line"/>
      <point x="450.0" y="330.0" type="line"/>
      <point x="300.0" y="480.0" type="line"/>
      <point x="150.0" y="330.0" type="line"/>
      <point x="150.0" y="170.0" type="line"/>
    </contour>
  </outline>
</glyph>
<glyph name="Ho-ar" format="2">
  <advance width="600"/>
  <unicode hex="0540"/>
  <outline>
    <contour>
      <point x="550.0" y="0.0" type="line"/>
      <point x="50.0" y="0.0" type="line"/>
      <point x="50.0" y="170.0" type="line"/>
      <point x="430.0" y="550.0" type="line"/>
      <point x="350.0" y="630.0" type="line"/>
      <point x="350.0" y="700.0" type="line"/>
      <point x="420.0" y="700.0" type="line"/>
      <point x="550.0" y="570.0" type="line"/>
      <point x="550.0" y="530.0" type="line"/>
      <point x="150.0" y="130.0" type="line"/>
      <point x="150.0" y="100.0" type="line"/>
      <point x="550.0" y="100.0" type="line"/>
    </contour>
  </outline>
</glyph>
<glyph name="Now-ar" format="2">
  <advance width="600"/>
  <unicode hex="0546"/>
  <outline>
    <contour>
      <point x="372.0" y="0.0" type="line"/>
      <point x="228.0" y="0.0" type="line"/>
      <point x="100.0" y="128.0" type="line"/>
      <point x="100.0" y="600.0" type="line"/>
      <point x="0.0" y="600.0" type="line"/>
      <point x="0.0" y="700.0" type="line"/>
      <point x="200.0" y="700.0" type="line"/>
      <point x="200.0" y="172.0" type="line"/>
      <point x="272.0" y="100.0" type="line"/>
      <point x="328.0" y="100.0" type="line"/>
      <point x="428.0" y="200.0" type="line"/>
      <point x="500.0" y="200.0" type="line"/>
      <point x="500.0" y="128.0" type="line"/>
    </contour>
  </outline>
</glyph>
<glyph name="Vo-ar" format="2">
  <advance width="600"/>
  <unicode hex="0548"/>
  <outline>
    <contour>
      <point x="550.0" y="0.0" type="line"/>
      <point x="450.0" y="0.0" type="line"/>
      <point x="450.0" y="530.0" type="line"/>
      <point x="380.0" y="600.0" type="line"/>
      <point x="220.0" y="600.0" type="line"/>
      <point x="150.0" y="530.0" type="line"/>
      <point x="150.0" y="0.0" type="line"/>
      <point x="50.0" y="0.0" type="line"/>
      <point x="50.0" y="570.0" type="line"/>
      <point x="180.0" y="700.0" type="line"/>
      <point x="420.0" y="700.0" type="line"/>
      <point x="550.0" y="570.0" type="line"/>
    </contour>
  </outline>
</glyph>
<glyph name="Peh-ar" format="2">
  <advance width="600"/>
  <unicode hex="054A"/>
  <outline>
    <contour>
      <point x="500.0" y="0.0" type="line"/>
      <point x="400.0" y="0.0" type="line"/>
      <point x="400.0" y="528.0" type="line"/>
      <point x="328.0" y="600.0" type="line"/>
      <point x="300.0" y="600.0" type="line"/>
      <point x="300.0" y="300.0" type="line"/>
      <point x="200.0" y="300.0" type="line"/>
      <point x="200.0" y="600.0" type="line"/>
      <point x="172.0" y="600.0" type="line"/>
      <point x="72.0" y="500.0" type="line"/>
      <point x="0.0" y="500.0" type="line"/>
      <point x="0.0" y="572.0" type="line"/>
      <point x="128.0" y="700.0" type="line"/>
      <point x="372.0" y="700.0" type="line"/>
      <point x="500.0" y="572.0" type="line"/>
    </contour>
  </outline>
</glyph>
<glyph name="Vew-ar" format="2">
  <advance width="600"/>
  <unicode hex="054E"/>
  <outline>
    <contour>
      <point x="500.0" y="0.0" type="line"/>
      <point x="300.0" y="0.0" type="line"/>
      <point x="300.0" y="200.0" type="line"/>
      <point x="128.0" y="200.0" type="line"/>
      <point x="0.0" y="328.0" type="line"/>
      <point x="0.0" y="500.0" type="line"/>
      <point x="100.0" y="500.0" type="line"/>
      <point x="100.0" y="372.0" type="line"/>
      <point x="172.0" y="300.0" type="line"/>
      <point x="300.0" y="300.0" type="line"/>
      <point x="300.0" y="700.0" type="line"/>
      <point x="400.0" y="700.0" type="line"/>
      <point x="400.0" y="100.0" type="line"/>
      <point x="500.0" y="100.0" type="line"/>
    </contour>
  </outline>
</glyph>
<glyph name="emphas-ar" format="2">
  <advance width="400"/>
  <unicode hex="055B"/>
  <outline>
    <contour>
      <point x="228.0" y="700.0" type="line"/>
      <point x="300.0" y="700.0" type="line"/>
      <point x="300.0" y="628.0" type="line"/>
      <point x="72.0" y="400.0" type="line"/>
      <point x="0.0" y="400.0" type="line"/>
      <point x="0.0" y="472.0" type="line"/>
    </contour>
  </outline>
</glyph>
<glyph name="exclam-ar" format="2">
  <advance width="500"/>
  <unicode hex="055C"/>
  <outline>
    <contour>
      <point x="272.0" y="500.0" type="line"/>
      <point x="172.0" y="500.0" type="line"/>
      <point x="72.0" y="400.0" type="line"/>
      <point x="0.0" y="400.0" type="line"/>
      <point x="0.0" y="472.0" type="line"/>
      <point x="128.0" y="600.0" type="line"/>
      <point x="228.0" y="600.0" type="line"/>
      <point x="328.0" y="700.0" type="line"/>
      <point x="400.0" y="700.0" type="line"/>
      <point x="400.0" y="628.0" type="line"/>
    </contour>
  </outline>
</glyph>
<glyph name="question-ar" format="2">
  <advance width="500"/>
  <unicode hex="055E"/>
  <outline>
    <contour>
      <point x="100.0" y="400.0" type="line"/>
      <point x="0.0" y="400.0" type="line"/>
      <point x="0.0" y="572.0" type="line"/>
      <point x="128.0" y="700.0" type="line"/>
      <point x="272.0" y="700.0" type="line"/>
      <point x="400.0" y="572.0" type="line"/>
      <point x="400.0" y="528.0" type="line"/>
      <point x="272.0" y="400.0" type="line"/>
      <point x="200.0" y="400.0" type="line"/>
      <point x="200.0" y="472.0" type="line"/>
      <point x="278.0" y="550.0" type="line"/>
      <point x="228.0" y="600.0" type="line"/>
      <point x="172.0" y="600.0" type="line"/>
      <point x="100.0" y="528.0" type="line"/>
    </contour>
  </outline>
</glyph>
<glyph name="abbrev-ar" format="2">
  <advance width="600"/>
  <unicode hex="055F"/>
  <outline>
    <contour>
      <point x="500.0" y="500.0" type="line"/>
      <point x="0.0" y="500.0" type="line"/>
      <point x="0.0" y="700.0" type="line"/>
      <point x="100.0" y="700.0" type="line"/>
      <point x="100.0" y="600.0" type="line"/>
      <point x="500.0" y="600.0" type="line"/>
    </contour>
  </outline>
</glyph>
<glyph name="liwn-ar" format="2">
  <advance width="300"/>
  <unicode hex="056C"/>
  <outline>
    <contour>
      <point x="200.0" y="-200.0" type="line"/>
      <point x="0.0" y="-200.0" type="line"/>
      <point x="0.0" y="500.0" type="line"/>
      <point x="100.0" y="500.0" type="line"/>
      <point x="100.0" y="-100.0" type="line"/>
      <point x="200.0" y="-100.0" type="line"/>
    </contour>
  </outline>
</glyph>
<glyph name="ca-ar" format="2">
  <advance width="600"/>
  <unicode hex="056E"/>
  <outline>
    <contour>
      <point x="372.0" y="0.0" type="line"/>
      <point x="128.0" y="0.0" type="line"/>
      <point x="0.0" y="128.0" type="line"/>
      <point x="0.0" y="272.0" type="line"/>
      <point x="178.0" y="450.0" type="line"/>
      <point x="100.0" y="528.0" type="line"/>
      <point x="100.0" y="572.0" type="line"/>
      <point x="228.0" y="700.0" type="line"/>
      <point x="300.0" y="700.0" type="line"/>
      <point x="300.0" y="628.0" type="line"/>
      <point x="222.0" y="550.0" type="line"/>
      <point x="272.0" y="500.0" type="line"/>
      <point x="500.0" y="500.0" type="line"/>
      <point x="500.0" y="400.0" type="line"/>
      <point x="400.0" y="400.0" type="line"/>
      <point x="400.0" y="372.0" type="line"/>
      <point x="500.0" y="272.0" type="line"/>
      <point x="500.0" y="128.0" type="line"/>
    </contour>
    <contour>
      <point x="172.0" y="100.0" type="line"/>
      <point x="328.0" y="100.0" type="line"/>
      <point x="400.0" y="172.0" type="line"/>
      <point x="400.0" y="228.0" type="line"/>
      <point x="300.0" y="328.0" type="line"/>
      <point x="300.0" y="400.0" type="line"/>
      <point x="272.0" y="400.0" type="line"/>
      <point x="100.0" y="228.0" type="line"/>
      <point x="100.0" y="172.0" type="line"/>
    </contour>
  </outline>
</glyph>
<glyph name="ja-ar" format="2">
  <advance width="600"/>
  <unicode hex="0571"/>
  <outline>
    <contour>
      <point x="500.0" y="0.0" type="line"/>
      <point x="400.0" y="0.0" type="line"/>
      <point x="400.0" y="100.0" type="line"/>
      <point x="372.0" y="100.0" type="line"/>
      <point x="272.0" y="0.0" type="line"/>
      <point x="128.0" y="0.0" type="line"/>
      <point x="0.0" y="128.0" type="line"/>
      <point x="0.0" y="272.0" type="line"/>
      <point x="278.0" y="550.0" type="line"/>
      <point x="200.0" y="628.0" type="line"/>
      <point x="200.0" y="700.0" type="line"/>
      <point x="272.0" y="700.0" type="line"/>
      <point x="400.0" y="572.0" type="line"/>
      <point x="400.0" y="528.0" type="line"/>
      <point x="322.0" y="450.0" type="line"/>
      <point x="500.0" y="272.0" type="line"/>
    </contour>
    <contour>
      <point x="172.0" y="100.0" type="line"/>
      <point x="228.0" y="100.0" type="line"/>
      <point x="328.0" y="200.0" type="line"/>
      <point x="400.0" y="200.0" type="line"/>
      <point x="400.0" y="228.0" type="line"/>
      <point x="250.0" y="378.0" type="line"/>
      <point x="100.0" y="228.0" type="line"/>
      <point x="100.0" y="172.0" type="line"/>
    </contour>
  </outline>
</glyph>
<glyph name="cheh-ar" format="2">
  <advance width="600"/>
  <unicode hex="0573"/>
  <outline>
    <contour>
      <point x="500.0" y="0.0" type="line"/>
      <point x="400.0" y="0.0" type="line"/>
      <point x="400.0" y="100.0" type="line"/>
      <point x="372.0" y="100.0" type="line"/>
      <point x="272.0" y="0.0" type="line"/>
      <point x="128.0" y="0.0" type="line"/>
      <point x="0.0" y="128.0" type="line"/>
      <point x="0.0" y="372.0" type="line"/>
      <point x="178.0" y="550.0" type="line"/>
      <point x="100.0" y="628.0" type="line"/>
      <point x="100.0" y="700.0" type="line"/>
      <point x="172.0" y="700.0" type="line"/>
      <point x="250.0" y="622.0" type="line"/>
      <point x="328.0" y="700.0" type="line"/>
      <point x="500.0" y="700.0" type="line"/>
      <point x="500.0" y="600.0" type="line"/>
      <point x="372.0" y="600.0" type="line"/>
      <point x="322.0" y="550.0" type="line"/>
      <point x="500.0" y="372.0" type="line"/>
    </contour>
    <contour>
      <point x="172.0" y="100.0" type="line"/>
      <point x="228.0" y="100.0" type="line"/>
      <point x="328.0" y="200.0" type="line"/>
      <point x="400.0" y="200.0" type="line"/>
      <point x="400.0" y="328.0" type="line"/>
      <point x="250.0" y="478.0" type="line"/>
      <point x="100.0" y="328.0" type="line"/>
      <point x="100.0" y="172.0" type="line"/>
    </contour>
  </outline>
</glyph>
<glyph name="now-ar" format="2">
  <advance width="700"/>
  <unicode hex="0576"/>
  <outline>
    <contour>
      <point x="600.0" y="0.0" type="line"/>
      <point x="500.0" y="0.0" type="line"/>
      <point x="500.0" y="100.0" type="line"/>
      <point x="472.0" y="100.0" type="line"/>
      <point x="372.0" y="0.0" type="line"/>
      <point x="228.0" y="0.0" type="line"/>
      <point x="100.0" y="128.0" type="line"/>
      <point x="100.0" y="600.0" type="line"/>
      <point x="0.0" y="600.0" type="line"/>
      <point x="0.0" y="700.0" type="line"/>
      <point x="200.0" y="700.0" type="line"/>
      <point x="200.0" y="172.0" type="line"/>
      <point x="272.0" y="100.0" type="line"/>
      <point x="328.0" y="100.0" type="line"/>
      <point x="428.0" y="200.0" type="line"/>
      <point x="500.0" y="200.0" type="line"/>
      <point x="500.0" y="500.0" type="line"/>
      <point x="600.0" y="500.0" type="line"/>
    </contour>
  </outline>
</glyph>
<glyph name="cha-ar" format="2">
  <advance width="400"/>
  <unicode hex="0579"/>
  <outline>
    <contour>
      <point x="450.0" y="-200.0" type="line"/>
      <point x="180.0" y="-200.0" type="line"/>
      <point x="50.0" y="-70.0" type="line"/>
      <point x="50.0" y="-30.0" type="line"/>
      <point x="230.0" y="150.0" type="line"/>
      <point x="50.0" y="330.0" type="line"/>
      <point x="50.0" y="370.0" type="line"/>
      <point x="180.0" y="500.0" type="line"/>
      <point x="250.0" y="500.0" type="line"/>
      <point x="250.0" y="430.0" type="line"/>
      <point x="170.0" y="350.0" type="line"/>
      <point x="350.0" y="170.0" type="line"/>
      <point x="350.0" y="130.0" type="line"/>
      <point x="170.0" y="-50.0" type="line"/>
      <point x="220.0" y="-100.0" type="line"/>
      <point x="450.0" y="-100.0" type="line"/>
    </contour>
  </outline>
</glyph>
<glyph name="keh-ar" format="2">
  <advance width="700"/>
  <unicode hex="0584"/>
  <outline>
    <contour>
      <point x="200.0" y="-200.0" type="line"/>
      <point x="100.0" y="-200.0" type="line"/>
      <point x="100.0" y="-100.0" type="line"/>
      <point x="0.0" y="-100.0" type="line"/>
      <point x="0.0" y="0.0" type="line"/>
      <point x="100.0" y="0.0" type="line"/>
      <point x="100.0" y="500.0" type="line"/>
      <point x="200.0" y="500.0" type="line"/>
      <point x="200.0" y="400.0" type="line"/>
      <point x="228.0" y="400.0" type="line"/>
      <point x="328.0" y="500.0" type="line"/>
      <point x="472.0" y="500.0" type="line"/>
      <point x="600.0" y="372.0" type="line"/>
      <point x="600.0" y="228.0" type="line"/>
      <point x="472.0" y="100.0" type="line"/>
      <point x="328.0" y="100.0" type="line"/>
      <point x="228.0" y="200.0" type="line"/>
      <point x="200.0" y="200.0" type="line"/>
      <point x="200.0" y="0.0" type="line"/>
      <point x="500.0" y="0.0" type="line"/>
      <point x="500.0" y="-100.0" type="line"/>
      <point x="200.0" y="-100.0" type="line"/>
    </contour>
    <contour>
      <point x="372.0" y="200.0" type="line"/>
      <point x="428.0" y="200.0" type="line"/>
      <point x="500.0" y="272.0" type="line"/>
      <point x="500.0" y="328.0" type="line"/>
      <point x="428.0" y="400.0" type="line"/>
      <point x="372.0" y="400.0" type="line"/>
      <point x="300.0" y="328.0" type="line"/>
      <point x="300.0" y="272.0" type="line"/>
    </contour>
  </outline>
</glyph>
<glyph name="ech_yiwn-ar" format="2">
  <advance width="900"/>
  <unicode hex="0587"/>
  <outline>
    <contour>
      <point x="850.0" y="0.0" type="line"/>
      <point x="450.0" y="0.0" type="line"/>
      <point x="450.0" y="100.0" type="line"/>
      <point x="420.0" y="100.0" type="line"/>
      <point x="320.0" y="0.0" type="line"/>
      <point x="180.0" y="0.0" type="line"/>
      <point x="50.0" y="130.0" type="line"/>
      <point x="50.0" y="700.0" type="line"/>
      <point x="150.0" y="700.0" type="line"/>
      <point x="150.0" y="170.0" type="line"/>
      <point x="220.0" y="100.0" type="line"/>
      <point x="280.0" y="100.0" type="line"/>
      <point x="380.0" y="200.0" type="line"/>
      <point x="450.0" y="200.0" type="line"/>
      <point x="450.0" y="500.0" type="line"/>
      <point x="550.0" y="500.0" type="line"/>
      <point x="550.0" y="100.0" type="line"/>
      <point x="850.0" y="100.0" type="line"/>
    </contour>
  </outline>
</glyph>
<glyph name="eternityleft" format="2">
  <advance width="800"/>
  <unicode hex="058D"/>
  <outline>
    <contour>
      <point x="420.0" y="0.0" type="line"/>
      <point x="280.0" y="0.0" type="line"/>
      <point x="150.0" y="130.0" type="line"/>
      <point x="150.0" y="230.0" type="line"/>
      <point x="50.0" y="330.0" type="line"/>
      <point x="50.0" y="470.0" type="line"/>
      <point x="180.0" y="600.0" type="line"/>
      <point x="280.0" y="600.0" type="line"/>
      <point x="380.0" y="700.0" type="line"/>
      <point x="520.0" y="700.0" type="line"/>
      <point x="650.0" y="570.0" type="line"/>
      <point x="650.0" y="470.0" type="line"/>
      <point x="750.0" y="370.0" type="line"/>
      <point x="750.0" y="230.0" type="line"/>
      <point x="620.0" y="100.0" type="line"/>
      <point x="520.0" y="100.0" type="line"/>
    </contour>
    <contour>
      <point x="320.0" y="100.0" type="line"/>
      <point x="380.0" y="100.0" type="line"/>
      <point x="450.0" y="170.0" type="line"/>
      <point x="450.0" y="230.0" type="line"/>
      <point x="400.0" y="280.0" type="line"/>
      <point x="320.0" y="200.0" type="line"/>
      <point x="250.0" y="200.0" type="line"/>
      <point x="250.0" y="170.0" type="line"/>
    </contour>
    <contour>
      <point x="550.0" y="200.0" type="line"/>
      <point x="580.0" y="200.0" type="line"/>
      <point x="650.0" y="270.0" type="line"/>
      <point x="650.0" y="330.0" type="line"/>
      <point x="580.0" y="400.0" type="line"/>
      <point x="520.0" y="400.0" type="line"/>
      <point x="470.0" y="350.0" type="line"/>
      <point x="550.0" y="270.0" type="line"/>
    </contour>
    <contour>
      <point x="220.0" y="300.0" type="line"/>
      <point x="280.0" y="300.0" type="line"/>
      <point x="330.0" y="350.0" type="line"/>
      <point x="250.0" y="430.0" type="line"/>
      <point x="250.0" y="500.0" type="line"/>
      <point x="220.0" y="500.0" type="line"/>
      <point x="150.0" y="430.0" type="line"/>
      <point x="150.0" y="370.0" type="line"/>
    </contour>
    <contour>
      <point x="480.0" y="600.0" type="line"/>
      <point x="420.0" y="600.0" type="line"/>
      <point x="350.0" y="530.0" type="line"/>
      <point x="350.0" y="470.0" type="line"/>
      <point x="400.0" y="420.0" type="line"/>
      <point x="480.0" y="500.0" type="line"/>
      <point x="550.0" y="500.0" type="line"/>
      <point x="550.0" y="530.0" type="line"/>
    </contour>
  </outline>
</glyph>
<glyph name="uni05C0" format="2">
  <advance width="200"/>
  <unicode hex="05C0"/>
  <outline>
    <contour>
      <point x="150.0" y="0.0" type="line"/>
      <point x="50.0" y="0.0" type="line"/>
      <point x="50.0" y="600.0" type="line"/>
      <point x="150.0" y="600.0" type="line"/>
    </contour>
  </outline>
</glyph>
<glyph name="uni05D0" format="2">
  <advance width="600"/>
  <unicode hex="05D0"/>
  <outline>
    <contour>
      <point x="550.0" y="0.0" type="line"/>
      <point x="450.0" y="0.0" type="line"/>
      <point x="450.0" y="130.0" type="line"/>
      <point x="200.0" y="380.0" type="line"/>
      <point x="150.0" y="330.0" type="line"/>
      <point x="150.0" y="0.0" type="line"/>
      <point x="50.0" y="0.0" type="line"/>
      <point x="50.0" y="370.0" type="line"/>
      <point x="130.0" y="450.0" type="line"/>
      <point x="50.0" y="530.0" type="line"/>
      <point x="50.0" y="600.0" type="line"/>
      <point x="120.0" y="600.0" type="line"/>
      <point x="400.0" y="320.0" type="line"/>
      <point x="450.0" y="370.0" type="line"/>
      <point x="450.0" y="600.0" type="line"/>
      <point x="550.0" y="600.0" type="line"/>
      <point x="550.0" y="330.0" type="line"/>
      <point x="470.0" y="250.0" type="line"/>
      <point x="550.0" y="170.0" type="line"/>
    </contour>
  </outline>
</glyph>
<glyph name="uni05D6" format="2">
  <advance width="400"/>
  <unicode hex="05D6"/>
  <outline>
    <contour>
      <point x="250.0" y="0.0" type="line"/>
      <point x="150.0" y="0.0" type="line"/>
      <point x="150.0" y="230.0" type="line"/>
      <point x="50.0" y="330.0" type="line"/>
      <point x="50.0" y="370.0" type="line"/>
      <point x="150.0" y="470.0" type="line"/>
      <point x="150.0" y="500.0" type="line"/>
      <point x="50.0" y="500.0" type="line"/>
      <point x="50.0" y="600.0" type="line"/>
      <point x="350.0" y="600.0" type="line"/>
      <point x="350.0" y="530.0" type="line"/>
      <point x="170.0" y="350.0" type="line"/>
      <point x="250.0" y="270.0" type="line"/>
    </contour>
  </outline>
</glyph>
<glyph name="uni05D8" format="2">
  <advance width="600"/>
  <unicode hex="05D8"/>
  <outline>
    <contour>
      <point x="420.0" y="0.0" type="line"/>
      <point x="50.0" y="0.0" type="line"/>
      <point x="50.0" y="600.0" type="line"/>
      <point x="150.0" y="600.0" type="line"/>
      <point x="150.0" y="100.0" type="line"/>
      <point x="380.0" y="100.0" type="line"/>
      <point x="450.0" y="170.0" type="line"/>
      <point x="450.0" y="430.0" type="line"/>
      <point x="400.0" y="480.0" type="line"/>
      <point x="320.0" y="400.0" type="line"/>
      <point x="250.0" y="400.0" type="line"/>
      <point x="250.0" y="470.0" type="line"/>
      <point x="380.0" y="600.0" type="line"/>
      <point x="420.0" y="600.0" type="line"/>
      <point x="550.0" y="470.0" type="line"/>
      <point x="550.0" y="130.0" type="line"/>
    </contour>
  </outline>
</glyph>
<glyph name="uni05DE" format="2">
  <advance width="600"/>
  <unicode hex="05DE"/>
  <outline>
    <contour>
      <point x="550.0" y="0.0" type="line"/>
      <point x="250.0" y="0.0" type="line"/>
      <point x="250.0" y="100.0" type="line"/>
      <point x="450.0" y="100.0" type="line"/>
      <point x="450.0" y="430.0" type="line"/>
      <point x="380.0" y="500.0" type="line"/>
      <point x="320.0" y="500.0" type="line"/>
      <point x="150.0" y="330.0" type="line"/>
      <point x="150.0" y="0.0" type="line"/>
      <point x="50.0" y="0.0" type="line"/>
      <point x="50.0" y="370.0" type="line"/>
      <point x="130.0" y="450.0" type="line"/>
      <point x="50.0" y="530.0" type="line"/>
      <point x="50.0" y="600.0" type="line"/>
      <point x="120.0" y="600.0" type="line"/>
      <point x="200.0" y="520.0" type="line"/>
      <point x="280.0" y="600.0" type="line"/>
      <point x="420.0" y="600.0" type="line"/>
      <point x="550.0" y="470.0" type="line"/>
    </contour>
  </outline>
</glyph>
<glyph name="uni05E6" format="2">
  <advance width="600"/>
  <unicode hex="05E6"/>
  <outline>
    <contour>
      <point x="550.0" y="0.0" type="line"/>
      <point x="50.0" y="0.0" type="line"/>
      <point x="50.0" y="100.0" type="line"/>
      <point x="350.0" y="100.0" type="line"/>
      <point x="350.0" y="130.0" type="line"/>
      <point x="50.0" y="430.0" type="line"/>
      <point x="50.0" y="600.0" type="line"/>
      <point x="150.0" y="600.0" type="line"/>
      <point x="150.0" y="470.0" type="line"/>
      <point x="300.0" y="320.0" type="line"/>
      <point x="450.0" y="470.0" type="line"/>
      <point x="450.0" y="600.0" type="line"/>
      <point x="550.0" y="600.0" type="line"/>
      <point x="550.0" y="430.0" type="line"/>
      <point x="370.0" y="250.0" type="line"/>
      <point x="450.0" y="170.0" type="line"/>
      <point x="450.0" y="100.0" type="line"/>
      <point x="550.0" y="100.0" type="line"/>
    </contour>
  </outline>
</glyph>
<glyph name="uni10A2" format="2">
  <advance width="600"/>
  <unicode hex="10A2"/>
  <outline>
    <contour>
      <point x="500.0" y="0.0" type="line"/>
      <point x="300.0" y="0.0" type="line"/>
      <point x="300.0" y="600.0" type="line"/>
      <point x="100.0" y="600.0" type="line"/>
      <point x="100.0" y="400.0" type="line"/>
      <point x="0.0" y="400.0" type="line"/>
      <point x="0.0" y="700.0" type="line"/>
      <point x="400.0" y="700.0" type="line"/>
      <point x="400.0" y="100.0" type="line"/>
      <point x="500.0" y="100.0" type="line"/>
    </contour>
  </outline>
</glyph>
<glyph name="uni10A5" format="2">
  <advance width="700"/>
  <unicode hex="10A5"/>
  <outline>
    <contour>
      <point x="400.0" y="0.0" type="line"/>
      <point x="300.0" y="0.0" type="line"/>
      <point x="300.0" y="600.0" type="line"/>
      <point x="100.0" y="600.0" type="line"/>
      <point x="100.0" y="400.0" type="line"/>
      <point x="0.0" y="400.0" type="line"/>
      <point x="0.0" y="700.0" type="line"/>
      <point x="400.0" y="700.0" type="line"/>
      <point x="400.0" y="400.0" type="line"/>
      <point x="600.0" y="400.0" type="line"/>
      <point x="600.0" y="200.0" type="line"/>
      <point x="500.0" y="200.0" type="line"/>
      <point x="500.0" y="300.0" type="line"/>
      <point x="400.0" y="300.0" type="line"/>
    </contour>
  </outline>
</glyph>
<glyph name="uni10A8" format="2">
  <advance width="600"/>
  <unicode hex="10A8"/>
  <outline>
    <contour>
      <point x="500.0" y="0.0" type="line"/>
      <point x="400.0" y="0.0" type="line"/>
      <point x="400.0" y="600.0" type="line"/>
      <point x="0.0" y="600.0" type="line"/>
      <point x="0.0" y="700.0" type="line"/>
      <point x="500.0" y="700.0" type="line"/>
    </contour>
  </outline>
</glyph>
<glyph name="uni10A9" format="2">
  <advance width="600"/>
  <unicode hex="10A9"/>
  <outline>
    <contour>
      <point x="500.0" y="0.0" type="line"/>
      <point x="400.0" y="0.0" type="line"/>
      <point x="400.0" y="100.0" type="line"/>
      <point x="128.0" y="100.0" type="line"/>
      <point x="0.0" y="228.0" type="line"/>
      <point x="0.0" y="700.0" type="line"/>
      <point x="100.0" y="700.0" type="line"/>
      <point x="100.0" y="600.0" type="line"/>
      <point x="372.0" y="600.0" type="line"/>
      <point x="500.0" y="472.0" type="line"/>
    </contour>
    <contour>
      <point x="172.0" y="200.0" type="line"/>
      <point x="400.0" y="200.0" type="line"/>
      <point x="400.0" y="428.0" type="line"/>
      <point x="328.0" y="500.0" type="line"/>
      <point x="100.0" y="500.0" type="line"/>
      <point x="100.0" y="272.0" type="line"/>
    </contour>
  </outline>
</glyph>
<glyph name="uni10AB" format="2">
  <advance width="700"/>
  <unicode hex="10AB"/>
  <outline>
    <contour>
      <point x="450.0" y="0.0" type="line"/>
      <point x="180.0" y="0.0" type="line"/>
      <point x="50.0" y="130.0" type="line"/>
      <point x="50.0" y="270.0" type="line"/>
      <point x="180.0" y="400.0" type="line"/>
      <point x="350.0" y="400.0" type="line"/>
      <point x="350.0" y="600.0" type="line"/>
      <point x="50.0" y="600.0" type="line"/>
      <point x="50.0" y="700.0" type="line"/>
      <point x="450.0" y="700.0" type="line"/>
      <point x="450.0" y="400.0" type="line"/>
      <point x="650.0" y="400.0" type="line"/>
      <point x="650.0" y="200.0" type="line"/>
      <point x="550.0" y="200.0" type="line"/>
      <point x="550.0" y="300.0" type="line"/>
      <point x="450.0" y="300.0" type="line"/>
    </contour>
    <contour>
      <point x="220.0" y="100.0" type="line"/>
      <point x="350.0" y="100.0" type="line"/>
      <point x="350.0" y="300.0" type="line"/>
      <point x="220.0" y="300.0" type="line"/>
      <point x="150.0" y="230.0" type="line"/>
      <point x="150.0" y="170.0" type="line"/>
    </contour>
  </outline>
</glyph>
<glyph name="uni10AC" format="2">
  <advance width="600"/>
  <unicode hex="10AC"/>
  <outline>
    <contour>
      <point x="500.0" y="0.0" type="line"/>
      <point x="400.0" y="0.0" type="line"/>
      <point x="400.0" y="228.0" type="line"/>
      <point x="328.0" y="300.0" type="line"/>
      <point x="100.0" y="300.0" type="line"/>
      <point x="100.0" y="0.0" type="line"/>
      <point x="0.0" y="0.0" type="line"/>
      <point x="0.0" y="700.0" type="line"/>
      <point x="500.0" y="700.0" type="line"/>
      <point x="500.0" y="600.0" type="line"/>
      <point x="100.0" y="600.0" type="line"/>
      <point x="100.0" y="400.0" type="line"/>
      <point x="372.0" y="400.0" type="line"/>
      <point x="500.0" y="272.0" type="line"/>
    </contour>
  </outline>
</glyph>
<glyph name="uni10AD" format="2">
  <advance width="700"/>
  <unicode hex="10AD"/>
  <outline>
    <contour>
      <point x="320.0" y="0.0" type="line"/>
      <point x="180.0" y="0.0" type="line"/>
      <point x="50.0" y="130.0" type="line"/>
      <point x="50.0" y="570.0" type="line"/>
      <point x="180.0" y="700.0" type="line"/>
      <point x="320.0" y="700.0" type="line"/>
      <point x="450.0" y="570.0" type="line"/>
      <point x="450.0" y="170.0" type="line"/>
      <point x="500.0" y="120.0" type="line"/>
      <point x="550.0" y="170.0" type="line"/>
      <point x="550.0" y="300.0" type="line"/>
      <point x="650.0" y="300.0" type="line"/>
      <point x="650.0" y="130.0" type="line"/>
      <point x="520.0" y="0.0" type="line"/>
      <point x="480.0" y="0.0" type="line"/>
      <point x="400.0" y="80.0" type="line"/>
    </contour>
    <contour>
      <point x="220.0" y="100.0" type="line"/>
      <point x="280.0" y="100.0" type="line"/>
      <point x="350.0" y="170.0" type="line"/>
      <point x="350.0" y="530.0" type="line"/>
      <point x="280.0" y="600.0" type="line"/>
      <point x="220.0" y="600.0" type="line"/>
      <point x="150.0" y="530.0" type="line"/>
      <point x="150.0" y="170.0" type="line"/>
    </contour>
  </outline>
</glyph>
<glyph name="uni10AE" format="2">
  <advance width="600"/>
  <unicode hex="10AE"/>
  <outline>
    <contour>
      <point x="372.0" y="0.0" type="line"/>
      <point x="228.0" y="0.0" type="line"/>
      <point x="100.0" y="128.0" type="line"/>
      <point x="100.0" y="600.0" type="line"/>
      <point x="0.0" y="600.0" type="line"/>
      <point x="0.0" y="700.0" type="line"/>
      <point x="200.0" y="700.0" type="line"/>
      <point x="200.0" y="172.0" type="line"/>
      <point x="272.0" y="100.0" type="line"/>
      <point x="328.0" y="100.0" type="line"/>
      <point x="400.0" y="172.0" type="line"/>
      <point x="400.0" y="700.0" type="line"/>
      <point x="500.0" y="700.0" type="line"/>
      <point x="500.0" y="128.0" type="line"/>
    </contour>
  </outline>
</glyph>
<glyph name="uni10AF" format="2">
  <advance width="600"/>
  <unicode hex="10AF"/>
  <outline>
    <contour>
      <point x="500.0" y="0.0" type="line"/>
      <point x="400.0" y="0.0" type="line"/>
      <point x="400.0" y="300.0" type="line"/>
      <point x="228.0" y="300.0" type="line"/>
      <point x="100.0" y="428.0" type="line"/>
      <point x="100.0" y="600.0" type="line"/>
      <point x="0.0" y="600.0" type="line"/>
      <point x="0.0" y="700.0" type="line"/>
      <point x="200.0" y="700.0" type="line"/>
      <point x="200.0" y="472.0" type="line"/>
      <point x="272.0" y="400.0" type="line"/>
      <point x="400.0" y="400.0" type="line"/>
      <point x="400.0" y="700.0" type="line"/>
      <point x="500.0" y="700.0" type="line"/>
    </contour>
  </outline>
</glyph>
<glyph name="uni10BF" format="2">
  <advance width="600"/>
  <unicode hex="10BF"/>
  <outline>
    <contour>
      <point x="500.0" y="0.0" type="line"/>
      <point x="400.0" y="0.0" type="line"/>
      <point x="400.0" y="128.0" type="line"/>
      <point x="250.0" y="278.0" type="line"/>
      <point x="100.0" y="128.0" type="line"/>
      <point x="100.0" y="0.0" type="line"/>
      <point x="0.0" y="0.0" type="line"/>
      <point x="0.0" y="172.0" type="line"/>
      <point x="178.0" y="350.0" type="line"/>
      <point x="0.0" y="528.0" type="line"/>
      <point x="0.0" y="700.0" type="line"/>
      <point x="500.0" y="700.0" type="line"/>
      <point x="500.0" y="528.0" type="line"/>
      <point x="322.0" y="350.0" type="line"/>
      <point x="500.0" y="172.0" type="line"/>
    </contour>
    <contour>
      <point x="400.0" y="600.0" type="line"/>
      <point x="100.0" y="600.0" type="line"/>
      <point x="100.0" y="572.0" type="line"/>
      <point x="250.0" y="422.0" type="line"/>
      <point x="400.0" y="572.0" type="line"/>
    </contour>
  </outline>
</glyph>
<glyph name="uni10C0" format="2">
  <advance width="700"/>
  <unicode hex="10C0"/>
  <outline>
    <contour>
      <point x="520.0" y="0.0" type="line"/>
      <point x="380.0" y="0.0" type="line"/>
      <point x="250.0" y="130.0" type="line"/>
      <point x="250.0" y="600.0" type="line"/>
      <point x="150.0" y="600.0" type="line"/>
      <point x="150.0" y="400.0" type="line"/>
      <point x="50.0" y="400.0" type="line"/>
      <point x="50.0" y="700.0" type="line"/>
      <point x="350.0" y="700.0" type="line"/>
      <point x="350.0" y="170.0" type="line"/>
      <point x="420.0" y="100.0" type="line"/>
      <point x="480.0" y="100.0" type="line"/>
      <point x="580.0" y="200.0" type="line"/>
      <point x="650.0" y="200.0" type="line"/>
      <point x="650.0" y="130.0" type="line"/>
    </contour>
  </outline>
</glyph>
<glyph name="uni10C3" format="2">
  <advance width="600"/>
  <unicode hex="10C3"/>
  <outline>
    <contour>
      <point x="500.0" y="0.0" type="line"/>
      <point x="400.0" y="0.0" type="line"/>
      <point x="400.0" y="200.0" type="line"/>
      <point x="128.0" y="200.0" type="line"/>
      <point x="0.0" y="328.0" type="line"/>
      <point x="0.0" y="500.0" type="line"/>
      <point x="100.0" y="500.0" type="line"/>
      <point x="100.0" y="372.0" type="line"/>
      <point x="172.0" y="300.0" type="line"/>
      <point x="400.0" y="300.0" type="line"/>
      <point x="400.0" y="700.0" type="line"/>
      <point x="500.0" y="700.0" type="line"/>
    </contour>
  </outline>
</glyph>
<glyph name="uni10E2" format="2">
  <advance width="600"/>
  <unicode hex="10E2"/>
  <outline>
    <contour>
      <point x="372.0" y="-200.0" type="line"/>
      <point x="128.0" y="-200.0" type="line"/>
      <point x="0.0" y="-72.0" type="line"/>
      <point x="0.0" y="372.0" type="line"/>
      <point x="128.0" y="500.0" type="line"/>
      <point x="200.0" y="500.0" type="line"/>
      <point x="200.0" y="600.0" type="line"/>
      <point x="300.0" y="600.0" type="line"/>
      <point x="300.0" y="500.0" type="line"/>
      <point x="372.0" y="500.0" type="line"/>
      <point x="500.0" y="372.0" type="line"/>
      <point x="500.0" y="-72.0" type="line"/>
    </contour>
    <contour>
      <point x="172.0" y="-100.0" type="line"/>
      <point x="328.0" y="-100.0" type="line"/>
      <point x="400.0" y="-28.0" type="line"/>
      <point x="400.0" y="328.0" type="line"/>
      <point x="328.0" y="400.0" type="line"/>
      <point x="300.0" y="400.0" type="line"/>
      <point x="300.0" y="300.0" type="line"/>
      <point x="200.0" y="300.0" type="line"/>
      <point x="200.0" y="400.0" type="line"/>
      <point x="172.0" y="400.0" type="line"/>
      <point x="100.0" y="328.0" type="line"/>
      <point x="100.0" y="-28.0" type="line"/>
    </contour>
  </outline>
</glyph>
<glyph name="uni10E3" format="2">
  <advance width="600"/>
  <unicode hex="10E3"/>
  <outline>
    <contour>
      <point x="372.0" y="-200.0" type="line"/>
      <point x="128.0" y="-200.0" type="line"/>
      <point x="0.0" y="-72.0" type="line"/>
      <point x="0.0" y="100.0" type="line"/>
      <point x="100.0" y="100.0" type="line"/>
      <point x="100.0" y="-28.0" type="line"/>
      <point x="172.0" y="-100.0" type="line"/>
      <point x="328.0" y="-100.0" type="line"/>
      <point x="400.0" y="-28.0" type="line"/>
      <point x="400.0" y="328.0" type="line"/>
      <point x="350.0" y="378.0" type="line"/>
      <point x="272.0" y="300.0" type="line"/>
      <point x="228.0" y="300.0" type="line"/>
      <point x="150.0" y="378.0" type="line"/>
      <point x="72.0" y="300.0" type="line"/>
      <point x="0.0" y="300.0" type="line"/>
      <point x="0.0" y="372.0" type="line"/>
      <point x="128.0" y="500.0" type="line"/>
      <point x="172.0" y="500.0" type="line"/>
      <point x="250.0" y="422.0" type="line"/>
      <point x="328.0" y="500.0" type="line"/>
      <point x="372.0" y="500.0" type="line"/>
      <point x="500.0" y="372.0" type="line"/>
      <point x="500.0" y="-72.0" type="line"/>
    </contour>
  </outline>
</glyph>
<glyph name="uni10E4" format="2">
  <advance width="700"/>
  <unicode hex="10E4"/>
  <outline>
    <contour>
      <point x="472.0" y="-200.0" type="line"/>
      <point x="200.0" y="-200.0" type="line"/>
      <point x="200.0" y="-100.0" type="line"/>
      <point x="428.0" y="-100.0" type="line"/>
      <point x="500.0" y="-28.0" type="line"/>
      <point x="500.0" y="28.0" type="line"/>
      <point x="400.0" y="128.0" type="line"/>
      <point x="400.0" y="172.0" type="line"/>
      <point x="500.0" y="272.0" type="line"/>
      <point x="500.0" y="328.0" type="line"/>
      <point x="428.0" y="400.0" type="line"/>
      <point x="372.0" y="400.0" type="line"/>
      <point x="300.0" y="328.0" type="line"/>
      <point x="300.0" y="128.0" type="line"/>
      <point x="172.0" y="0.0" type="line"/>
      <point x="128.0" y="0.0" type="line"/>
      <point x="0.0" y="128.0" type="line"/>
      <point x="0.0" y="372.0" type="line"/>
      <point x="128.0" y="500.0" type="line"/>
      <point x="172.0" y="500.0" type="line"/>
      <point x="250.0" y="422.0" type="line"/>
      <point x="328.0" y="500.0" type="line"/>
      <point x="472.0" y="500.0" type="line"/>
      <point x="600.0" y="372.0" type="line"/>
      <point x="600.0" y="228.0" type="line"/>
      <point x="522.0" y="150.0" type="line"/>
      <point x="600.0" y="72.0" type="line"/>
      <point x="600.0" y="-72.0" type="line"/>
    </contour>
    <contour>
      <point x="200.0" y="172.0" type="line"/>
      <point x="200.0" y="328.0" type="line"/>
      <point x="150.0" y="378.0" type="line"/>
      <point x="100.0" y="328.0" type="line"/>
      <point x="100.0" y="172.0" type="line"/>
      <point x="150.0" y="122.0" type="line"/>
    </contour>
  </outline>
</glyph>
<glyph name="uni10E6" format="2">
  <advance width="600"/>
  <unicode hex="10E6"/>
  <outline>
    <contour>
      <point x="400.0" y="-200.0" type="line"/>
      <point x="228.0" y="-200.0" type="line"/>
      <point x="128.0" y="-100.0" type="line"/>
      <point x="0.0" y="-100.0" type="line"/>
      <point x="0.0" y="0.0" type="line"/>
      <point x="100.0" y="0.0" type="line"/>
      <point x="100.0" y="28.0" type="line"/>
      <point x="0.0" y="128.0" type="line"/>
      <point x="0.0" y="372.0" type="line"/>
      <point x="128.0" y="500.0" type="line"/>
      <point x="172.0" y="500.0" type="line"/>
      <point x="250.0" y="422.0" type="line"/>
      <point x="328.0" y="500.0" type="line"/>
      <point x="372.0" y="500.0" type="line"/>
      <point x="500.0" y="372.0" type="line"/>
      <point x="500.0" y="128.0" type="line"/>
      <point x="372.0" y="0.0" type="line"/>
      <point x="300.0" y="0.0" type="line"/>
      <point x="300.0" y="72.0" type="line"/>
      <point x="400.0" y="172.0" type="line"/>
      <point x="400.0" y="328.0" type="line"/>
      <point x="350.0" y="378.0" type="line"/>
      <point x="300.0" y="328.0" type="line"/>
      <point x="300.0" y="200.0" type="line"/>
      <point x="200.0" y="200.0" type="line"/>
      <point x="200.0" y="328.0" type="line"/>
      <point x="150.0" y="378.0" type="line"/>
      <point x="100.0" y="328.0" type="line"/>
      <point x="100.0" y="172.0" type="line"/>
      <point x="200.0" y="72.0" type="line"/>
      <point x="200.0" y="-28.0" type="line"/>
      <point x="272.0" y="-100.0" type="line"/>
      <point x="400.0" y="-100.0" type="line"/>
    </contour>
  </outline>
</glyph>
<glyph name="uni10E8" format="2">
  <advance width="600"/>
  <unicode hex="10E8"/>
  <outline>
    <contour>
      <point x="420.0" y="0.0" type="line"/>
      <point x="180.0" y="0.0" type="line"/>
      <point x="50.0" y="130.0" type="line"/>
      <point x="50.0" y="270.0" type="line"/>
      <point x="180.0" y="400.0" type="line"/>
      <point x="320.0" y="400.0" type="line"/>
      <point x="420.0" y="300.0" type="line"/>
      <point x="450.0" y="300.0" type="line"/>
      <point x="450.0" y="530.0" type="line"/>
      <point x="400.0" y="580.0" type="line"/>
      <point x="320.0" y="500.0" type="line"/>
      <point x="280.0" y="500.0" type="line"/>
      <point x="200.0" y="580.0" type="line"/>
      <point x="120.0" y="500.0" type="line"/>
      <point x="50.0" y="500.0" type="line"/>
      <point x="50.0" y="570.0" type="line"/>
      <point x="180.0" y="700.0" type="line"/>
      <point x="220.0" y="700.0" type="line"/>
      <point x="300.0" y="620.0" type="line"/>
      <point x="380.0" y="700.0" type="line"/>
      <point x="420.0" y="700.0" type="line"/>
      <point x="550.0" y="570.0" type="line"/>
      <point x="550.0" y="130.0" type="line"/>
    </contour>
    <contour>
      <point x="220.0" y="100.0" type="line"/>
      <point x="380.0" y="100.0" type="line"/>
      <point x="450.0" y="170.0" type="line"/>
      <point x="450.0" y="200.0" type="line"/>
      <point x="380.0" y="200.0" type="line"/>
      <point x="280.0" y="300.0" type="line"/>
      <point x="220.0" y="300.0" type="line"/>
      <point x="150.0" y="230.0" type="line"/>
      <point x="150.0" y="170.0" type="line"/>
    </contour>
  </outline>
</glyph>
<glyph name="uni10EA" format="2">
  <advance width="600"/>
  <unicode hex="10EA"/>
  <outline>
    <contour>
      <point x="372.0" y="-200.0" type="line"/>
      <point x="128.0" y="-200.0" type="line"/>
      <point x="0.0" y="-72.0" type="line"/>
      <point x="0.0" y="372.0" type="line"/>
      <point x="128.0" y="500.0" type="line"/>
      <point x="200.0" y="500.0" type="line"/>
      <point x="200.0" y="428.0" type="line"/>
      <point x="100.0" y="328.0" type="line"/>
      <point x="100.0" y="-28.0" type="line"/>
      <point x="172.0" y="-100.0" type="line"/>
      <point x="328.0" y="-100.0" type="line"/>
      <point x="400.0" y="-28.0" type="line"/>
      <point x="400.0" y="28.0" type="line"/>
      <point x="328.0" y="100.0" type="line"/>
      <point x="200.0" y="100.0" type="line"/>
      <point x="200.0" y="200.0" type="line"/>
      <point x="328.0" y="200.0" type="line"/>
      <point x="400.0" y="272.0" type="line"/>
      <point x="400.0" y="328.0" type="line"/>
      <point x="300.0" y="428.0" type="line"/>
      <point x="300.0" y="500.0" type="line"/>
      <point x="372.0" y="500.0" type="line"/>
      <point x="500.0" y="372.0" type="line"/>
      <point x="500.0" y="228.0" type="line"/>
      <point x="422.0" y="150.0" type="line"/>
      <point x="500.0" y="72.0" type="line"/>
      <point x="500.0" y="-72.0" type="line"/>
    </contour>
  </outline>
</glyph>
<glyph name="uni10EC" format="2">
  <advance width="600"/>
  <unicode hex="10EC"/>
  <outline>
    <contour>
      <point x="500.0" y="272.0" type="line"/>
      <point x="500.0" y="28.0" type="line"/>
      <point x="272.0" y="-200.0" type="line"/>
      <point x="228.0" y="-200.0" type="line"/>
      <point x="0.0" y="28.0" type="line"/>
      <point x="0.0" y="572.0" type="line"/>
      <point x="128.0" y="700.0" type="line"/>
      <point x="172.0" y="700.0" type="line"/>
      <point x="250.0" y="622.0" type="line"/>
      <point x="328.0" y="700.0" type="line"/>
      <point x="372.0" y="700.0" type="line"/>
      <point x="500.0" y="572.0" type="line"/>
      <point x="500.0" y="500.0" type="line"/>
      <point x="428.0" y="500.0" type="line"/>
      <point x="350.0" y="578.0" type="line"/>
      <point x="272.0" y="500.0" type="line"/>
      <point x="228.0" y="500.0" type="line"/>
      <point x="150.0" y="578.0" type="line"/>
      <point x="100.0" y="528.0" type="line"/>
      <point x="100.0" y="300.0" type="line"/>
      <point x="128.0" y="300.0" type="line"/>
      <point x="228.0" y="400.0" type="line"/>
      <point x="372.0" y="400.0" type="line"/>
    </contour>
    <contour>
      <point x="400.0" y="72.0" type="line"/>
      <point x="400.0" y="228.0" type="line"/>
      <point x="328.0" y="300.0" type="line"/>
      <point x="272.0" y="300.0" type="line"/>
      <point x="172.0" y="200.0" type="line"/>
      <point x="100.0" y="200.0" type="line"/>
      <point x="100.0" y="72.0" type="line"/>
      <point x="250.0" y="-78.0" type="line"/>
    </contour>
  </outline>
</glyph>
<glyph name="uni10F0" format="2">
  <advance width="600"/>
  <unicode hex="10F0"/>
  <outline>
    <contour>
      <point x="372.0" y="0.0" type="line"/>
      <point x="128.0" y="0.0" type="line"/>
      <point x="0.0" y="128.0" type="line"/>
      <point x="0.0" y="200.0" type="line"/>
      <point x="72.0" y="200.0" type="line"/>
      <point x="172.0" y="100.0" type="line"/>
      <point x="328.0" y="100.0" type="line"/>
      <point x="378.0" y="150.0" type="line"/>
      <point x="328.0" y="200.0" type="line"/>
      <point x="200.0" y="200.0" type="line"/>
      <point x="200.0" y="300.0" type="line"/>
      <point x="328.0" y="300.0" type="line"/>
      <point x="378.0" y="350.0" type="line"/>
      <point x="328.0" y="400.0" type="line"/>
      <point x="200.0" y="400.0" type="line"/>
      <point x="200.0" y="500.0" type="line"/>
      <point x="328.0" y="500.0" type="line"/>
      <point x="378.0" y="550.0" type="line"/>
      <point x="328.0" y="600.0" type="line"/>
      <point x="200.0" y="600.0" type="line"/>
      <point x="200.0" y="700.0" type="line"/>
      <point x="372.0" y="700.0" type="line"/>
      <point x="500.0" y="572.0" type="line"/>
      <point x="500.0" y="528.0" type="line"/>
      <point x="422.0" y="450.0" type="line"/>
      <point x="500.0" y="372.0" type="line"/>
      <point x="500.0" y="328.0" type="line"/>
      <point x="422.0" y="250.0" type="line"/>
      <point x="500.0" y="172.0" type="line"/>
      <point x="500.0" y="128.0" type="line"/>
    </contour>
  </outline>
</glyph>
<glyph name="uni10F4" format="2">
  <advance width="600"/>
  <unicode hex="10F4"/>
  <outline>
    <contour>
      <point x="420.0" y="-200.0" type="line"/>
      <point x="180.0" y="-200.0" type="line"/>
      <point x="50.0" y="-70.0" type="line"/>
      <point x="50.0" y="100.0" type="line"/>
      <point x="150.0" y="100.0" type="line"/>
      <point x="150.0" y="-30.0" type="line"/>
      <point x="220.0" y="-100.0" type="line"/>
      <point x="380.0" y="-100.0" type="line"/>
      <point x="450.0" y="-30.0" type="line"/>
      <point x="450.0" y="30.0" type="line"/>
      <point x="380.0" y="100.0" type="line"/>
      <point x="250.0" y="100.0" type="line"/>
      <point x="250.0" y="200.0" type="line"/>
      <point x="380.0" y="200.0" type="line"/>
      <point x="450.0" y="270.0" type="line"/>
      <point x="450.0" y="330.0" type="line"/>
      <point x="380.0" y="400.0" type="line"/>
      <point x="280.0" y="400.0" type="line"/>
      <point x="150.0" y="530.0" type="line"/>
      <point x="150.0" y="570.0" type="line"/>
      <point x="280.0" y="700.0" type="line"/>
      <point x="450.0" y="700.0" type="line"/>
      <point x="450.0" y="600.0" type="line"/>
      <point x="320.0" y="600.0" type="line"/>
      <point x="270.0" y="550.0" type="line"/>
      <point x="320.0" y="500.0" type="line"/>
      <point x="420.0" y="500.0" type="line"/>
      <point x="550.0" y="370.0" type="line"/>
      <point x="550.0" y="230.0" type="line"/>
      <point x="470.0" y="150.0" type="line"/>
      <point x="550.0" y="70.0" type="line"/>
      <point x="550.0" y="-70.0" type="line"/>
    </contour>
  </outline>
</glyph>
<glyph name="uni10F9" format="2">
  <advance width="600"/>
  <unicode hex="10F9"/>
  <outline>
    <contour>
      <point x="372.0" y="-200.0" type="line"/>
      <point x="228.0" y="-200.0" type="line"/>
      <point x="100.0" y="-72.0" type="line"/>
      <point x="100.0" y="-28.0" type="line"/>
      <point x="178.0" y="50.0" type="line"/>
      <point x="0.0" y="228.0" type="line"/>
      <point x="0.0" y="372.0" type="line"/>
      <point x="128.0" y="500.0" type="line"/>
      <point x="372.0" y="500.0" type="line"/>
      <point x="500.0" y="372.0" type="line"/>
      <point x="500.0" y="228.0" type="line"/>
      <point x="222.0" y="-50.0" type="line"/>
      <point x="272.0" y="-100.0" type="line"/>
      <point x="328.0" y="-100.0" type="line"/>
      <point x="428.0" y="0.0" type="line"/>
      <point x="500.0" y="0.0" type="line"/>
      <point x="500.0" y="-72.0" type="line"/>
    </contour>
    <contour>
      <point x="328.0" y="400.0" type="line"/>
      <point x="172.0" y="400.0" type="line"/>
      <point x="100.0" y="328.0" type="line"/>
      <point x="100.0" y="272.0" type="line"/>
      <point x="250.0" y="122.0" type="line"/>
      <point x="400.0" y="272.0" type="line"/>
      <point x="400.0" y="328.0" type="line"/>
    </contour>
  </outline>
</glyph>
<glyph name="uni10FC" format="2">
  <advance width="400"/>
  <unicode hex="10FC"/>
  <outline>
    <contour>
      <point x="50.0" y="330.0" type="line"/>
      <point x="50.0" y="700.0" type="line"/>
      <point x="350.0" y="700.0" type="line"/>
      <point x="350.0" y="600.0" type="line"/>
      <point x="150.0" y="600.0" type="line"/>
      <point x="150.0" y="500.0" type="line"/>
      <point x="220.0" y="500.0" type="line"/>
      <point x="350.0" y="370.0" type="line"/>
      <point x="350.0" y="330.0" type="line"/>
      <point x="220.0" y="200.0" type="line"/>
      <point x="180.0" y="200.0" type="line"/>
    </contour>
    <contour>
      <point x="150.0" y="400.0" type="line"/>
      <point x="150.0" y="370.0" type="line"/>
      <point x="200.0" y="320.0" type="line"/>
      <point x="230.0" y="350.0" type="line"/>
      <point x="180.0" y="400.0" type="line"/>
    </contour>
  </outline>
</glyph>
<glyph name="uni1C90" format="2">
  <advance width="600"/>
  <unicode hex="1C90"/>
  <outline>
    <contour>
      <point x="420.0" y="0.0" type="line"/>
      <point x="180.0" y="0.0" type="line"/>
      <point x="50.0" y="130.0" type="line"/>
      <point x="50.0" y="300.0" type="line"/>
      <point x="150.0" y="300.0" type="line"/>
      <point x="150.0" y="170.0" type="line"/>
      <point x="220.0" y="100.0" type="line"/>
      <point x="380.0" y="100.0" type="line"/>
      <point x="450.0" y="170.0" type="line"/>
      <point x="450.0" y="330.0" type="line"/>
      <point x="250.0" y="530.0" type="line"/>
      <point x="250.0" y="700.0" type="line"/>
      <point x="350.0" y="700.0" type="line"/>
      <point x="350.0" y="570.0" type="line"/>
      <point x="550.0" y="370.0" type="line"/>
      <point x="550.0" y="130.0" type="line"/>
    </contour>
  </outline>
</glyph>
<glyph name="uni1C97" format="2">
  <advance width="600"/>
  <unicode hex="1C97"/>
  <outline>
    <contour>
      <point x="500.0" y="0.0" type="line"/>
      <point x="400.0" y="0.0" type="line"/>
      <point x="400.0" y="528.0" type="line"/>
      <point x="350.0" y="578.0" type="line"/>
      <point x="300.0" y="528.0" type="line"/>
      <point x="300.0" y="128.0" type="line"/>
      <point x="172.0" y="0.0" type="line"/>
      <point x="128.0" y="0.0" type="line"/>
      <point x="0.0" y="128.0" type="line"/>
      <point x="0.0" y="572.0" type="line"/>
      <point x="128.0" y="700.0" type="line"/>
      <point x="172.0" y="700.0" type="line"/>
      <point x="250.0" y="622.0" type="line"/>
      <point x="328.0" y="700.0" type="line"/>
      <point x="372.0" y="700.0" type="line"/>
      <point x="500.0" y="572.0" type="line"/>
    </contour>
    <contour>
      <point x="200.0" y="172.0" type="line"/>
      <point x="200.0" y="528.0" type="line"/>
      <point x="150.0" y="578.0" type="line"/>
      <point x="100.0" y="528.0" type="line"/>
      <point x="100.0" y="172.0" type="line"/>
      <point x="150.0" y="122.0" type="line"/>
    </contour>
  </outline>
</glyph>
<glyph name="uni1C98" format="2">
  <advance width="600"/>
  <unicode hex="1C98"/>
  <outline>
    <contour>
      <point x="550.0" y="570.0" type="line"/>
      <point x="550.0" y="130.0" type="line"/>
      <point x="420.0" y="0.0" type="line"/>
      <point x="350.0" y="0.0" type="line"/>
      <point x="350.0" y="70.0" type="line"/>
      <point x="450.0" y="170.0" type="line"/>
      <point x="450.0" y="530.0" type="line"/>
      <point x="380.0" y="600.0" type="line"/>
      <point x="220.0" y="600.0" type="line"/>
      <point x="150.0" y="530.0" type="line"/>
      <point x="150.0" y="170.0" type="line"/>
      <point x="250.0" y="70.0" type="line"/>
      <point x="250.0" y="0.0" type="line"/>
      <point x="180.0" y="0.0" type="line"/>
      <point x="50.0" y="130.0" type="line"/>
      <point x="50.0" y="570.0" type="line"/>
      <point x="180.0" y="700.0" type="line"/>
      <point x="420.0" y="700.0" type="line"/>
    </contour>
  </outline>
</glyph>
<glyph name="uni1C9D" format="2">
  <advance width="600"/>
  <unicode hex="1C9D"/>
  <outline>
    <contour>
      <point x="500.0" y="572.0" type="line"/>
      <point x="500.0" y="128.0" type="line"/>
      <point x="372.0" y="0.0" type="line"/>
      <point x="300.0" y="0.0" type="line"/>
      <point x="300.0" y="72.0" type="line"/>
      <point x="400.0" y="172.0" type="line"/>
      <point x="400.0" y="528.0" type="line"/>
      <point x="350.0" y="578.0" type="line"/>
      <point x="300.0" y="528.0" type="line"/>
      <point x="300.0" y="300.0" type="line"/>
      <point x="200.0" y="300.0" type="line"/>
      <point x="200.0" y="528.0" type="line"/>
      <point x="150.0" y="578.0" type="line"/>
      <point x="100.0" y="528.0" type="line"/>
      <point x="100.0" y="172.0" type="line"/>
      <point x="200.0" y="72.0" type="line"/>
      <point x="200.0" y="0.0" type="line"/>
      <point x="128.0" y="0.0" type="line"/>
      <point x="0.0" y="128.0" type="line"/>
      <point x="0.0" y="572.0" type="line"/>
      <point x="128.0" y="700.0" type="line"/>
      <point x="172.0" y="700.0" type="line"/>
      <point x="250.0" y="622.0" type="line"/>
      <point x="328.0" y="700.0" type="line"/>
      <point x="372.0" y="700.0" type="line"/>
    </contour>
  </outline>
</glyph>
<glyph name="uni1CAC" format="2">
  <advance width="600"/>
  <unicode hex="1CAC"/>
  <outline>
    <contour>
      <point x="328.0" y="300.0" type="line"/>
      <point x="100.0" y="300.0" type="line"/>
      <point x="100.0" y="272.0" type="line"/>
      <point x="250.0" y="122.0" type="line"/>
      <point x="378.0" y="250.0" type="line"/>
    </contour>
    <contour>
      <point x="100.0" y="400.0" type="line"/>
      <point x="372.0" y="400.0" type="line"/>
      <point x="500.0" y="272.0" type="line"/>
      <point x="500.0" y="228.0" type="line"/>
      <point x="272.0" y="0.0" type="line"/>
      <point x="228.0" y="0.0" type="line"/>
      <point x="0.0" y="228.0" type="line"/>
      <point x="0.0" y="572.0" type="line"/>
      <point x="128.0" y="700.0" type="line"/>
      <point x="172.0" y="700.0" type="line"/>
      <point x="250.0" y="622.0" type="line"/>
      <point x="328.0" y="700.0" type="line"/>
      <point x="372.0" y="700.0" type="line"/>
      <point x="500.0" y="572.0" type="line"/>
      <point x="500.0" y="500.0" type="line"/>
      <point x="428.0" y="500.0" type="line"/>
      <point x="350.0" y="578.0" type="line"/>
      <point x="272.0" y="500.0" type="line"/>
      <point x="228.0" y="500.0" type="line"/>
      <point x="150.0" y="578.0" type="line"/>
      <point x="100.0" y="528.0" type="line"/>
    </contour>
  </outline>
</glyph>
<glyph name="Nmod" format="2">
  <advance height="1100" width="500"/>
  <unicode hex="1D3A"/>
  <outline>
    <contour>
      <point x="450.0" y="300.0" type="line"/>
      <point x="350.0" y="300.0" type="line"/>
      <point x="350.0" y="430.0" type="line"/>
      <point x="150.0" y="630.0" type="line"/>
      <point x="150.0" y="300.0" type="line"/>
      <point x="50.0" y="300.0" type="line"/>
      <point x="50.0" y="800.0" type="line"/>
      <point x="120.0" y="800.0" type="line"/>
      <point x="350.0" y="570.0" type="line"/>
      <point x="350.0" y="800.0" type="line"/>
      <point x="450.0" y="800.0" type="line"/>
    </contour>
  </outline>
</glyph>
<glyph name="Hbrevebelow" format="2">
  <advance width="600"/>
  <unicode hex="1E2A"/>
  <outline>
    <contour>
      <point x="550.0" y="100.0" type="line"/>
      <point x="450.0" y="100.0" type="line"/>
      <point x="450.0" y="300.0" type="line"/>
      <point x="150.0" y="300.0" type="line"/>
      <point x="150.0" y="100.0" type="line"/>
      <point x="50.0" y="100.0" type="line"/>
      <point x="50.0" y="700.0" type="line"/>
      <point x="150.0" y="700.0" type="line"/>
      <point x="150.0" y="400.0" type="line"/>
      <point x="450.0" y="400.0" type="line"/>
      <point x="450.0" y="700.0" type="line"/>
      <point x="550.0" y="700.0" type="line"/>
    </contour>
    <component base="brevebelowcomb" xOffset="300.0" yOffset="100.0"/>
  </outline>
</glyph>
<glyph name="hbrevebelow" format="2">
  <advance width="600"/>
  <unicode hex="1E2B"/>
  <outline>
    <contour>
      <point x="151.0" y="701.0" type="line"/>
      <point x="151.0" y="401.0" type="line"/>
      <point x="250.0" y="401.0" type="line"/>
      <point x="250.0" y="501.0" type="line"/>
      <point x="451.0" y="501.0" type="line"/>
      <point x="451.0" y="401.0" type="line"/>
      <point x="551.0" y="401.0" type="line"/>
      <point x="551.0" y="100.0" type="line"/>
      <point x="450.0" y="100.0" type="line"/>
      <point x="450.0" y="400.0" type="line"/>
      <point x="251.0" y="400.0" type="line"/>
      <point x="251.0" y="300.0" type="line"/>
      <point x="151.0" y="300.0" type="line"/>
      <point x="151.0" y="100.0" type="line"/>
      <point x="50.0" y="100.0" type="line"/>
      <point x="50.0" y="701.0" type="line"/>
    </contour>
    <component base="brevebelowcomb" xOffset="300.0" yOffset="100.0"/>
  </outline>
</glyph>
<glyph name="Abrevetilde" format="2">
  <advance width="600"/>
  <unicode hex="1EB4"/>
  <outline>
    <contour>
      <point x="128.0" y="1000.0" type="line"/>
      <point x="300.0" y="1000.0" type="line"/>
      <point x="300.0" y="900.0" type="line"/>
      <point x="328.0" y="900.0" type="line"/>
      <point x="428.0" y="1000.0" type="line"/>
      <point x="500.0" y="1000.0" type="line"/>
      <point x="500.0" y="928.0" type="line"/>
      <point x="372.0" y="800.0" type="line"/>
      <point x="200.0" y="800.0" type="line"/>
      <point x="200.0" y="900.0" type="line"/>
      <point x="172.0" y="900.0" type="line"/>
      <point x="72.0" y="800.0" type="line"/>
      <point x="172.0" y="700.0" type="line"/>
      <point x="328.0" y="700.0" type="line"/>
      <point x="428.0" y="800.0" type="line"/>
      <point x="500.0" y="800.0" type="line"/>
      <point x="500.0" y="728.0" type="line"/>
      <point x="372.0" y="600.0" type="line"/>
      <point x="128.0" y="600.0" type="line"/>
      <point x="0.0" y="728.0" type="line"/>
      <point x="0.0" y="872.0" type="line"/>
    </contour>
    <contour>
      <point x="228.0" y="500.0" type="line"/>
      <point x="272.0" y="500.0" type="line"/>
      <point x="500.0" y="272.0" type="line"/>
      <point x="500.0" y="0.0" type="line"/>
      <point x="400.0" y="0.0" type="line"/>
      <point x="400.0" y="100.0" type="line"/>
      <point x="100.0" y="100.0" type="line"/>
      <point x="100.0" y="0.0" type="line"/>
      <point x="0.0" y="0.0" type="line"/>
      <point x="0.0" y="272.0" type="line"/>
    </contour>
    <contour>
      <point x="250.0" y="378.0" type="line"/>
      <point x="100.0" y="228.0" type="line"/>
      <point x="100.0" y="200.0" type="line"/>
      <point x="400.0" y="200.0" type="line"/>
      <point x="400.0" y="228.0" type="line"/>
    </contour>
  </outline>
</glyph>
<glyph name="emdash" format="2">
  <advance width="600"/>
  <unicode hex="2014"/>
  <outline>
    <contour>
      <point x="650.0" y="300.0" type="line"/>
      <point x="50.0" y="300.0" type="line"/>
      <point x="50.0" y="400.0" type="line"/>
      <point x="650.0" y="400.0" type="line"/>
    </contour>
  </outline>
</glyph>
<glyph name="quoteleft" format="2">
  <advance width="300"/>
  <unicode hex="2018"/>
  <outline>
    <contour>
      <point x="150.0" y="400.0" type="line"/>
      <point x="50.0" y="400.0" type="line"/>
      <point x="50.0" y="570.0" type="line"/>
      <point x="180.0" y="700.0" type="line"/>
      <point x="250.0" y="700.0" type="line"/>
      <point x="250.0" y="630.0" type="line"/>
      <point x="150.0" y="530.0" type="line"/>
    </contour>
  </outline>
</glyph>
<glyph name="daggerdbl" format="2">
  <advance width="600"/>
  <unicode hex="2021"/>
  <outline>
    <contour>
      <point x="300.0" y="0.0" type="line"/>
      <point x="200.0" y="0.0" type="line"/>
      <point x="200.0" y="200.0" type="line"/>
      <point x="0.0" y="200.0" type="line"/>
      <point x="0.0" y="300.0" type="line"/>
      <point x="200.0" y="300.0" type="line"/>
      <point x="200.0" y="400.0" type="line"/>
      <point x="0.0" y="400.0" type="line"/>
      <point x="0.0" y="500.0" type="line"/>
      <point x="200.0" y="500.0" type="line"/>
      <point x="200.0" y="700.0" type="line"/>
      <point x="300.0" y="700.0" type="line"/>
      <point x="300.0" y="500.0" type="line"/>
      <point x="500.0" y="500.0" type="line"/>
      <point x="500.0" y="400.0" type="line"/>
      <point x="300.0" y="400.0" type="line"/>
      <point x="300.0" y="300.0" type="line"/>
      <point x="500.0" y="300.0" type="line"/>
      <point x="500.0" y="200.0" type="line"/>
      <point x="300.0" y="200.0" type="line"/>
    </contour>
  </outline>
</glyph>
<glyph name="bullet" format="2">
  <advance width="400"/>
  <unicode hex="2022"/>
  <outline>
    <contour>
      <point x="270.0" y="200.0" type="line"/>
      <point x="130.0" y="200.0" type="line"/>
      <point x="50.0" y="280.0" type="line"/>
      <point x="50.0" y="420.0" type="line"/>
      <point x="130.0" y="500.0" type="line"/>
      <point x="270.0" y="500.0" type="line"/>
      <point x="350.0" y="420.0" type="line"/>
      <point x="350.0" y="280.0" type="line"/>
    </contour>
  </outline>
</glyph>
<glyph name="ellipsis" format="2">
  <advance width="600"/>
  <unicode hex="2026"/>
  <outline>
    <contour>
      <point x="500.0" y="0.0" type="line"/>
      <point x="400.0" y="0.0" type="line"/>
      <point x="400.0" y="100.0" type="line"/>
      <point x="500.0" y="100.0" type="line"/>
    </contour>
    <contour>
      <point x="300.0" y="0.0" type="line"/>
      <point x="200.0" y="0.0" type="line"/>
      <point x="200.0" y="100.0" type="line"/>
      <point x="300.0" y="100.0" type="line"/>
    </contour>
    <contour>
      <point x="100.0" y="0.0" type="line"/>
      <point x="0.0" y="0.0" type="line"/>
      <point x="0.0" y="100.0" type="line"/>
      <point x="100.0" y="100.0" type="line"/>
    </contour>
  </outline>
</glyph>
<glyph name="perthousand" format="2">
  <advance width="900"/>
  <unicode hex="2030"/>
  <outline>
    <contour>
      <point x="650.0" y="201.0" type="line"/>
      <point x="851.0" y="201.0" type="line"/>
      <point x="851.0" y="0.0" type="line"/>
      <point x="650.0" y="0.0" type="line"/>
    </contour>
    <component base="percent"/>
  </outline>
</glyph>
<glyph name="guilsinglleft" format="2">
  <advance width="300"/>
  <unicode hex="2039"/>
  <outline>
    <contour>
      <point x="128.0" y="500.0" type="line"/>
      <point x="200.0" y="500.0" type="line"/>
      <point x="200.0" y="428.0" type="line"/>
      <point x="122.0" y="350.0" type="line"/>
      <point x="200.0" y="272.0" type="line"/>
      <point x="200.0" y="200.0" type="line"/>
      <point x="128.0" y="200.0" type="line"/>
      <point x="0.0" y="328.0" type="line"/>
      <point x="0.0" y="372.0" type="line"/>
    </contour>
  </outline>
</glyph>
<glyph name="guilsinglright" format="2">
  <advance width="300"/>
  <unicode hex="203A"/>
  <outline>
    <contour>
      <point x="0.0" y="500.0" type="line"/>
      <point x="72.0" y="500.0" type="line"/>
      <point x="200.0" y="372.0" type="line"/>
      <point x="200.0" y="328.0" type="line"/>
      <point x="72.0" y="200.0" type="line"/>
      <point x="0.0" y="200.0" type="line"/>
      <point x="0.0" y="272.0" type="line"/>
      <point x="78.0" y="350.0" type="line"/>
      <point x="0.0" y="428.0" type="line"/>
    </contour>
  </outline>
</glyph>
<glyph name="uni203D" format="2">
  <advance width="600"/>
  <unicode hex="203D"/>
  <outline>
    <contour>
      <point x="300.0" y="0.0" type="line"/>
      <point x="200.0" y="0.0" type="line"/>
      <point x="200.0" y="100.0" type="line"/>
      <point x="300.0" y="100.0" type="line"/>
    </contour>
    <contour>
      <point x="300.0" y="200.0" type="line"/>
      <point x="200.0" y="200.0" type="line"/>
      <point x="200.0" y="600.0" type="line"/>
      <point x="172.0" y="600.0" type="line"/>
      <point x="72.0" y="500.0" type="line"/>
      <point x="0.0" y="500.0" type="line"/>
      <point x="0.0" y="572.0" type="line"/>
      <point x="128.0" y="700.0" type="line"/>
      <point x="372.0" y="700.0" type="line"/>
      <point x="500.0" y="572.0" type="line"/>
      <point x="500.0" y="428.0" type="line"/>
      <point x="372.0" y="300.0" type="line"/>
      <point x="300.0" y="300.0" type="line"/>
    </contour>
    <contour>
      <point x="300.0" y="400.0" type="line"/>
      <point x="328.0" y="400.0" type="line"/>
      <point x="400.0" y="472.0" type="line"/>
      <point x="400.0" y="528.0" type="line"/>
      <point x="328.0" y="600.0" type="line"/>
      <point x="300.0" y="600.0" type="line"/>
    </contour>
  </outline>
</glyph>
